<svg xmlns="http://www.w3.org/2000/svg" viewBox="0 0 80 80"><style/><g id="icons"><path d="M52.2 69H27.8c-2.2 0-4-1.8-4-4V15c0-2.2 1.8-4 4-4h24.4c2.2 0 4 1.8 4 4v50c0 2.2-1.8 4-4 4z" fill="none" stroke="#313131" stroke-width="3" stroke-miterlimit="10"/><path d="M28 58.1v-37c0-.6.4-1 1-1h22c.6 0 1 .4 1 1v37c0 .6-.4 1-1 1H29c-.6 0-1-.4-1-1z" fill="#e74c3c"/><circle cx="40" cy="63.8" r="2.6" fill="#313131"/><path fill="none" stroke="#313131" stroke-width="2" stroke-linecap="round" stroke-miterlimit="10" d="M36.8 15.9h6.4"/></g></svg>