<svg xmlns="http://www.w3.org/2000/svg" width="512" height="512" viewBox="0 0 438.533 438.533"><path d="M409.133 109.203c-19.608-33.592-46.205-60.189-79.798-79.796C295.736 9.801 259.058 0 219.273 0c-39.781 0-76.47 9.801-110.063 29.407-33.595 19.604-60.192 46.201-79.8 79.796C9.801 142.8 0 179.489 0 219.267c0 39.78 9.804 76.463 29.407 110.062 19.607 33.592 46.204 60.189 79.799 79.798 33.597 19.605 70.283 29.407 110.063 29.407s76.47-9.802 110.065-29.407c33.593-19.602 60.189-46.206 79.795-79.798 19.603-33.596 29.403-70.284 29.403-110.062.001-39.782-9.8-76.472-29.399-110.064zm-47.4 95.502L232.119 334.324c-3.614 3.614-7.9 5.428-12.849 5.428-4.948 0-9.229-1.813-12.847-5.428L76.804 204.705c-3.617-3.615-5.426-7.898-5.426-12.845 0-4.949 1.809-9.235 5.426-12.851l29.119-29.121c3.621-3.618 7.9-5.426 12.851-5.426 4.948 0 9.231 1.809 12.847 5.426l87.65 87.65 87.65-87.65c3.614-3.618 7.898-5.426 12.847-5.426s9.233 1.809 12.847 5.426l29.123 29.121c3.621 3.616 5.428 7.902 5.428 12.851-.002 4.947-1.809 9.23-5.433 12.845z" fill="#e74c3c"/></svg>