<svg version="1.1" id="Capa_1" xmlns="http://www.w3.org/2000/svg" x="0" y="0" width="116" height="40" viewBox="0 0 116 40" xml:space="preserve"><style>.st0{fill:#fff}</style><path id="XMLID_286_" class="st0" d="M8.4 15.1H3.2v3.3H9V21H0V7h8.7v2.6H3.2v2.9h5.2v2.6z"/><path id="XMLID_284_" class="st0" d="M11 17.7c.9.4 2.2.9 3.5.9 1.5 0 2.2-.6 2.2-1.5s-.7-1.4-2.3-2c-2.3-.8-3.8-2.1-3.8-4.1 0-2.4 2-4.2 5.3-4.2 1.6 0 2.7.3 3.6.7l-.8 2.5c-.6-.3-1.6-.7-2.9-.7s-2 .6-2 1.3c0 .9.8 1.3 2.6 2 2.5.9 3.6 2.2 3.6 4.2 0 2.3-1.8 4.3-5.7 4.3-1.6 0-3.2-.4-4-.9l.7-2.5z"/><path id="XMLID_282_" class="st0" d="M31.8 20.6c-.6.3-1.9.6-3.6.6-4.8 0-7.3-3-7.3-7 0-4.8 3.4-7.4 7.7-7.4 1.6 0 2.9.3 3.5.6l-.6 2.5c-.6-.3-1.5-.5-2.7-.5-2.5 0-4.5 1.5-4.5 4.6 0 2.8 1.7 4.6 4.5 4.6 1 0 2-.2 2.6-.5l.4 2.5z"/><path id="XMLID_280_" class="st0" d="M36.7 7v8.1c0 2.4.9 3.6 2.5 3.6 1.7 0 2.6-1.2 2.6-3.6V7H45v7.9c0 4.3-2.2 6.4-5.8 6.4-3.5 0-5.6-2-5.6-6.4V7h3.1z"/><path id="XMLID_278_" class="st0" d="M55.4 15.1h-5.2v3.3H56V21h-9V7h8.7v2.6h-5.5v2.9h5.2v2.6z"/><path id="XMLID_276_" class="st0" d="M58 7h3.2v11.3H67V21h-9V7z"/><path id="XMLID_269_" class="st0" d="M72.5 17.4l-1 3.6h-3.3l4.3-14h4.2L81 21h-3.4l-1.1-3.6h-4zm3.6-2.4l-.9-3c-.2-.8-.5-1.9-.7-2.7-.2.8-.4 1.9-.6 2.7l-.9 3h3.1z"/><path class="st0" d="M85 0v28h15l16 12V0H85zm12.1 21h-3.2V7h3.2v14zm12.3-10.8h-3.6V21h-3.2V10.2H99V7h10.4v3.2z"/></svg>