<svg xmlns="http://www.w3.org/2000/svg" viewBox="0 0 80 80"><style>.st23{fill:none;stroke:#313131;stroke-width:3;stroke-linejoin:round;stroke-miterlimit:10}</style><g id="icons"><path class="st23" d="M47.7 14.8v6.8H34.6c-1.3 0-2.3 1-2.3 2.3v22.6h-6.7L13.8 58.4V14.8c0-1.2 1-2.3 2.3-2.3h29.4c1.2.1 2.2 1.1 2.2 2.3z"/><path class="st23" d="M66.2 23.9v43.5L54.3 55.5H34.6c-1.3 0-2.3-1-2.3-2.3V23.9c0-1.2 1-2.3 2.3-2.3H64c1.2 0 2.2 1 2.2 2.3z"/><path fill="#e74c3c" d="M56 51.5H36.3V25.7h26v32z"/></g></svg>