<svg xmlns="http://www.w3.org/2000/svg" height="512" viewBox="-96 -21 682 682.667" width="512"><path d="M70.074 170.668c0 5.89-4.781 10.664-10.668 10.664-5.894 0-10.668-4.773-10.668-10.664A10.664 10.664 0 0 1 59.406 160c5.887 0 10.668 4.773 10.668 10.668zm0 191.996c0 5.895-4.781 10.672-10.668 10.672-5.894 0-10.668-4.777-10.668-10.672 0-5.887 4.774-10.664 10.668-10.664 5.887 0 10.668 4.777 10.668 10.664zm0 202.668c0 5.895-4.781 10.668-10.668 10.668a10.664 10.664 0 0 1-10.668-10.668c0-5.887 4.774-10.664 10.668-10.664 5.887 0 10.668 4.777 10.668 10.664zM432.742 74.668c0 5.887-4.777 10.664-10.672 10.664-5.886 0-10.664-4.777-10.664-10.664 0-5.895 4.778-10.668 10.664-10.668 5.895 0 10.672 4.773 10.672 10.668zm0 191.996c0 5.895-4.777 10.672-10.672 10.672-5.886 0-10.664-4.777-10.664-10.672 0-5.887 4.778-10.664 10.664-10.664 5.895 0 10.672 4.777 10.672 10.664zm0 202.668c0 5.895-4.777 10.668-10.672 10.668-5.886 0-10.664-4.773-10.664-10.668 0-5.89 4.778-10.664 10.664-10.664 5.895 0 10.672 4.773 10.672 10.664zm0 0" fill="#e74c3c"/><path d="M358.074 277.336a11 11 0 0 0 .946-.191v.082c5.492 32.835 35.246 55.976 68.421 53.222 33.18-2.758 58.704-30.488 58.704-63.785 0-33.289-25.524-61.02-58.704-63.777-33.175-2.754-62.93 20.386-68.421 53.222v.082a11.25 11.25 0 0 0-.946-.191h-74.668v-74.668h21.332c5.895 0 10.668-4.773 10.668-10.664A10.664 10.664 0 0 0 304.738 160h-21.332V85.332h74.668c.317-.043.633-.113.946-.191v.086c5.492 32.835 35.246 55.976 68.421 53.218 33.18-2.75 58.704-30.484 58.704-63.777S460.62 13.641 427.44 10.891c-33.175-2.762-62.93 20.379-68.421 53.214v.09a7.962 7.962 0 0 0-.946-.195h-74.668V42.664C283.406 19.102 264.305 0 240.738 0c-23.562 0-42.664 19.102-42.664 42.664V64h-21.336c-5.89 0-10.668 4.773-10.668 10.668 0 5.887 4.778 10.664 10.668 10.664h21.336V160h-74.668a9.72 9.72 0 0 0-.949.191v-.082c-5.492-32.84-35.242-55.976-68.422-53.226-33.18 2.762-58.703 30.492-58.703 63.785s25.523 61.02 58.703 63.781c33.18 2.754 62.93-20.387 68.422-53.222v-.086c.313.078.629.144.95.191h74.667V352h-74.668c-.32.047-.636.11-.949.191v-.086c-5.492-32.832-35.242-55.976-68.422-53.218-33.18 2.754-58.703 30.488-58.703 63.777 0 33.293 25.523 61.027 58.703 63.781 33.18 2.758 62.93-20.383 68.422-53.218v-.086c.313.082.629.144.95.195h74.667v85.332h-21.336c-5.89 0-10.668 4.773-10.668 10.664 0 5.895 4.778 10.668 10.668 10.668h21.336v74.668h-74.668c-.32.043-.636.113-.949.191v-.086c-5.492-32.836-35.242-55.976-68.422-53.218-33.18 2.75-58.703 30.484-58.703 63.777s25.523 61.027 58.703 63.777c33.18 2.762 62.93-20.379 68.422-53.214v-.09c.313.086.629.148.95.195h74.667v21.336c0 23.562 19.102 42.664 42.664 42.664 23.567 0 42.668-19.102 42.668-42.664V576h21.332a10.664 10.664 0 0 0 10.668-10.668c0-5.887-4.773-10.664-10.668-10.664h-21.332V480h74.668a9.88 9.88 0 0 0 .946-.191v.082c5.492 32.84 35.246 55.976 68.421 53.226 33.18-2.762 58.704-30.492 58.704-63.785s-25.524-61.02-58.704-63.781c-33.175-2.754-62.93 20.387-68.421 53.222v.086a9.88 9.88 0 0 0-.946-.191h-74.668v-85.332h21.332c5.895 0 10.668-4.777 10.668-10.672 0-5.887-4.773-10.664-10.668-10.664h-21.332v-74.664zm63.996-42.668c17.676 0 32.004 14.324 32.004 31.996 0 17.676-14.328 32.004-32.004 32.004-17.668 0-31.996-14.328-31.996-32.004.051-17.648 14.348-31.941 31.996-31.996zm0-192.004c17.676 0 32.004 14.328 32.004 32.004 0 17.672-14.328 31.996-32.004 31.996-17.668 0-31.996-14.324-31.996-31.996.051-17.652 14.348-31.95 31.996-32.004zm-362.664 160c-17.672 0-32.004-14.324-32.004-31.996 0-17.676 14.332-32 32.004-32s32 14.324 32 32c-.05 17.652-14.347 31.945-32 31.996zm0 192.004c-17.672 0-32.004-14.324-32.004-32.004 0-17.668 14.332-31.996 32.004-31.996s32 14.328 32 31.996c-.05 17.652-14.347 31.95-32 32.004zm0 202.668c-17.672 0-32.004-14.328-32.004-32.004 0-17.672 14.332-31.996 32.004-31.996s32 14.324 32 31.996c-.05 17.652-14.347 31.95-32 32.004zm362.664-160c17.676 0 32.004 14.324 32.004 31.996 0 17.676-14.328 32-32.004 32-17.668 0-31.996-14.324-31.996-32 .051-17.652 14.348-31.945 31.996-31.996zm0 0" fill="#e74c3c"/></svg>