<svg xmlns="http://www.w3.org/2000/svg" viewBox="0 0 80 80"><style>.st20{fill:#fff}</style><g id="icons"><path d="M57 69H23c-6.6 0-12-5.4-12-12V23c0-6.6 5.4-12 12-12h34c6.6 0 12 5.4 12 12v34c0 6.6-5.4 12-12 12z" fill="none" stroke="#313131" stroke-width="3" stroke-miterlimit="10"/><path d="M23 65c-4.4 0-8-3.6-8-8V23c0-4.4 3.6-8 8-8h34c4.4 0 8 3.6 8 8v34c0 4.4-3.6 8-8 8H23z" fill="#e74c3c"/><circle class="st20" cx="27.2" cy="55.1" r="2.6"/><circle class="st20" cx="38.1" cy="55.1" r="2.6"/><path class="st20" d="M59.6 22.4h-4l-8 35.2h4z"/></g></svg>