<svg version="1.1" id="Capa_1" xmlns="http://www.w3.org/2000/svg" x="0" y="0" viewBox="0 0 176.9 140" xml:space="preserve"><style>.st1{fill:#e74c3c}.st2{fill:#f7f8f8}.st3{fill:none;stroke:#313131;stroke-width:4;stroke-miterlimit:10}.st5{fill:#fff}.st6{fill:#313131}</style><path fill="#434040" d="M2 113.7h172.9v12.5H2z"/><path class="st1" d="M2 20.4h172.9v93.3H2z"/><path class="st2" d="M174.9 9.4v11.4H2V9.4C2 5.3 5.3 2 9.4 2h158.2c4 0 7.3 3.3 7.3 7.4z"/><path class="st3" d="M2 20.7V9.4C2 5.3 5.3 2 9.4 2h158.2c4.1 0 7.4 3.3 7.4 7.4v11.4"/><path class="st2" d="M2 130.6v-4.1h172.9v4.1c0 4.1-3.3 7.4-7.4 7.4H9.4c-4.1 0-7.4-3.3-7.4-7.4z"/><path class="st3" d="M174.9 126.5v4.1c0 4.1-3.3 7.4-7.4 7.4H9.4c-4.1 0-7.4-3.3-7.4-7.4v-4.1m0-12.8h172.9"/><path fill="none" stroke="#313131" stroke-width="4" stroke-linejoin="round" stroke-miterlimit="10" d="M174.9 113.7v12.4H2V20.4h172.9z"/><path class="st5" d="M88.5 86.8c-10.8 0-19.6-8.8-19.6-19.6s8.8-19.6 19.6-19.6 19.6 8.8 19.6 19.6-8.8 19.6-19.6 19.6zm0-37c-9.6 0-17.4 7.8-17.4 17.4s7.8 17.4 17.4 17.4c9.6 0 17.4-7.8 17.4-17.4S98 49.8 88.5 49.8z"/><path class="st5" d="M98.6 67.2l-15 8.8V58.4z"/><circle class="st6" cx="11.6" cy="11.4" r="1.9"/><circle class="st6" cx="17.2" cy="11.4" r="1.9"/><circle class="st6" cx="22.8" cy="11.4" r="1.9"/><path fill="none" stroke="#313131" stroke-width="2" stroke-miterlimit="10" d="M10.1 119.9H167"/><path fill="none" stroke="#fff" stroke-width="2" stroke-linecap="round" stroke-miterlimit="10" d="M10.1 119.9h94.8"/><circle class="st5" cx="104.9" cy="119.9" r="2.7"/><circle class="st1" cx="104.9" cy="119.9" r="1.1"/></svg>