<svg version="1.1" id="Capa_1" xmlns="http://www.w3.org/2000/svg" x="0" y="0" viewBox="0 0 166.2 136.9" xml:space="preserve"><style>.st3{fill:none;stroke:#313131;stroke-width:4;stroke-miterlimit:10}</style><path d="M94 117.4c0 9.7 7.9 17.6 17.6 17.6h-92C9.9 135 2 127.1 2 117.4h92z" fill="#fff"/><path d="M146.6 2c9.7 0 17.6 7.9 17.6 17.6h-35.1c0-9.7 7.8-17.6 17.5-17.6z" fill="#d8dade"/><path d="M111.5 134.9c-9.7 0-17.6-7.9-17.6-17.6H37.1V19.6C37.1 9.9 45 2 54.7 2h92c-9.7 0-17.6 7.9-17.6 17.6v97.8c0 9.7-7.9 17.5-17.6 17.5z" fill="#f7f8f8"/><path class="st3" d="M111.5 134.9h-92c-9.7 0-17.6-7.9-17.6-17.6H37"/><path class="st3" d="M129.1 19.6v97.8c0 9.7-7.9 17.6-17.6 17.6S94 127.1 94 117.4H37.1V19.6C37.1 9.9 45 2 54.7 2h92"/><path class="st3" d="M146.6 2c9.7 0 17.6 7.9 17.6 17.6h-35.1c0-9.7 7.8-17.6 17.5-17.6z"/><path d="M50.5 28.6h36.6m-36.6 8.8h21.8M50.5 55h55.1m-55.1 8.7H110m-59.5 8.8h50m-50 8.8H108m-57.5 8.8h62.4m-62.4 17.5h16.3" stroke="#c3c5ca" stroke-linecap="round" fill="none" stroke-width="4" stroke-miterlimit="10"/><path d="M148.7 40.2c0 6.2-2.7 11.8-7 15.7-1.9 1.6-4 3-6.3 3.9-2.3.9-4.9 1.4-7.6 1.4-5.3 0-10.2-2-13.9-5.3-2.2-1.9-3.9-4.3-5.1-6.9-1.2-2.7-1.9-5.6-1.9-8.7 0-11.6 9.4-20.9 20.9-20.9s20.9 9.2 20.9 20.8z" fill="#f6b63e"/><path d="M141.7 55.8v34.8l-13.9-12.2-13.9 12.2V55.8c3.7 3.3 8.6 5.3 13.9 5.3 5.3 0 10.2-2 13.9-5.3z" fill="#e74c3c"/><path class="st3" d="M141.7 55.8c-3.7 3.3-8.6 5.3-13.9 5.3-5.3 0-10.2-2-13.9-5.3m0 0c-4.3-3.8-7-9.4-7-15.7 0-11.6 9.4-20.9 20.9-20.9 11.6 0 20.9 9.4 20.9 20.9 0 6.2-2.7 11.8-7 15.7"/><path class="st3" d="M141.7 55.8v34.9l-13.9-12.2-13.9 12.2V55.8"/><path fill="#a17728" d="M127.8 28.6l3.4 7 7.7 1.1-5.6 5.4 1.3 7.6-6.8-3.6-6.9 3.6 1.3-7.6-5.5-5.4 7.6-1.1z"/></svg>