<svg xmlns="http://www.w3.org/2000/svg" viewBox="0 0 256 209"><path d="M256 25.4c-9.4 4.2-19.5 7-30.2 8.3 10.8-6.5 19.2-16.8 23.1-29.1-10.3 6.1-21.6 10.4-33.4 12.7C206 7.2 192.3.8 177.2.8c-29 0-52.5 23.5-52.5 52.5 0 4.1.5 8.1 1.4 12-43.7-2.2-82.4-23.1-108.3-54.9-4.5 7.8-7.1 16.8-7.1 26.4 0 18.2 9.3 34.3 23.4 43.7-8.4-.2-16.5-2.5-23.8-6.5v.7c0 25.4 18.1 46.7 42.1 51.5-7.7 2.1-15.8 2.4-23.7.9 6.7 20.9 26.1 36 49.1 36.5-18 14.1-40.6 22.5-65.2 22.5-4.2 0-8.4-.2-12.5-.7C23.3 200.3 50.9 209 80.6 209 177.2 209 230 129 230 59.6c0-2.3-.1-4.5-.2-6.8 10.3-7.6 19.1-16.8 26.2-27.4" fill="#fff"/></svg>