<svg xmlns="http://www.w3.org/2000/svg"><defs><font id="modules" horiz-adv-x="1024"><font-face units-per-em="1024" ascent="960" descent="-64"/><glyph horiz-adv-x="512"/><glyph unicode="!" glyph-name="arrow_up" data-tags="arrow_up" d="M544 64c17.664 0 32 14.336 32 32v626.752l137.344-137.344c12.48-12.48 32.768-12.48 45.248 0s12.48 32.768 0 45.248l-192 192c-2.944 2.944-6.464 5.248-10.368 6.848a31.744 31.744 0 0 1-24.448 0c-3.84-1.536-7.232-3.84-10.176-6.72-.064-.064-.128-.064-.256-.128l-192-192c-12.48-12.48-12.48-32.768 0-45.248s32.768-12.48 45.248 0L512 722.752V96c0-17.664 14.336-32 32-32z"/><glyph unicode="&quot;" glyph-name="arrow_down" data-tags="arrow_down" d="M544 832c-17.664 0-32-14.336-32-32V173.248L374.656 310.592c-12.48 12.48-32.768 12.48-45.248 0s-12.48-32.768 0-45.248l192-192c.064-.064.192-.064.256-.192 2.88-2.816 6.336-5.184 10.112-6.72a31.744 31.744 0 0 1 24.448 0 31.662 31.662 0 0 1 10.368 6.912l192 192c12.48 12.48 12.48 32.768 0 45.248s-32.768 12.48-45.248 0L576 173.248V800c0 17.664-14.336 32-32 32z"/><glyph unicode="#" glyph-name="arrow_left" data-tags="arrow_left" d="M128 479.872c0-4.096.896-8.192 2.496-12.096 1.536-3.776 3.84-7.168 6.656-10.048l.192-.384 192-192c12.48-12.48 32.768-12.48 45.248 0s12.48 32.768 0 45.248L237.248 448H864c17.664 0 32 14.336 32 32s-14.336 32-32 32H237.248l137.344 137.344c12.48 12.48 12.48 32.768 0 45.248s-32.768 12.48-45.248 0l-192-192c-.064-.064-.128-.256-.192-.32-2.816-2.88-5.12-6.272-6.656-10.048A31.17 31.17 0 0 1 128 480v-.128z"/><glyph unicode="$" glyph-name="arrow_right" data-tags="arrow_right" d="M128 480c0-17.664 14.336-32 32-32h626.752L649.408 310.656c-12.48-12.48-12.48-32.768 0-45.248s32.768-12.48 45.248 0l192 192a31.662 31.662 0 0 1 6.912 10.368c1.536 3.904 2.432 8 2.432 12.096V480c0 4.16-.832 8.32-2.496 12.224a31.662 31.662 0 0 1-6.912 10.368l-192 192c-12.48 12.48-32.768 12.48-45.248 0s-12.48-32.768 0-45.248L786.752 512H160c-17.664 0-32-14.336-32-32z"/><glyph unicode="%" glyph-name="arrow_left-up" data-tags="arrow_left-up" d="M128 480c0-17.664 14.336-32 32-32s32 14.336 32 32v242.752L841.344 73.408c12.48-12.48 32.768-12.48 45.248 0s12.48 32.768 0 45.248L237.248 768H480c17.664 0 32 14.336 32 32s-14.336 32-32 32H160c-4.16 0-8.32-.832-12.224-2.496-3.84-1.536-7.232-3.84-10.176-6.72-.064-.064-.128-.064-.256-.128-.064-.128-.128-.32-.192-.384-2.816-2.88-5.12-6.272-6.656-10.048A31.17 31.17 0 0 1 128 800V480z"/><glyph unicode="&amp;" glyph-name="arrow_right-up" data-tags="arrow_right-up" d="M137.344 73.344c12.48-12.48 32.768-12.48 45.248 0L832 722.752V480c0-17.664 14.336-32 32-32s32 14.336 32 32v320c0 4.16-.832 8.32-2.496 12.224-3.264 7.808-9.472 14.08-17.28 17.28A31.17 31.17 0 0 1 864 832H544c-17.664 0-32-14.336-32-32s14.336-32 32-32h242.752L137.344 118.656c-12.48-12.544-12.48-32.768 0-45.312z"/><glyph unicode="'" glyph-name="arrow_right-down" data-tags="arrow_right-down" d="M864 448c-17.664 0-32-14.336-32-32V173.248L182.656 822.656c-12.48 12.48-32.768 12.48-45.248 0s-12.48-32.768 0-45.248L786.752 128H544c-17.664 0-32-14.336-32-32s14.336-32 32-32h320c4.16 0 8.32.832 12.224 2.496 7.808 3.264 14.08 9.472 17.28 17.28 1.6 3.904 2.496 8 2.496 12.096V416c0 17.664-14.336 32-32 32z"/><glyph unicode="(" glyph-name="arrow_left-down" data-tags="arrow_left-down" d="M160 448c-17.664 0-32-14.336-32-32V95.872c0-4.16.832-8.256 2.432-12.096 1.536-3.776 3.84-7.168 6.656-10.048.128-.128.128-.256.256-.384.064-.064.192-.064.256-.192 2.88-2.816 6.336-5.184 10.112-6.72C151.68 64.832 155.84 64 160 64h320c17.664 0 32 14.336 32 32s-14.336 32-32 32H237.248l649.408 649.344c12.48 12.48 12.48 32.768 0 45.248s-32.768 12.48-45.248 0L192 173.248V416c0 17.664-14.336 32-32 32z"/><glyph unicode=")" glyph-name="arrow-up-down" data-tags="arrow-up-down" d="M649.344 777.344c12.48-12.48 32.768-12.48 45.248 0s12.48 32.768 0 45.248l-128 128c-2.944 3.008-6.464 5.312-10.368 6.912a31.744 31.744 0 0 1-24.448 0c-3.84-1.536-7.232-3.84-10.176-6.72-.064-.064-.128-.064-.256-.128l-128-128c-12.48-12.48-12.48-32.768 0-45.248s32.768-12.48 45.248 0L512 850.752V45.248l-73.344 73.344c-12.48 12.48-32.768 12.48-45.248 0s-12.48-32.768 0-45.248l128-128c.064-.064.192-.064.256-.192 2.88-2.816 6.336-5.184 10.112-6.72a31.744 31.744 0 0 1 24.448 0 31.662 31.662 0 0 1 10.368 6.912l128 128c12.48 12.48 12.48 32.768 0 45.248s-32.768 12.48-45.248 0L576 45.248v805.504l73.344-73.408z"/><glyph unicode="*" glyph-name="arrow_up-down_alt" data-tags="arrow_up-down_alt" d="M584.96-54.976c6.272-6.272 14.528-9.408 22.72-9.344 8.256 0 16.448 3.072 22.72 9.344L753.664 68.288c12.48 12.48 12.48 32.768 0 45.248s-32.768 12.48-45.248 0L640 45.12v562.56c0 17.664-14.336 32-32 32s-32-14.336-32-32V44.48l-73.728 73.728c-12.48 12.48-32.768 12.48-45.248 0s-12.48-32.768 0-45.248L584.96-54.976zM416 255.68c17.664 0 32 14.336 32 32v563.2l73.728-73.728c12.48-12.48 32.768-12.48 45.248 0s12.48 32.768 0 45.248L439.04 950.336c-6.272 6.272-14.464 9.344-22.72 9.344s-16.448-3.072-22.72-9.344L270.336 827.072c-12.48-12.48-12.48-32.768 0-45.248s32.768-12.48 45.248 0L384 850.24V287.68c0-17.664 14.336-32 32-32z"/><glyph unicode="+" glyph-name="arrow_left-right_alt" data-tags="arrow_left-right_alt" d="M177.856 206.016c12.48 12.48 12.48 32.768 0 45.248L109.12 320H672c17.664 0 32 14.336 32 32s-14.336 32-32 32H109.12l73.408 73.408c12.48 12.48 12.48 32.768 0 45.248s-32.768 12.48-45.248 0L9.344 374.72C3.072 368.448 0 360.256 0 352s3.072-16.448 9.344-22.72l123.264-123.264c12.544-12.544 32.768-12.544 45.248 0zm836.8 360.064L891.392 689.344c-12.48 12.48-32.768 12.48-45.248 0s-12.48-32.768 0-45.248l68.736-68.736H352c-17.664 0-32-14.336-32-32s14.336-32 32-32h562.88l-73.408-73.408c-12.48-12.48-12.48-32.768 0-45.248s32.768-12.48 45.248 0l127.936 127.936c6.272 6.272 9.344 14.464 9.344 22.72s-3.072 16.448-9.344 22.72z"/><glyph unicode="," glyph-name="arrow_left-right" data-tags="arrow_left-right" d="M1021.504 492.224a31.662 31.662 0 0 1-6.912 10.368l-128 128c-12.48 12.48-32.768 12.48-45.248 0s-12.48-32.768 0-45.248L914.752 512H109.248l73.344 73.344c12.48 12.48 12.48 32.768 0 45.248s-32.768 12.48-45.248 0l-128-128c-.064-.064-.128-.256-.192-.32-2.816-2.88-5.12-6.272-6.656-10.048A31.17 31.17 0 0 1 0 480v-.128c0-4.096.896-8.192 2.496-12.096 1.536-3.776 3.84-7.168 6.656-10.048l.192-.384 128-128c12.48-12.48 32.768-12.48 45.248 0s12.48 32.768 0 45.248L109.248 448h805.504l-73.344-73.344c-12.48-12.48-12.48-32.768 0-45.248s32.768-12.48 45.248 0l128 128a31.662 31.662 0 0 1 6.912 10.368c1.536 3.904 2.432 8 2.432 12.096V480c0 4.16-.832 8.32-2.496 12.224z"/><glyph unicode="-" glyph-name="arrow_expand_alt2" data-tags="arrow_expand_alt2" d="M128 480c0-17.664 14.336-32 32-32s32 14.336 32 32v242.752L786.752 128H544c-17.664 0-32-14.336-32-32s14.336-32 32-32h320c4.16 0 8.32.832 12.224 2.496 7.808 3.264 14.08 9.472 17.28 17.28 1.6 3.904 2.496 8 2.496 12.096V416c0 17.664-14.336 32-32 32s-32-14.336-32-32V173.248L237.248 768H480c17.664 0 32 14.336 32 32s-14.336 32-32 32H160c-4.16 0-8.32-.832-12.224-2.496-3.84-1.536-7.232-3.84-10.176-6.72-.064-.064-.128-.064-.256-.128-.064-.128-.128-.32-.192-.384-2.816-2.88-5.12-6.272-6.656-10.048A31.17 31.17 0 0 1 128 800V480z"/><glyph unicode="." glyph-name="arrow_expand_alt" data-tags="arrow_expand_alt" d="M160 448c-17.664 0-32-14.336-32-32V95.872c0-4.16.832-8.256 2.432-12.096 1.536-3.776 3.84-7.168 6.656-10.048.128-.128.128-.256.256-.384.064-.064.192-.064.256-.192 2.88-2.816 6.336-5.184 10.112-6.72C151.68 64.832 155.84 64 160 64h320c17.664 0 32 14.336 32 32s-14.336 32-32 32H237.248L832 722.752V480c0-17.664 14.336-32 32-32s32 14.336 32 32v320c0 4.16-.832 8.32-2.496 12.224-3.264 7.808-9.472 14.08-17.28 17.28A31.17 31.17 0 0 1 864 832H544c-17.664 0-32-14.336-32-32s14.336-32 32-32h242.752L192 173.248V416c0 17.664-14.336 32-32 32z"/><glyph unicode="/" glyph-name="arrow_condense" data-tags="arrow_condense" d="M950.656 886.656c-12.48 12.48-32.768 12.48-45.248 0L640 621.248V800c0 17.664-14.336 32-32 32s-32-14.336-32-32V543.872c0-4.096.896-8.192 2.496-12.096 1.536-3.776 3.84-7.168 6.656-10.048l.192-.384c.128-.064.192-.064.256-.128 2.88-2.816 6.336-5.184 10.112-6.72A31.713 31.713 0 0 1 608 512h256c17.664 0 32 14.336 32 32s-14.336 32-32 32H685.248l265.344 265.344c12.544 12.544 12.544 32.768.064 45.312zM73.344 9.344c12.48-12.48 32.768-12.48 45.248 0L384 274.752V96c0-17.664 14.336-32 32-32s32 14.336 32 32v256c0 4.16-.832 8.32-2.496 12.224-3.264 7.808-9.472 14.08-17.28 17.28A31.17 31.17 0 0 1 416 384H160c-17.664 0-32-14.336-32-32s14.336-32 32-32h178.752L73.408 54.656c-12.544-12.544-12.544-32.768-.064-45.312z"/><glyph unicode="0" glyph-name="arrow_expand" data-tags="arrow_expand" d="M957.504 876.224c-3.264 7.808-9.472 14.08-17.28 17.28A31.17 31.17 0 0 1 928 896H672c-17.664 0-32-14.336-32-32s14.336-32 32-32h178.752L585.344 566.656c-12.48-12.48-12.48-32.768 0-45.248s32.768-12.48 45.248 0L896 786.752V608c0-17.664 14.336-32 32-32s32 14.336 32 32v256c0 4.16-.832 8.32-2.496 12.224zM96 320c-17.664 0-32-14.336-32-32V31.872c0-4.16.832-8.256 2.432-12.096 1.536-3.776 3.84-7.168 6.656-10.048.128-.128.128-.256.256-.384.064-.064.192-.064.256-.192 2.88-2.816 6.336-5.184 10.112-6.72C87.68.832 91.84 0 96 0h256c17.664 0 32 14.336 32 32s-14.336 32-32 32H173.248l265.344 265.344c12.48 12.48 12.48 32.768 0 45.248s-32.768 12.48-45.248 0L128 109.248V288c0 17.664-14.336 32-32 32z"/><glyph unicode="1" glyph-name="arrow_move" data-tags="arrow_move" d="M1021.504 428.224a31.662 31.662 0 0 1-6.912 10.368l-128 128c-12.48 12.48-32.768 12.48-45.248 0s-12.48-32.768 0-45.248L914.752 448H576v338.752l73.344-73.344c12.48-12.48 32.768-12.48 45.248 0s12.48 32.768 0 45.248l-128 128c-.064.064-.256.128-.32.192-2.88 2.816-6.272 5.12-10.048 6.656A31.17 31.17 0 0 1 544 896h-.128c-4.096 0-8.192-.896-12.096-2.496-3.776-1.536-7.168-3.84-10.048-6.656l-.384-.192-128-128c-12.48-12.48-12.48-32.768 0-45.248s32.768-12.48 45.248 0L512 786.752V448H173.248l73.344 73.344c12.48 12.48 12.48 32.768 0 45.248s-32.768 12.48-45.248 0l-128-128c-.064-.064-.128-.256-.192-.32-2.816-2.88-5.12-6.272-6.656-10.048A31.17 31.17 0 0 1 64 416v-.128c0-4.096.896-8.192 2.496-12.096 1.536-3.776 3.84-7.168 6.656-10.048l.192-.384 128-128c12.48-12.48 32.768-12.48 45.248 0s12.48 32.768 0 45.248L173.248 384H512V45.248l-73.344 73.344c-12.48 12.48-32.768 12.48-45.248 0s-12.48-32.768 0-45.248l128-128a31.662 31.662 0 0 1 10.368-6.912c3.904-1.536 8-2.432 12.096-2.432H544c4.16 0 8.32.832 12.224 2.496a31.662 31.662 0 0 1 10.368 6.912l128 128c12.48 12.48 12.48 32.768 0 45.248s-32.768 12.48-45.248 0L576 45.248V384h338.752l-73.344-73.344c-12.48-12.48-12.48-32.768 0-45.248s32.768-12.48 45.248 0l128 128a31.662 31.662 0 0 1 6.912 10.368c1.536 3.904 2.432 8 2.432 12.096V416c0 4.16-.832 8.32-2.496 12.224z"/><glyph unicode="2" glyph-name="arrow_carrot-up" data-tags="arrow_carrot-up" d="M358.976 313.6L544 498.624 729.024 313.6c12.48-12.48 32.768-12.48 45.248 0s12.48 32.768 0 45.248L566.72 566.4c-6.272 6.272-14.464 9.344-22.72 9.344s-16.448-3.072-22.72-9.344L313.728 358.848c-12.48-12.48-12.48-32.768 0-45.248s32.768-12.48 45.248 0z"/><glyph unicode="3" glyph-name="arrow_carrot-down" data-tags="arrow_carrot-down" d="M729.024 518.4L544 333.376 358.976 518.4c-12.48 12.48-32.768 12.48-45.248 0s-12.48-32.768 0-45.248L521.28 265.6c6.272-6.272 14.528-9.408 22.72-9.344 8.256 0 16.448 3.072 22.72 9.344l207.552 207.552c12.48 12.48 12.48 32.768 0 45.248s-32.768 12.48-45.248 0z"/><glyph unicode="4" glyph-name="arrow_carrot-left" data-tags="arrow_carrot-left" d="M393.6 393.28l207.552-207.552c12.48-12.48 32.768-12.48 45.248 0s12.48 32.768 0 45.248L461.376 416 646.4 601.024c12.48 12.48 12.48 32.768 0 45.248s-32.768 12.48-45.248 0L393.6 438.72c-6.272-6.272-9.344-14.464-9.344-22.72s3.072-16.448 9.344-22.72z"/><glyph unicode="5" glyph-name="arrow_carrot-right" data-tags="arrow_carrot-right" d="M441.6 185.728c12.48-12.48 32.768-12.48 45.248 0L694.4 393.28c6.272 6.272 9.408 14.528 9.344 22.72 0 8.256-3.072 16.448-9.344 22.72L486.848 646.272c-12.48 12.48-32.768 12.48-45.248 0s-12.48-32.768 0-45.248L626.624 416 441.6 230.976c-12.48-12.48-12.48-32.768 0-45.248z"/><glyph unicode="6" glyph-name="arrow_carrot-2up" data-tags="arrow_carrot-2up" d="M750.464 505.216l-214.08 189.376c-6.4 6.4-14.784 9.472-23.168 9.344-8.448.128-16.832-2.944-23.232-9.344l-214.08-189.376c-12.544-12.544-12.544-32.96 0-45.504s32.96-12.544 45.504 0l191.744 169.664 191.744-169.664c12.544-12.544 32.96-12.544 45.504 0 12.672 12.544 12.672 32.896.064 45.504zm-214.08-40.128c-6.4 6.4-14.784 9.472-23.168 9.344-8.448.128-16.832-2.944-23.232-9.344l-214.08-189.376c-12.544-12.544-12.544-32.96 0-45.504s32.96-12.544 45.504 0l191.744 169.6 191.744-169.6c12.544-12.544 32.96-12.544 45.504 0s12.544 32.96 0 45.504L536.384 465.088z"/><glyph unicode="7" glyph-name="arrow_carrot-2down" data-tags="arrow_carrot-2down" d="M702.592 436.352l-191.744-169.6-191.744 169.6c-12.544 12.544-32.96 12.544-45.504 0s-12.544-32.96 0-45.504l214.08-189.376c6.4-6.4 14.784-9.472 23.168-9.344 8.384-.128 16.768 2.88 23.168 9.28l214.08 189.376c12.544 12.544 12.544 32.96 0 45.504s-32.96 12.608-45.504.064zm45.504 229.504c-12.544 12.544-32.96 12.544-45.504 0l-191.744-169.6-191.744 169.6c-12.608 12.544-33.024 12.544-45.568 0s-12.544-32.96 0-45.504l214.08-189.376c6.4-6.4 14.784-9.472 23.168-9.344 8.384-.128 16.832 2.944 23.168 9.344l214.08 189.376c12.672 12.544 12.672 32.896.064 45.504z"/><glyph unicode="8" glyph-name="arrow_carrot-2left" data-tags="arrow_carrot-2left" d="M265.408 425.984l189.376-214.08c12.544-12.544 32.96-12.544 45.504 0s12.544 32.96 0 45.504l-169.6 191.744 169.6 191.744c12.544 12.544 12.544 32.96 0 45.504s-32.96 12.544-45.504 0L265.408 472.384c-6.4-6.4-9.408-14.784-9.344-23.168-.064-8.384 2.944-16.832 9.344-23.232zm464.448 260.48c-12.544 12.544-32.96 12.544-45.504 0l-189.44-214.08c-6.4-6.4-9.472-14.784-9.344-23.168-.064-8.384 2.944-16.832 9.344-23.232l189.376-214.08c12.544-12.544 32.96-12.544 45.504 0s12.544 32.96 0 45.504l-169.6 191.744 169.6 191.744c12.608 12.608 12.608 33.024.064 45.568z"/><glyph unicode="9" glyph-name="arrow_carrot-2right" data-tags="arrow_carrot-2right" d="M758.592 470.016l-189.376 214.08c-12.544 12.544-32.96 12.544-45.504 0s-12.544-32.96 0-45.504l169.6-191.744-169.6-191.744c-12.544-12.544-12.544-32.96 0-45.504s32.96-12.544 45.504 0l189.376 214.08c6.4 6.4 9.472 14.784 9.344 23.168.064 8.384-2.944 16.768-9.344 23.168zm-464.448-260.48c12.544-12.544 32.96-12.544 45.504 0l189.376 214.08c6.4 6.4 9.472 14.784 9.344 23.168.128 8.384-2.944 16.832-9.344 23.168L339.712 684.096c-12.544 12.544-32.96 12.544-45.504 0s-12.544-32.96 0-45.504l169.6-191.744-169.6-191.744c-12.608-12.608-12.608-33.024-.064-45.568z"/><glyph unicode=":" glyph-name="arrow_carrot-up_alt2" data-tags="arrow_carrot-up_alt2" d="M568.72 564.4c-6.272 6.272-14.464 9.344-22.72 9.344s-16.448-3.072-22.72-9.344L315.728 356.848c-12.48-12.48-12.48-32.768 0-45.248s32.768-12.48 45.248 0L546 496.624 731.024 311.6c12.48-12.48 32.768-12.48 45.248 0s12.48 32.768 0 45.248L568.72 564.4zm-20.608 325.312c-263.936 0-477.888-213.952-477.888-477.888S284.24-66 548.112-66 1026 147.952 1026 411.888 812.048 889.712 548.112 889.712zm0-891.712C319.888-2 134.224 183.664 134.224 411.888s185.664 413.888 413.888 413.888S962 640.048 962 411.888 776.336-2 548.112-2z"/><glyph unicode=";" glyph-name="arrow_carrot-down_alt2" data-tags="arrow_carrot-down_alt2" d="M729.024 518.4L544 333.376 358.976 518.4c-12.48 12.48-32.768 12.48-45.248 0s-12.48-32.768 0-45.248L521.28 265.6c6.272-6.272 14.528-9.408 22.72-9.344 8.256 0 16.448 3.072 22.72 9.344l207.552 207.552c12.48 12.48 12.48 32.768 0 45.248s-32.768 12.48-45.248 0zm-182.72 373.056c-263.808 0-477.696-213.888-477.696-477.696C68.544 149.888 282.432-64 546.304-64 810.112-64 1024 149.888 1024 413.696c0 263.872-213.888 477.76-477.696 477.76zm0-891.456C318.208 0 132.608 185.6 132.608 413.696s185.6 413.696 413.696 413.696C774.4 827.456 960 641.856 960 413.696 960 185.6 774.4 0 546.304 0z"/><glyph unicode="&lt;" glyph-name="arrow_carrot-left_alt2" data-tags="arrow_carrot-left_alt2" d="M646.4 646.272c-12.48 12.48-32.768 12.48-45.248 0L393.6 438.72c-6.272-6.272-9.344-14.464-9.344-22.72s3.072-16.448 9.344-22.72l207.552-207.552c12.48-12.48 32.768-12.48 45.248 0s12.48 32.768 0 45.248L461.376 416 646.4 601.024c12.48 12.48 12.48 32.768 0 45.248zM544 896C278.912 896 64 681.088 64 416S278.912-64 544-64s480 214.912 480 480-214.912 480-480 480zm0-896C314.624 0 128 186.624 128 416s186.624 416 416 416 416-186.624 416-416S773.376 0 544 0z"/><glyph unicode="=" glyph-name="arrow_carrot-right_alt2" data-tags="arrow_carrot-right_alt2" d="M694.4 438.72L486.848 646.272c-12.48 12.48-32.768 12.48-45.248 0s-12.48-32.768 0-45.248L626.624 416 441.6 230.976c-12.48-12.48-12.48-32.768 0-45.248s32.768-12.48 45.248 0L694.4 393.28c6.272 6.272 9.408 14.528 9.344 22.72 0 8.256-3.072 16.448-9.344 22.72zM546.304 891.392c-263.808 0-477.696-213.888-477.696-477.696S282.496-64 546.304-64 1024 149.888 1024 413.696 810.112 891.392 546.304 891.392zm0-891.392C318.208 0 132.608 185.6 132.608 413.696s185.6 413.696 413.696 413.696S960 641.792 960 413.696 774.4 0 546.304 0z"/><glyph unicode="&gt;" glyph-name="arrow_carrot-2up_alt2" data-tags="arrow_carrot-2up_alt2" d="M568.384 662.592c-6.4 6.4-14.784 9.472-23.168 9.344-8.448.128-16.832-2.944-23.232-9.344l-214.08-189.376c-12.544-12.544-12.544-32.96 0-45.504s32.96-12.544 45.504 0l191.744 169.664 191.744-169.664c12.544-12.544 32.96-12.544 45.504 0s12.544 32.96 0 45.504L568.384 662.592zm0-229.504c-6.4 6.4-14.784 9.472-23.168 9.344-8.448.128-16.832-2.944-23.232-9.344l-214.08-189.376c-12.544-12.544-12.544-32.96 0-45.504s32.96-12.544 45.504 0l191.744 169.6 191.744-169.6c12.544-12.544 32.96-12.544 45.504 0s12.544 32.96 0 45.504L568.384 433.088zm-22.08 458.304c-263.808 0-477.696-213.888-477.696-477.696S282.496-64 546.304-64 1024 149.888 1024 413.696 810.112 891.392 546.304 891.392zm0-891.392C318.208 0 132.608 185.6 132.608 413.696s185.6 413.696 413.696 413.696S960 641.792 960 413.696 774.4 0 546.304 0z"/><glyph unicode="?" glyph-name="arrow_carrot-2down_alt2" data-tags="arrow_carrot-2down_alt2" d="M734.592 404.352l-191.744-169.6-191.744 169.6c-12.544 12.544-32.96 12.544-45.504 0s-12.544-32.96 0-45.504l214.08-189.376c6.4-6.4 14.784-9.472 23.168-9.344 8.384-.128 16.832 2.944 23.168 9.344l214.08 189.376c12.544 12.544 12.544 32.96 0 45.504s-32.96 12.544-45.504 0zm0 229.504l-191.744-169.6-191.744 169.6c-12.608 12.544-33.024 12.544-45.568 0s-12.544-32.96 0-45.504l214.08-189.376c6.4-6.4 14.784-9.472 23.168-9.344 8.384-.128 16.832 2.944 23.168 9.344l214.08 189.376c12.544 12.544 12.544 32.96 0 45.504s-32.896 12.544-45.44 0zM546.304 891.392c-263.808 0-477.696-213.888-477.696-477.696S282.496-64 546.304-64 1024 149.888 1024 413.696 810.112 891.392 546.304 891.392zm0-891.392C318.208 0 132.608 185.6 132.608 413.696s185.6 413.696 413.696 413.696S960 641.792 960 413.696 774.4 0 546.304 0z"/><glyph unicode="@" glyph-name="arrow_carrot-2left_alt2" data-tags="arrow_carrot-2left_alt2" d="M362.688 417.216l169.6 191.744c12.544 12.544 12.544 32.96 0 45.504s-32.96 12.544-45.504 0l-189.376-214.08c-6.4-6.4-9.472-14.784-9.344-23.168-.064-8.384 2.944-16.832 9.344-23.232l189.376-214.08c12.544-12.544 32.96-12.544 45.504 0s12.544 32.96 0 45.504l-169.6 191.808zm399.168 237.248c-12.544 12.544-32.96 12.544-45.504 0l-189.44-214.08c-6.4-6.4-9.472-14.784-9.344-23.168-.064-8.384 2.944-16.832 9.344-23.232l189.376-214.08c12.544-12.544 32.96-12.544 45.504 0s12.544 32.96 0 45.504l-169.6 191.744 169.6 191.744c12.608 12.608 12.608 33.024.064 45.568zM544 896C278.912 896 64 681.088 64 416S278.912-64 544-64s480 214.912 480 480-214.912 480-480 480zm0-896C314.624 0 128 186.624 128 416s186.624 416 416 416 416-186.624 416-416S773.376 0 544 0z"/><glyph unicode="A" glyph-name="arrow_carrot-2right_alt2" data-tags="arrow_carrot-2right_alt2" d="M790.592 438.016l-189.376 214.08c-12.544 12.544-32.96 12.544-45.504 0s-12.544-32.96 0-45.504l169.6-191.744-169.6-191.744c-12.544-12.544-12.544-32.96 0-45.504s32.96-12.544 45.504 0l189.376 214.08c6.4 6.4 9.472 14.784 9.344 23.168.064 8.384-2.944 16.768-9.344 23.168zm-220.16-23.168c.128 8.384-2.944 16.832-9.344 23.168l-189.376 214.08c-12.544 12.544-32.96 12.544-45.504 0s-12.544-32.96 0-45.504l169.6-191.744-169.6-191.744c-12.544-12.544-12.544-32.96 0-45.504s32.96-12.544 45.504 0l189.376 214.08c6.4 6.336 9.472 14.72 9.344 23.168zM544 896C278.912 896 64 681.088 64 416S278.912-64 544-64s480 214.912 480 480-214.912 480-480 480zm0-896C314.624 0 128 186.624 128 416s186.624 416 416 416 416-186.624 416-416S773.376 0 544 0z"/><glyph unicode="B" glyph-name="arrow_triangle-up" data-tags="arrow_triangle-up" d="M287.936 320h446.912c9.152 0 17.28 4.416 23.04 11.264l.128-.128c12.48 13.888 12.48 36.416 0 50.304L534.08 629.568c-12.48 13.888-32.704 13.888-45.12 0-.32-.384-.448-.896-.768-1.28L264.704 381.44c-12.48-13.888-12.48-36.416 0-50.304.128-.128.256-.192.384-.32C270.912 324.16 278.912 320 287.936 320z"/><glyph unicode="C" glyph-name="arrow_triangle-down" data-tags="arrow_triangle-down" d="M533.824 330.432c.32.384.448.896.768 1.28L758.016 578.56c12.48 13.888 12.48 36.416 0 50.304-.128.128-.256.192-.384.256-5.76 6.72-13.824 10.88-22.784 10.88H287.936c-9.152 0-17.28-4.416-23.104-11.264l-.128.128c-12.48-13.888-12.48-36.416 0-50.304L488.64 330.432c12.48-13.888 32.704-13.888 45.184 0z"/><glyph unicode="D" glyph-name="arrow_triangle-left" data-tags="arrow_triangle-left" d="M578.56 695.296l-248.128-224c-13.888-12.48-13.888-32.704 0-45.12.384-.32.896-.448 1.28-.768L578.56 201.984c13.888-12.48 36.416-12.48 50.304 0 .128.128.128.256.256.384 6.72 5.76 10.88 13.824 10.88 22.784v446.912c0 9.152-4.416 17.28-11.264 23.04l.128.128c-13.888 12.48-36.416 12.48-50.304.064z"/><glyph unicode="E" glyph-name="arrow_triangle-right" data-tags="arrow_triangle-right" d="M444.608 200.768L689.472 425.28c13.696 12.48 13.696 32.768 0 45.248-.384.32-.896.448-1.28.768l-243.584 224c-13.696 12.48-35.968 12.48-49.664 0-.064-.128-.128-.32-.256-.448C388.16 689.088 384 681.024 384 672V224c0-9.152 4.352-17.28 11.072-23.104l-.128-.128c13.76-12.544 35.968-12.544 49.664 0z"/><glyph unicode="F" glyph-name="arrow_triangle-up_alt2" data-tags="arrow_triangle-up_alt2" d="M544 896C278.912 896 64 681.088 64 416S278.912-64 544-64s480 214.912 480 480-214.912 480-480 480zm0-896C314.624 0 128 186.624 128 416s186.624 416 416 416 416-186.624 416-416S773.376 0 544 0zm19.2 565.568c-10.88 13.888-28.608 13.888-39.488 0-.32-.384-.384-.896-.704-1.28L327.552 317.44c-10.88-13.888-10.88-36.416 0-50.304.064-.128.256-.128.32-.256 5.056-6.72 12.096-10.88 19.968-10.88h391.04c8 0 15.104 4.416 20.16 11.264l.128-.128c10.88 13.888 10.88 36.416 0 50.304L563.2 565.568z"/><glyph unicode="G" glyph-name="arrow_triangle-down_alt2" data-tags="arrow_triangle-down_alt2" d="M544 896C278.912 896 64 681.088 64 416S278.912-64 544-64s480 214.912 480 480-214.912 480-480 480zm0-896C314.624 0 128 186.624 128 416s186.624 416 416 416 416-186.624 416-416S773.376 0 544 0zm215.488 501.184C754.432 507.84 747.392 512 739.52 512H348.48c-8 0-15.104-4.416-20.16-11.264l-.128.128c-10.88-13.888-10.88-36.416 0-50.304L524.16 202.432c10.88-13.888 28.608-13.888 39.488 0 .32.384.384.896.704 1.28l195.52 246.848c10.88 13.888 10.88 36.416 0 50.304-.128.128-.256.192-.384.32z"/><glyph unicode="H" glyph-name="arrow_triangle-left_alt2" data-tags="arrow_triangle-left_alt2" d="M544 896C278.912 896 64 681.088 64 416S278.912-64 544-64s480 214.912 480 480-214.912 480-480 480zm0-896C314.624 0 128 186.624 128 416s186.624 416 416 416 416-186.624 416-416S773.376 0 544 0zm84.864 632.448c-13.888 10.88-36.416 10.88-50.304 0L330.432 436.48c-13.888-10.88-13.888-28.608 0-39.488.384-.32.896-.384 1.28-.704l246.848-195.52c13.888-10.88 36.416-10.88 50.304 0 .128.064.128.256.256.32 6.72 5.12 10.88 12.16 10.88 20.032v391.04c0 8-4.416 15.104-11.264 20.16l.128.128z"/><glyph unicode="I" glyph-name="arrow_triangle-right_alt2" data-tags="arrow_triangle-right_alt2" d="M544 896C278.912 896 64 681.088 64 416S278.912-64 544-64s480 214.912 480 480-214.912 480-480 480zm0-896C314.624 0 128 186.624 128 416s186.624 416 416 416 416-186.624 416-416S773.376 0 544 0zm212.288 436.928L509.44 632.448c-13.888 10.88-36.416 10.88-50.304 0-.128-.128-.192-.256-.32-.32C452.16 627.072 448 620.032 448 612.16V221.12c0-8 4.416-15.104 11.264-20.16l-.128-.128c13.888-10.88 36.416-10.88 50.304 0L757.568 396.8c13.888 10.88 13.888 28.608 0 39.488-.384.32-.896.384-1.28.64z"/><glyph unicode="J" glyph-name="arrow_back" data-tags="arrow_back" d="M73.344 457.344l192-192c12.48-12.48 32.768-12.48 45.248 0s12.48 32.768 0 45.248L173.248 448H640c128 0 192-118.144 192-224 0-17.664 14.336-32 32-32s32 14.336 32 32c0 141.184-64 288-256 288H173.248l137.344 137.344c12.48 12.48 12.48 32.768 0 45.248s-32.768 12.48-45.248 0l-192-192c-12.48-12.48-12.48-32.704 0-45.248z"/><glyph unicode="K" glyph-name="icon_minus-06" data-tags="icon_minus-06" d="M288 384h512c17.664 0 32 14.336 32 32s-14.336 32-32 32H288c-17.664 0-32-14.336-32-32s14.336-32 32-32z"/><glyph unicode="L" glyph-name="icon_plus" data-tags="icon_plus" d="M288 384h224V160c0-17.664 14.336-32 32-32s32 14.336 32 32v224h224c17.664 0 32 14.336 32 32s-14.336 32-32 32H576v224c0 17.664-14.336 32-32 32s-32-14.336-32-32V448H288c-17.664 0-32-14.336-32-32s14.336-32 32-32z"/><glyph unicode="M" glyph-name="icon_close" data-tags="icon_close" d="M289.6 225.6c12.48-12.48 32.768-12.48 45.248 0L512 402.752 689.152 225.6c12.48-12.48 32.768-12.48 45.248 0s12.48 32.768 0 45.248L557.248 448 734.4 625.152c12.48 12.48 12.48 32.768 0 45.248s-32.768 12.48-45.248 0L512 493.248 334.848 670.4c-12.48 12.48-32.768 12.48-45.248 0s-12.48-32.768 0-45.248L466.752 448 289.6 270.848c-12.48-12.48-12.48-32.768 0-45.248z"/><glyph unicode="N" glyph-name="icon_check" data-tags="icon_check" d="M441.216 141.184c1.28-1.024 2.048-2.432 3.392-3.392 1.92-1.28 4.096-1.536 6.144-2.432 2.432-1.152 4.8-2.24 7.36-2.944 2.496-.64 4.928-.96 7.488-1.152 3.648-.384 7.168-.384 10.752.128 1.472.256 2.88.64 4.352 1.024 4.416 1.088 8.512 2.816 12.544 5.248.704.448 1.28.96 1.984 1.408 2.624 1.792 5.44 3.136 7.68 5.568 1.6 1.728 2.304 3.968 3.584 5.888.064.064.192.128.192.192l381.376 611.264c13.568 20.672 7.744 48.448-12.992 62.016s-48.448 7.744-62.016-12.992L460.8 246.464 265.984 435.968c-18.176 16.832-46.464 15.744-63.296-2.432-16.768-18.176-15.68-46.528 2.496-63.296l234.368-228.032c.448-.448 1.088-.576 1.664-1.024z"/><glyph unicode="O" glyph-name="icon_minus_alt2" data-tags="icon_minus_alt2" horiz-adv-x="960" d="M480 960C214.912 960 0 745.088 0 480S214.912 0 480 0s480 214.912 480 480-214.912 480-480 480zm0-896C250.624 64 64 250.624 64 480s186.624 416 416 416 416-186.624 416-416S709.376 64 480 64zm256 448H224c-17.664 0-32-14.336-32-32s14.336-32 32-32h512c17.664 0 32 14.336 32 32s-14.336 32-32 32z"/><glyph unicode="P" glyph-name="icon_plus_alt2" data-tags="icon_plus_alt2" horiz-adv-x="960" d="M480 960C214.912 960 0 745.088 0 480S214.912 0 480 0s480 214.912 480 480-214.912 480-480 480zm0-896C250.624 64 64 250.624 64 480s186.624 416 416 416 416-186.624 416-416S709.376 64 480 64zm256 448H512v224c0 17.664-14.336 32-32 32s-32-14.336-32-32V512H224c-17.664 0-32-14.336-32-32s14.336-32 32-32h224V224c0-17.664 14.336-32 32-32s32 14.336 32 32v224h224c17.664 0 32 14.336 32 32s-14.336 32-32 32z"/><glyph unicode="Q" glyph-name="icon_close_alt2" data-tags="icon_close_alt2" d="M544 896C278.912 896 64 681.088 64 416S278.912-64 544-64s480 214.912 480 480-214.912 480-480 480zm0-896C314.624 0 128 186.624 128 416s186.624 416 416 416 416-186.624 416-416S773.376 0 544 0zm177.152 638.4L545.216 462.464 387.456 638.4c-12.48 12.48-32.768 12.48-45.248 0s-12.48-32.768 0-45.248l157.824-175.936-178.368-178.368c-12.48-12.48-12.48-32.768 0-45.248s32.768-12.48 45.248 0l175.936 175.936L700.672 193.6c12.48-12.48 32.768-12.48 45.248 0s12.48 32.768 0 45.248L588.032 414.784 766.4 593.152c12.48 12.48 12.48 32.768 0 45.248s-32.768 12.48-45.248 0z"/><glyph unicode="R" glyph-name="icon_check_alt2" data-tags="icon_check_alt2" d="M514.688 960c-282.752 0-512-229.248-512-512s229.248-512 512-512 512 229.248 512 512-229.248 512-512 512zm0-960c-247.04 0-448 200.96-448 448s200.96 448 448 448 448-200.96 448-448-201.024-448-448-448zm224.256 651.648c-20.672 13.568-48.448 7.744-62.016-12.992L460.864 308.48l-103.296 95.616c-18.176 16.768-46.528 15.68-63.36-2.496s-15.68-46.464 2.496-63.296l142.784-132.096c.512-.448 1.152-.576 1.664-1.024 1.28-1.024 2.048-2.432 3.392-3.392 1.92-1.28 4.096-1.536 6.144-2.432 2.432-1.152 4.8-2.24 7.36-2.944 2.496-.64 4.928-.96 7.488-1.152 3.648-.384 7.168-.384 10.752.128 1.472.256 2.88.64 4.352 1.024 4.416 1.088 8.512 2.816 12.544 5.248.704.448 1.28.96 1.984 1.408 2.624 1.792 5.44 3.136 7.68 5.568 1.6 1.728 2.304 3.968 3.584 5.888.064.064.192.128.192.192l245.248 374.848c13.568 20.736 7.744 48.512-12.928 62.08z"/><glyph unicode="S" glyph-name="icon_zoom-out_alt" data-tags="icon_zoom-out_alt" d="M608 960c-229.76 0-416-186.24-416-416 0-98.88 34.624-189.504 92.224-260.928L13.056 11.904C-4.288-5.44-4.288-33.6 13.056-50.944s45.504-17.344 62.848 0l271.168 271.168C418.496 162.624 509.12 128 608 128c229.76 0 416 186.24 416 416S837.76 960 608 960zm0-768c-194.112 0-352 157.888-352 352s157.888 352 352 352 352-157.888 352-352-157.888-352-352-352zm192 384H416c-17.664 0-32-14.336-32-32s14.336-32 32-32h384c17.664 0 32 14.336 32 32s-14.336 32-32 32z"/><glyph unicode="T" glyph-name="icon_zoom-in_alt" data-tags="icon_zoom-in_alt" d="M608 960c-229.76 0-416-186.24-416-416 0-98.88 34.624-189.504 92.224-260.928L13.056 11.904C-4.288-5.44-4.288-33.6 13.056-50.944s45.504-17.344 62.848 0l271.168 271.168C418.496 162.624 509.12 128 608 128c229.76 0 416 186.24 416 416S837.76 960 608 960zm0-768c-194.112 0-352 157.888-352 352s157.888 352 352 352 352-157.888 352-352-157.888-352-352-352zm192 384H640v160c0 17.664-14.336 32-32 32s-32-14.336-32-32V576H416c-17.664 0-32-14.336-32-32s14.336-32 32-32h160V352c0-17.664 14.336-32 32-32s32 14.336 32 32v160h160c17.664 0 32 14.336 32 32s-14.336 32-32 32z"/><glyph unicode="U" glyph-name="icon_search" data-tags="icon_search" d="M608 960c-229.76 0-416-186.24-416-416 0-98.88 34.688-189.632 92.288-261.056L9.344 8c-17.28-17.28-17.28-45.376 0-62.656s45.376-17.28 62.656 0l274.944 274.944C418.368 162.688 509.12 128 608 128c229.76 0 416 186.24 416 416S837.76 960 608 960zm0-768c-194.112 0-352 157.888-352 352s157.888 352 352 352 352-157.888 352-352-157.888-352-352-352z"/><glyph unicode="V" glyph-name="icon_box-empty" data-tags="icon_box-empty" d="M832 832H192c-35.328 0-64-28.672-64-64V128c0-35.328 28.672-64 64-64h640c35.328 0 64 28.672 64 64v640c0 35.328-28.672 64-64 64zm0-704H192v640h640V128z"/><glyph unicode="W" glyph-name="icon_box-selected" data-tags="icon_box-selected" d="M832 832H192c-35.328 0-64-28.672-64-64V128c0-35.328 28.672-64 64-64h640c35.328 0 64 28.672 64 64v640c0 35.328-28.672 64-64 64zm0-704H192v640h640V128zM384 256h256c35.328 0 64 28.672 64 64v256c0 35.328-28.672 64-64 64H384c-35.328 0-64-28.672-64-64V320c0-35.328 28.672-64 64-64z"/><glyph unicode="X" glyph-name="icon_minus-box" data-tags="icon_minus-box" d="M256 640V192c0-35.328 28.672-64 64-64h448c35.328 0 64 28.672 64 64v448c0 35.328-28.672 64-64 64H320c-35.328 0-64-28.672-64-64zm512-448H320v448h448V192zM416 384h256c17.664 0 32 14.336 32 32s-14.336 32-32 32H416c-17.664 0-32-14.336-32-32s14.336-32 32-32z"/><glyph unicode="Y" glyph-name="icon_plus-box" data-tags="icon_plus-box" d="M256 640V192c0-35.328 28.672-64 64-64h448c35.328 0 64 28.672 64 64v448c0 35.328-28.672 64-64 64H320c-35.328 0-64-28.672-64-64zm512-448H320v448h448V192zM416 384h96v-96c0-17.664 14.336-32 32-32s32 14.336 32 32v96h96c17.664 0 32 14.336 32 32s-14.336 32-32 32h-96v96c0 17.664-14.336 32-32 32s-32-14.336-32-32v-96h-96c-17.664 0-32-14.336-32-32s14.336-32 32-32z"/><glyph unicode="Z" glyph-name="icon_box-checked" data-tags="icon_box-checked" d="M832 128H192v640h472.064L704 832H192c-35.328 0-64-28.672-64-64V128c0-35.328 28.672-64 64-64h640c35.328 0 64 28.672 64 64v422.592L832 448V128zm107.712 760.704c-7.552 4.928-16.064 7.296-24.448 7.296-14.592 0-28.928-7.168-37.504-20.288L529.856 373.824l-134.592 153.6c-18.24 16.832-46.528 15.744-63.36-2.432s-15.68-46.528 2.496-63.296l161.792-184.64c1.024-1.664 2.624-2.944 3.904-4.48l4.096-4.672c.512-.448 1.152-.576 1.664-1.024 1.28-1.024 2.048-2.432 3.392-3.392 2.752-1.792 5.76-2.944 8.768-4.032.704-.256 1.28-.704 1.984-.896 4.48-1.472 9.152-2.368 13.76-2.368.192 0 .384.128.576.128 12.16-.064 24.256 4.416 33.152 14.016 1.664 1.792 2.304 3.968 3.648 5.952l.192.192 381.376 550.208c13.504 20.672 7.744 48.448-12.992 62.016z"/><glyph unicode="[" glyph-name="icon_circle-empty" data-tags="icon_circle-empty" d="M512 832c-212.096 0-384-171.904-384-384S299.904 64 512 64s384 171.904 384 384-171.904 384-384 384zm0-704c-176.448 0-320 143.552-320 320s143.552 320 320 320 320-143.552 320-320-143.552-320-320-320z"/><glyph unicode="\" glyph-name="icon_circle-slelected" data-tags="icon_circle-slelected" d="M512 832c-212.096 0-384-171.904-384-384S299.904 64 512 64s384 171.904 384 384-171.904 384-384 384zm0-704c-176.448 0-320 143.552-320 320s143.552 320 320 320 320-143.552 320-320-143.552-320-320-320zM320 448c0-106.039 85.961-192 192-192s192 85.961 192 192-85.961 192-192 192-192-85.961-192-192z"/><glyph unicode="]" glyph-name="icon_stop_alt2" data-tags="icon_stop_alt2" d="M512 960C229.248 960 0 730.752 0 448S229.248-64 512-64s512 229.248 512 512-229.248 512-512 512zm0-960C264.96 0 64 200.96 64 448s200.96 448 448 448 448-200.96 448-448S759.04 0 512 0zm128 640H384c-35.328 0-64-28.672-64-64V320c0-35.328 28.672-64 64-64h256c35.328 0 64 28.672 64 64v256c0 35.328-28.672 64-64 64z"/><glyph unicode="^" glyph-name="icon_stop" data-tags="icon_stop" d="M640 256c35.328 0 64 28.672 64 64v256c0 35.328-28.672 64-64 64H384c-35.328 0-64-28.672-64-64V320c0-35.328 28.672-64 64-64h256z"/><glyph unicode="_" glyph-name="icon_pause_alt2" data-tags="icon_pause_alt2" d="M512-64c282.752 0 512 229.248 512 512S794.752 960 512 960 0 730.752 0 448 229.248-64 512-64zm0 960c247.04 0 448-200.96 448-448S759.04 0 512 0 64 200.96 64 448s200.96 448 448 448zM384 256c35.328 0 64 28.672 64 64v256c0 35.328-28.672 64-64 64s-64-28.672-64-64V320c0-35.328 28.672-64 64-64zm256 0c35.328 0 64 28.672 64 64v256c0 35.328-28.672 64-64 64s-64-28.672-64-64V320c0-35.328 28.672-64 64-64z"/><glyph unicode="`" glyph-name="icon_pause" data-tags="icon_pause" d="M384 640c-35.328 0-64-28.672-64-64V320c0-35.328 28.672-64 64-64s64 28.672 64 64v256c0 35.328-28.672 64-64 64zm192-320c0-35.328 28.672-64 64-64s64 28.672 64 64v256c0 35.328-28.672 64-64 64s-64-28.672-64-64V320z"/><glyph unicode="a" glyph-name="icon_menu" data-tags="icon_menu" d="M224 448h576c17.664 0 32 14.336 32 32s-14.336 32-32 32H224c-17.664 0-32-14.336-32-32s14.336-32 32-32zm0 192h576c17.664 0 32 14.336 32 32s-14.336 32-32 32H224c-17.664 0-32-14.336-32-32s14.336-32 32-32zm0-384h576c17.664 0 32 14.336 32 32s-14.336 32-32 32H224c-17.664 0-32-14.336-32-32s14.336-32 32-32z"/><glyph unicode="b" glyph-name="icon_menu-square_alt2" data-tags="icon_menu-square_alt2" d="M960 896H128c-35.328 0-64-28.672-64-64V0c0-35.328 28.672-64 64-64h832c35.328 0 64 28.672 64 64v832c0 35.328-28.672 64-64 64zm0-896H128v832h832V0zM288 384h512c17.664 0 32 14.336 32 32s-14.336 32-32 32H288c-17.664 0-32-14.336-32-32s14.336-32 32-32zm0 192h512c17.664 0 32 14.336 32 32s-14.336 32-32 32H288c-17.664 0-32-14.336-32-32s14.336-32 32-32zm0-384h512c17.664 0 32 14.336 32 32s-14.336 32-32 32H288c-17.664 0-32-14.336-32-32s14.336-32 32-32z"/><glyph unicode="c" glyph-name="icon_menu-circle_alt2" data-tags="icon_menu-circle_alt2" d="M544 896C278.912 896 64 681.088 64 416S278.912-64 544-64s480 214.912 480 480-214.912 480-480 480zm0-896C314.624 0 128 186.624 128 416s186.624 416 416 416 416-186.624 416-416S773.376 0 544 0zm256 448H288c-17.664 0-32-14.336-32-32s14.336-32 32-32h512c17.664 0 32 14.336 32 32s-14.336 32-32 32zm0 192H288c-17.664 0-32-14.336-32-32s14.336-32 32-32h512c17.664 0 32 14.336 32 32s-14.336 32-32 32zm0-384H288c-17.664 0-32-14.336-32-32s14.336-32 32-32h512c17.664 0 32 14.336 32 32s-14.336 32-32 32z"/><glyph unicode="d" glyph-name="icon_ul" data-tags="icon_ul" d="M352 448h512c17.664 0 32 14.336 32 32s-14.336 32-32 32H352c-17.664 0-32-14.336-32-32s14.336-32 32-32zm0 256h512c17.664 0 32 14.336 32 32s-14.336 32-32 32H352c-17.664 0-32-14.336-32-32s14.336-32 32-32zm0-512h512c17.664 0 32 14.336 32 32s-14.336 32-32 32H352c-17.664 0-32-14.336-32-32s14.336-32 32-32zM128 736c0-17.673 14.327-32 32-32s32 14.327 32 32c0 17.673-14.327 32-32 32s-32-14.327-32-32zm0-256c0-17.673 14.327-32 32-32s32 14.327 32 32c0 17.673-14.327 32-32 32s-32-14.327-32-32zm0-256c0-17.673 14.327-32 32-32s32 14.327 32 32c0 17.673-14.327 32-32 32s-32-14.327-32-32z"/><glyph unicode="e" glyph-name="icon_ol" data-tags="icon_ol" d="M864 512H352c-17.664 0-32-14.336-32-32s14.336-32 32-32h512c17.664 0 32 14.336 32 32s-14.336 32-32 32zm0 256H352c-17.664 0-32-14.336-32-32s14.336-32 32-32h512c17.664 0 32 14.336 32 32s-14.336 32-32 32zm0-512H352c-17.664 0-32-14.336-32-32s14.336-32 32-32h512c17.664 0 32 14.336 32 32s-14.336 32-32 32zM222.72 657.088v157.824h-18.24l-34.496-18.432 4.16-16.256 27.456 14.784h.448v-137.92zm-50.752-226.624l-16.704-16.256v-13.12H256v17.728h-70.912v.448l12.608 11.648c33.28 32.064 54.4 55.616 54.4 84.736 0 22.592-14.336 45.888-48.32 45.888-18.24 0-33.728-6.784-44.672-16.064l6.784-15.04c7.296 6.08 19.2 13.376 33.536 13.376 23.552 0 31.296-14.784 31.296-30.848-.192-23.744-18.432-44.16-58.752-82.496zm26.24-268.16c-14.784 0-28.864 6.08-34.944 9.92l-5.824-16.512c7.744-5.12 23.296-10.688 41.024-10.688 37.888 0 57.536 22.08 57.536 47.36 0 22.08-15.808 36.672-35.2 40.576v.448c19.456 7.04 29.12 20.864 29.12 37.184 0 19.2-14.08 37.632-45.184 37.632-17.024 0-33.024-6.08-41.28-12.16l5.568-15.552c6.784 4.864 18.944 10.432 31.552 10.432 19.648 0 27.712-11.2 27.712-23.808 0-18.688-19.648-26.688-35.2-26.688h-11.904v-16h11.904c20.672 0 40.576-9.472 40.768-31.552.32-13.12-8.192-30.592-35.648-30.592z"/><glyph unicode="f" glyph-name="icon_adjust-horiz" data-tags="icon_adjust-horiz" d="M864 768h-96c0 35.328-28.672 64-64 64h-64c-35.328 0-64-28.672-64-64H160c-17.664 0-32-14.336-32-32s14.336-32 32-32h416c0-35.328 28.672-64 64-64h64c35.328 0 64 28.672 64 64h96c17.664 0 32 14.336 32 32s-14.336 32-32 32zm-160-64h-64v64h64v-64zm160-192H448c0 35.328-28.672 64-64 64h-64c-35.328 0-64-28.672-64-64h-96c-17.664 0-32-14.336-32-32s14.336-32 32-32h96c0-35.328 28.672-64 64-64h64c35.328 0 64 28.672 64 64h416c17.664 0 32 14.336 32 32s-14.336 32-32 32zm-480-64h-64v64h64v-64zm480-192H640c0 35.328-28.672 64-64 64h-64c-35.328 0-64-28.672-64-64H160c-17.664 0-32-14.336-32-32s14.336-32 32-32h288c0-35.328 28.672-64 64-64h64c35.328 0 64 28.672 64 64h224c17.664 0 32 14.336 32 32s-14.336 32-32 32zm-288-64h-64v64h64v-64z"/><glyph unicode="g" glyph-name="icon_adjust-vert" data-tags="icon_adjust-vert" d="M320 704v96c0 17.664-14.336 32-32 32s-32-14.336-32-32v-96c-35.328 0-64-28.672-64-64v-64c0-35.328 28.672-64 64-64V96c0-17.664 14.336-32 32-32s32 14.336 32 32v416c35.328 0 64 28.672 64 64v64c0 35.328-28.672 64-64 64zm-64-64h64v-64h-64v64zm320-256v416c0 17.664-14.336 32-32 32s-32-14.336-32-32V384c-35.328 0-64-28.672-64-64v-64c0-35.328 28.672-64 64-64V96c0-17.664 14.336-32 32-32s32 14.336 32 32v96c35.328 0 64 28.672 64 64v64c0 35.328-28.672 64-64 64zm-64-64h64v-64h-64v64zm320 256v224c0 17.664-14.336 32-32 32s-32-14.336-32-32V576c-35.328 0-64-28.672-64-64v-64c0-35.328 28.672-64 64-64V96c0-17.664 14.336-32 32-32s32 14.336 32 32v288c35.328 0 64 28.672 64 64v64c0 35.328-28.672 64-64 64zm-64-64h64v-64h-64v64z"/><glyph unicode="h" glyph-name="icon_document_alt" data-tags="icon_document_alt" d="M128-64h768c35.328 0 64 28.672 64 64v896c0 35.328-28.672 64-64 64H128c-35.328 0-64-28.672-64-64V0c0-35.328 28.672-64 64-64zm0 960h768V0H128v896zm608-128H480c-17.664 0-32-14.336-32-32s14.336-32 32-32h256c17.664 0 32 14.336 32 32s-14.336 32-32 32zm0-192H288c-17.664 0-32-14.336-32-32s14.336-32 32-32h448c17.664 0 32 14.336 32 32s-14.336 32-32 32zm0-192H288c-17.664 0-32-14.336-32-32s14.336-32 32-32h448c17.664 0 32 14.336 32 32s-14.336 32-32 32zm0-192H288c-17.664 0-32-14.336-32-32s14.336-32 32-32h448c17.664 0 32 14.336 32 32s-14.336 32-32 32z"/><glyph unicode="i" glyph-name="icon_documents_alt" data-tags="icon_documents_alt" d="M128 64h64V0c0-35.328 28.672-64 64-64h640c35.328 0 64 28.672 64 64v768c0 35.328-28.672 64-64 64h-64v64c0 35.328-28.672 64-64 64H128c-35.328 0-64-28.672-64-64V128c0-35.328 28.672-64 64-64zm640 64H128v768h640V128zm128 640V0H256v64h512c35.328 0 64 28.672 64 64v640h64zm-576-32c0-17.664 14.336-32 32-32h320c17.664 0 32 14.336 32 32s-14.336 32-32 32H352c-17.664 0-32-14.336-32-32zm-96-224h448c17.664 0 32 14.336 32 32s-14.336 32-32 32H224c-17.664 0-32-14.336-32-32s14.336-32 32-32zm0-128h448c17.664 0 32 14.336 32 32s-14.336 32-32 32H224c-17.664 0-32-14.336-32-32s14.336-32 32-32zm0-128h448c17.664 0 32 14.336 32 32s-14.336 32-32 32H224c-17.664 0-32-14.336-32-32s14.336-32 32-32z"/><glyph unicode="j" glyph-name="icon_pencil" data-tags="icon_pencil" d="M963.904-3.904L896.64 199.104 353.6 742.144 217.856 606.4l543.04-543.04zm-836.544 700.8L263.104 832.64l-67.2 67.2c-37.504 37.504-98.24 37.504-135.744 0-37.504-37.44-37.504-98.304 0-135.744l67.2-67.2z"/><glyph unicode="k" glyph-name="icon_pencil-edit_alt" data-tags="icon_pencil-edit_alt" d="M659.84 185.024L832 128l-57.024 172.16-328.96 328.96L330.88 513.984zM263.104 581.76L378.24 696.896l-84.736 84.736c-31.808 31.808-83.328 31.808-115.136 0s-31.808-83.328 0-115.136l84.736-84.736zM960 960H64c-35.328 0-64-28.672-64-64V0c0-35.328 28.672-64 64-64h896c35.328 0 64 28.672 64 64v896c0 35.328-28.672 64-64 64zm0-960H64v896h896V0z"/><glyph unicode="l" glyph-name="icon_pencil-edit" data-tags="icon_pencil-edit" d="M677.504 282.496l-57.024 172.16-328.96 328.96L176.384 668.48l328.96-328.96zM23.872 936.128c-31.808-31.808-31.808-83.328 0-115.136l84.736-84.736 115.136 115.136-84.736 84.736c-31.808 31.808-83.328 31.808-115.136 0zM960 768H506.304l64-64H960V0H256v389.696l-64 64V0c0-35.328 28.672-64 64-64h704c35.328 0 64 28.672 64 64v704c0 35.328-28.672 64-64 64z"/><glyph unicode="m" glyph-name="icon_folder-alt" data-tags="icon_folder-alt" d="M960 896H670.976c-35.328 0-75.968-17.984-94.976-64 0 0-8.32-58.688-64-64H64c-35.328 0-64-27.648-64-62.976V128c0-35.328 28.672-64 64-64h896c35.328 0 64 28.672 64 64v704c0 35.328-28.672 64-64 64zm0-190.976V128H64v576h448c2.048 0 4.032.128 6.08.32 60.032 5.696 97.152 47.68 114.304 90.88 16.64 41.792 45.632 36.8 45.632 36.8H960V705.024z"/><glyph unicode="n" glyph-name="icon_folder-open_alt" data-tags="icon_folder-open_alt" d="M1024 705.024V832c0 35.328-28.672 64-64 64H640c-35.328 0-64-28.672-64-64 0 0-8.32-58.688-64-64H64c-35.328 0-64-27.648-64-62.976V640h1024v65.024zM64 0h896c35.328 0 64 28.672 64 64v512H0V64C0 28.672 28.672 0 64 0zm0 512h896V64H64v448z"/><glyph unicode="o" glyph-name="icon_folder-add_alt" data-tags="icon_folder-add_alt" d="M896 832H670.976c-35.328 0-75.968-17.984-94.976-64 0 0-8.32-58.688-64-64H64c-35.328 0-64-27.648-64-62.976V64C0 28.672 28.672 0 64 0h832c35.328 0 64 28.672 64 64v704c0 35.328-28.672 64-64 64zm0-190.976V64H64v576h448c2.048 0 4.032.128 6.08.32 60.032 5.696 97.152 47.744 114.304 90.944C649.024 772.992 678.016 768 678.016 768H896V641.024zM640 384H512v128c0 17.664-14.336 32-32 32s-32-14.336-32-32V384H320c-17.664 0-32-14.336-32-32s14.336-32 32-32h128V192c0-17.664 14.336-32 32-32s32 14.336 32 32v128h128c17.664 0 32 14.336 32 32s-14.336 32-32 32z"/><glyph unicode="p" glyph-name="icon_info_alt" data-tags="icon_info_alt" d="M512 960C229.248 960 0 730.752 0 448S229.248-64 512-64s512 229.248 512 512-229.248 512-512 512zm0-960C264.96 0 64 200.96 64 448s200.96 448 448 448 448-200.96 448-448S759.04 0 512 0zm0 576c-35.328 0-64-28.672-64-64V192c0-35.328 28.672-64 64-64s64 28.672 64 64v320c0 35.328-28.672 64-64 64zm-64 126.976c0-35.346 28.654-64 64-64s64 28.654 64 64c0 35.346-28.654 64-64 64s-64-28.654-64-64z"/><glyph unicode="q" glyph-name="icon_error-oct_alt" data-tags="icon_error-oct_alt" d="M742.848 941.248C730.816 953.28 714.56 960 697.536 960H326.464c-16.96 0-33.28-6.72-45.248-18.752l-262.4-262.464C6.72 666.816 0 650.56 0 633.536V262.4c0-16.96 6.72-33.28 18.752-45.248l262.4-262.464A64.187 64.187 0 0 1 326.464-64H697.6c16.96 0 33.28 6.72 45.248 18.752l262.4 262.464C1017.28 229.184 1024 245.44 1024 262.464v371.072c0 16.96-6.72 33.28-18.752 45.248l-262.4 262.464zM960 262.464L697.536 0H326.464L64 262.464v371.072L326.464 896H697.6L960 633.536V262.464zM512 768c-35.328 0-64-28.672-64-64V384c0-35.328 28.672-64 64-64s64 28.672 64 64v320c0 35.328-28.672 64-64 64zm-64-576c0-35.346 28.654-64 64-64s64 28.654 64 64c0 35.346-28.654 64-64 64s-64-28.654-64-64z"/><glyph unicode="r" glyph-name="icon_error-circle_alt" data-tags="icon_error-circle_alt" d="M512 960C229.248 960 0 730.752 0 448S229.248-64 512-64s512 229.248 512 512-229.248 512-512 512zm0-960C264.96 0 64 200.96 64 448s200.96 448 448 448 448-200.96 448-448S759.04 0 512 0zm0 768c-35.328 0-64-28.672-64-64V384c0-35.328 28.672-64 64-64s64 28.672 64 64v320c0 35.328-28.672 64-64 64zm-64-574.976c0-35.346 28.654-64 64-64s64 28.654 64 64c0 35.346-28.654 64-64 64s-64-28.654-64-64z"/><glyph unicode="s" glyph-name="icon_error-triangle_alt" data-tags="icon_error-triangle_alt" d="M1012.48 94.144l-444.032 832C557.376 946.944 535.68 960 512.064 960H512c-23.616 0-45.248-12.992-56.384-33.792L9.6 94.208C-1.024 74.368-.448 50.432 11.072 31.104 22.656 11.84 43.52 0 65.984 0h889.984a64.015 64.015 0 0 1 54.912 31.104c11.584 19.264 12.16 43.2 1.6 63.04zM65.984 64L512 896 956.032 64H65.984zM448 574.976v-192c0-35.328 28.672-64 64-64s64 28.672 64 64v192c0 35.328-28.672 64-64 64s-64-28.608-64-64zM448 192c0-35.346 28.654-64 64-64s64 28.654 64 64c0 35.346-28.654 64-64 64s-64-28.654-64-64z"/><glyph unicode="t" glyph-name="icon_question_alt2" data-tags="icon_question_alt2" d="M512 960C229.248 960 0 730.752 0 448S229.248-64 512-64s512 229.248 512 512-229.248 512-512 512zm0-960C264.96 0 64 200.96 64 448s200.96 448 448 448 448-200.96 448-448S759.04 0 512 0zm-71.232 127.104c0-36.407 29.513-65.92 65.92-65.92s65.92 29.513 65.92 65.92-29.513 65.92-65.92 65.92-65.92-29.513-65.92-65.92zM506.688 832c-124.096 0-256-90.176-256-257.344 0-35.328 28.608-64 64-64s64 28.672 64 64c0 88.896 66.368 129.344 128 129.344 47.808 0 128-14.016 128-108.032 0-33.344-8.768-72.256-73.536-107.968-44.032-24.128-118.464-86.784-118.464-168 0-35.328 28.608-64 64-64s64 28.672 64 64c0 11.904 25.344 41.152 52.16 55.936 92.736 51.072 139.84 125.12 139.84 220.032 0 163.072-128.576 236.032-256 236.032z"/><glyph unicode="u" glyph-name="icon_question" data-tags="icon_question" d="M440.768 127.104c0-36.407 29.513-65.92 65.92-65.92s65.92 29.513 65.92 65.92-29.513 65.92-65.92 65.92-65.92-29.513-65.92-65.92zm182.08 248.832c92.736 51.072 139.84 125.12 139.84 220.032 0 163.008-128.576 236.032-256 236.032-124.096 0-256-90.176-256-257.344 0-35.328 28.608-64 64-64s64 28.672 64 64c0 88.896 66.368 129.344 128 129.344 47.808 0 128-14.016 128-108.032 0-33.344-8.768-72.256-73.536-107.968-44.032-24.128-118.464-86.784-118.464-168 0-35.328 28.608-64 64-64s64 28.672 64 64c0 11.904 25.28 41.152 52.16 55.936z"/><glyph unicode="v" glyph-name="icon_comment_alt" data-tags="icon_comment_alt" d="M60.736 19.776C65.984 8.512 77.312 1.344 89.728 1.344c91.84 0 169.536 22.336 257.792 74.368C390.336 68.928 474.88 60.544 512 60.544c280.192 0 508.096 187.072 508.096 417.088S792.192 894.656 512 894.656 3.904 707.648 3.904 477.632c0-108.416 52.288-213.184 144.32-290.816-20.864-47.36-48.704-92.032-83.008-132.928-7.936-9.6-9.728-22.912-4.48-34.112zm7.168 457.856C67.904 672.32 267.136 830.72 512 830.72s444.096-158.4 444.096-353.088S756.864 124.544 512 124.544c-36.736 0-132.352 9.856-164.672 16.128-7.808 1.408-15.936-.064-22.72-4.096-59.648-36.48-111.68-57.344-167.36-66.176 24 36.352 43.968 74.752 59.52 114.752 5.184 13.376.96 28.48-10.496 37.12-89.28 67.584-138.368 158.336-138.368 255.36z"/><glyph unicode="w" glyph-name="icon_chat_alt" data-tags="icon_chat_alt" d="M893.12 582.72c5.632-25.344 8.896-51.392 8.896-78.144 0-206.592-175.36-378.816-406.272-415.808C544.576 69.056 599.296 57.536 657.6 57.536c54.976 0 106.88 10.112 153.728 27.712 59.328-20.224 124.096-25.472 177.664-25.472-27.84 33.408-47.168 66.176-60.992 94.976 59.392 52.992 96 123.2 96 200.512 0 91.392-51.008 172.864-130.88 227.456zM47.104 146.624c5.568-10.56 16.512-17.152 28.352-17.152.512 0 1.088 0 1.536.064 33.856 1.6 101.184 24.064 172.48 69.312 38.144-6.72 123.584-19.392 153.408-19.392 225.088 0 401.344 156.736 401.344 356.864 0 196.8-179.968 356.864-401.344 356.864s-401.216-160-401.216-356.8c0-91.584 40.32-180.096 111.296-246.336-15.936-38.784-37.056-75.456-62.848-109.056-7.616-9.856-8.768-23.296-3.008-34.368zm18.56 389.76c0 161.472 151.296 292.864 337.344 292.864s337.344-131.392 337.344-292.864c0-166.912-145.024-292.864-337.344-292.864-25.28 0-125.888 14.656-153.536 20.48-8.448 1.664-17.216.128-24.256-4.672-27.456-18.176-53.312-31.936-75.84-42.048a542.289 542.289 0 0 1 31.616 71.36c4.544 12.736.64 26.944-9.728 35.52-68.096 56-105.6 131.392-105.6 212.224z"/><glyph unicode="x" glyph-name="icon_vol-mute_alt" data-tags="icon_vol-mute_alt" d="M64 183.872h146.624c11.584-11.52 278.464-236.16 278.464-236.16C502.976-60.736 515.072-64 525.632-64c1.6 0 3.2.064 4.736.192 23.68 2.24 40.576 22.08 45.632 43.008v937.536c-4.992 20.992-21.952 40.832-45.632 43.072a56.277 56.277 0 0 1-4.736.192c-10.56 0-22.656-3.264-36.544-11.648 0 0-266.88-232.832-278.464-244.352H64c-35.328 0-64-28.672-64-64V247.872c0-35.392 28.672-64 64-64zM64 256v384h146.624c16.384 0 32.768 6.848 44.608 18.112C266.88 669.184 411.52 795.712 512 883.392V12.032c-99.84 84.096-244.48 206.272-256.256 217.152-11.968 11.968-28.224 18.624-45.184 18.624H64V256zm948.544 357.696c-15.232 15.232-40 15.232-55.232 0L846.848 503.232 736.384 613.696c-15.232 15.232-40 15.232-55.232 0s-15.232-40 0-55.232L791.616 448 681.152 337.536c-15.232-15.232-15.232-40 0-55.232s40-15.232 55.232 0l110.464 110.464 110.464-110.464c15.232-15.232 40-15.232 55.232 0s15.232 40 0 55.232L902.08 448l110.464 110.464c15.296 15.232 15.296 40 0 55.232z"/><glyph unicode="y" glyph-name="icon_volume-low_alt" data-tags="icon_volume-low_alt" d="M653.632 960c-10.56 0-22.656-3.264-36.544-11.648 0 0-266.88-232.832-278.464-244.352H192c-35.328 0-64-28.672-64-64V247.872c0-35.328 28.672-64 64-64h146.624c11.584-11.52 278.464-236.16 278.464-236.16C630.976-60.736 643.072-64 653.632-64c1.6 0 3.2.064 4.736.192 23.68 2.24 40.576 22.08 45.632 43.008v937.536c-4.992 20.992-21.952 40.832-45.632 43.008-1.536.192-3.072.256-4.736.256zM640 12.032c-99.84 84.096-244.48 206.272-256.256 217.152-11.968 11.968-28.224 18.624-45.184 18.624H192V640h146.624c16.384 0 32.768 6.848 44.608 18.112C394.88 669.184 539.52 795.712 640 883.392V12.032zm162.624 324.16c-15.808-8-22.144-27.2-14.208-43.008a32.026 32.026 0 0 1 28.544-17.6c4.864 0 9.728 1.088 14.4 3.392C896.064 311.616 936.256 376.32 936.256 448S896.064 584.384 831.36 617.024c-15.808 8-35.008 1.6-42.944-14.208s-1.6-35.008 14.208-43.008c42.944-21.632 69.632-64.448 69.632-111.808s-26.688-90.176-69.632-111.808z"/><glyph unicode="z" glyph-name="icon_volume-high_alt" data-tags="icon_volume-high_alt" d="M64 183.872h146.624c11.584-11.52 278.464-236.16 278.464-236.16C502.976-60.736 515.072-64 525.632-64c1.6 0 3.2.064 4.736.192 23.68 2.24 40.576 22.08 45.632 43.008v937.536c-4.992 20.992-21.952 40.832-45.632 43.072a56.277 56.277 0 0 1-4.736.192c-10.56 0-22.656-3.264-36.544-11.648 0 0-266.88-232.832-278.464-244.352H64c-35.328 0-64-28.672-64-64V247.872c0-35.392 28.672-64 64-64zM64 256v384h146.624c16.384 0 32.768 6.848 44.608 18.112C266.88 669.184 411.52 795.712 512 883.392V12.032c-99.84 84.096-244.48 206.272-256.256 217.152-11.968 11.968-28.224 18.624-45.184 18.624H64V256zm610.624 80.192c-15.808-8-22.144-27.2-14.208-43.008a32.026 32.026 0 0 1 28.544-17.6c4.864 0 9.728 1.088 14.4 3.392C768.064 311.616 808.256 376.32 808.256 448S768.064 584.384 703.36 617.024c-15.808 8-35.008 1.6-42.944-14.208s-1.6-35.008 14.208-43.008c42.944-21.632 69.632-64.448 69.632-111.808s-26.688-90.176-69.632-111.808zM630.592 80.704c3.008-15.296 16.384-25.856 31.36-25.856 2.048 0 4.096.192 6.208.576C855.808 92.032 992 257.152 992 448S855.808 803.968 668.096 840.576c-17.024 3.456-34.176-7.936-37.504-25.28-3.392-17.344 7.936-34.176 25.28-37.568C813.568 747.008 928 608.32 928 448S813.568 148.992 655.872 118.272c-17.344-3.392-28.672-20.224-25.28-37.568z"/><glyph unicode="{" glyph-name="icon_quotations" data-tags="icon_quotations" d="M255.936 540.224c0-54.08 42.24-97.92 94.272-97.92 16.704 0 32.128 4.864 45.76 12.8-4.672-52.352-31.04-128.704-127.68-206.528-13.504-10.944-16-31.168-5.504-45.184 6.144-8.192 15.296-12.48 24.512-12.48 6.656 0 13.312 2.176 19.008 6.784 118.592 95.68 148.224 193.984 152.192 259.648 6.784 83.968-18.688 128.128-41.984 151.168-2.112 2.24-4.096 4.672-6.464 6.656-5.568 4.736-10.56 8.064-14.912 10.56-.192.128-.32.32-.512.384-.32.192-.64.256-.96.384-6.336 3.52-10.88 5.184-10.88 5.184l.32-.768c-10.304 4.224-21.12 7.232-32.896 7.232-52.096 0-94.272-43.84-94.272-97.92zm310.272 0c0-54.08 42.176-97.92 94.272-97.92 16.704 0 32.128 4.864 45.76 12.8-4.672-52.352-31.04-128.704-127.68-206.528-13.568-10.944-16-31.168-5.504-45.184 6.144-8.192 15.296-12.48 24.512-12.48 6.656 0 13.312 2.176 19.008 6.784C735.168 293.376 764.8 391.68 768.768 457.344c6.784 83.968-18.752 128.128-41.984 151.168-2.176 2.24-4.16 4.672-6.528 6.656-5.568 4.736-10.56 8.064-14.912 10.56-.192.128-.32.256-.512.384-.32.192-.64.256-.96.384-6.336 3.456-10.88 5.184-10.88 5.184l.32-.768c-10.304 4.224-21.184 7.232-32.896 7.232-52.032 0-94.208-43.84-94.208-97.92z"/><glyph unicode="|" glyph-name="icon_quotations_alt2" data-tags="icon_quotations_alt2" d="M512 960C229.248 960 0 730.752 0 448S229.248-64 512-64s512 229.248 512 512-229.248 512-512 512zm0-960C264.96 0 64 200.96 64 448s200.96 448 448 448 448-200.96 448-448S759.04 0 512 0zM410.048 615.168c-5.568 4.736-10.56 8.064-14.912 10.56-.192.128-.32.32-.512.384-.32.192-.64.256-.96.384-6.336 3.52-10.88 5.184-10.88 5.184l.32-.768c-10.304 4.224-21.12 7.232-32.896 7.232-52.096 0-94.272-43.84-94.272-97.92s42.24-97.92 94.272-97.92c16.704 0 32.128 4.864 45.76 12.8-4.672-52.352-31.04-128.704-127.68-206.528-13.504-10.944-16-31.168-5.504-45.184 6.144-8.192 15.296-12.48 24.512-12.48 6.656 0 13.312 2.176 19.008 6.784 118.592 95.68 148.224 193.984 152.192 259.648 6.784 83.968-18.688 128.128-41.984 151.168-2.112 2.24-4.096 4.672-6.464 6.656zm310.272 0c-5.568 4.736-10.56 8.064-14.912 10.56-.192.128-.32.256-.512.384-.32.192-.64.256-.96.384-6.336 3.456-10.88 5.184-10.88 5.184l.32-.768c-10.304 4.224-21.184 7.232-32.896 7.232-52.096 0-94.272-43.84-94.272-97.92s42.176-97.92 94.272-97.92c16.704 0 32.128 4.864 45.76 12.8-4.672-52.352-31.04-128.704-127.68-206.528-13.568-10.944-16-31.168-5.504-45.184 6.144-8.192 15.296-12.48 24.512-12.48 6.656 0 13.312 2.176 19.008 6.784C735.168 293.376 764.8 391.68 768.768 457.344c6.784 83.968-18.752 128.128-41.984 151.168-2.112 2.24-4.096 4.672-6.464 6.656z"/><glyph unicode="}" glyph-name="icon_clock_alt" data-tags="icon_clock_alt" d="M736 448H576v224.448c0 17.664-14.336 32-32 32s-32-14.336-32-32V415.999c0-17.664 14.336-32 32-32h192c17.664 0 32 14.336 32 32s-14.336 32-32 32zM544 896C278.911 896 64 681.089 64 416S278.914-64 544-64s480 214.914 480 480-214.914 480-480 480zm0-896C314.624 0 128 186.624 128 416s186.624 416 416 416 416-186.624 416-416S773.376 0 544 0z"/><glyph unicode="~" glyph-name="icon_lock_alt" data-tags="icon_lock_alt" d="M512 960c-176.704 0-320-145.472-320-324.928V576h-64c-35.328 0-64-28.672-64-64V0c0-35.328 28.672-64 64-64h768c35.328 0 64 28.672 64 64v512c0 35.328-28.672 64-64 64h-64v59.072C832 814.528 688.704 960 512 960zM256 635.072C256 778.944 370.816 896 512 896s256-117.056 256-260.928V576H256v59.072zM896 0H128v512h768V0zM640 256c0 70.72-57.28 128-128 128s-128-57.28-128-128 57.28-128 128-128 128 57.28 128 128zm-128-64c-35.264 0-64 28.736-64 64s28.736 64 64 64 64-28.736 64-64-28.736-64-64-64z"/><glyph unicode="" glyph-name="icon_lock-open_alt" data-tags="icon_lock-open_alt" d="M960 0v512c0 35.328-28.672 64-64 64H255.68l.32 27.136C256 775.552 362.496 896 515.072 896c111.68 0 211.2-64.192 259.776-167.552 7.488-16 26.496-22.848 42.56-15.296 16 7.488 22.848 26.56 15.296 42.56C773.504 881.664 651.84 960 515.072 960 327.872 960 192 809.92 192 603.52l-.32-27.52H128c-35.328 0-64-28.672-64-64V0c0-35.328 28.672-64 64-64h768c35.328 0 64 28.672 64 64zM128 512h768V0H128v512zm384-128c-70.72 0-128-57.28-128-128s57.28-128 128-128 128 57.28 128 128-57.28 128-128 128zm0-192c-35.264 0-64 28.736-64 64s28.736 64 64 64 64-28.736 64-64-28.736-64-64-64z"/><glyph unicode="" glyph-name="icon_key_alt" data-tags="icon_key_alt" d="M352 160c0 19.008-4.096 37.376-12.16 54.464C318.848 259.136 273.344 288 224 288c-70.592 0-128-57.408-128-128 0-12.608 2.368-24.512 5.76-36.032C123.2 88.64 152.64 59.2 187.968 37.76 199.488 34.368 211.392 32 224 32c70.592 0 128 57.408 128 128zm-128 64c24.704 0 47.424-14.464 57.984-36.8 3.968-8.512 6.016-17.664 6.016-27.2 0-35.264-28.736-64-64-64s-64 28.736-64 64 28.736 64 64 64zm768 736H853.504c-7.552 0-14.848-2.688-20.672-7.552l-453.12-382.656C358.848 573.952 339.2 576 320 576 143.552 576 0 432.448 0 256S143.552-64 320-64 640 79.552 640 256c0 33.664-5.376 66.944-16 99.2l97.408 63.296c9.088 5.888 14.592 16 14.592 26.816V561.6l121.664 6.4c15.872.832 28.672 13.184 30.144 28.992l11.648 123.264 106.304 50.816c11.2 5.376 18.24 16.64 18.24 28.928v128c0 17.664-14.336 32-32 32zm-32-139.84l-104.448-49.92c-10.112-4.864-17.024-14.656-18.048-25.856l-10.752-113.856L702.336 624C685.312 623.04 672 609.024 672 592V462.72l-104.448-67.904c-12.992-8.448-18.112-25.024-12.032-39.296C569.152 323.456 576 289.984 576 256 576 114.816 461.184 0 320 0c-48.448 0-93.312 14.272-132.032 37.76C152.64 59.2 123.2 88.64 101.76 123.968 78.272 162.688 64 207.552 64 256c0 141.184 114.816 256 256 256 18.88 0 38.72-2.624 60.672-7.936 9.92-2.432 20.416 0 28.224 6.656L865.216 896H960v-75.84z"/><glyph unicode="" glyph-name="icon_cloud_alt" data-tags="icon_cloud_alt" d="M832 512c-2.24 0-4.352-.576-6.528-.64C829.76 532.224 832 553.856 832 576c0 176.704-143.296 320-320 320S192 752.704 192 576c0-1.088.32-2.112.32-3.2C83.776 557.312 0 464.832 0 352c0-112.768 83.584-205.12 192-220.8V128h640c106.048 0 192 85.952 192 192s-85.952 192-192 192zm0-320H212.096c-3.52 1.152-7.168 2.048-10.944 2.56C122.944 205.824 64 273.536 64 352c0 78.592 59.072 146.24 137.344 157.44 31.808 4.544 55.296 31.936 54.976 64 0 1.92-.128 3.84-.32 5.696C257.728 718.912 371.904 832 512 832c141.184 0 256-114.816 256-256 0-17.408-1.792-34.816-5.248-51.776-3.968-19.2 1.152-39.168 13.824-54.144 12.16-14.4 30.08-22.656 48.896-22.656.768 0 1.472 0 2.24.064 1.408-.064 4.416.192 6.912.512C904 446.592 960 389.696 960 320c0-70.592-57.408-128-128-128z"/><glyph unicode="" glyph-name="icon_cloud-upload_alt" data-tags="icon_cloud-upload_alt" d="M833.664 512.064c-2.752 0-5.44 0-8.064-.064 4.224 21.056 6.4 42.56 6.4 64 0 176.448-143.552 320-320 320-176.32 0-320-142.144-320.192-316.736 0-.064.512-6.464.512-6.464C82.688 557.12 0 462.208 0 352c0-111.744 80.512-207.872 192-224h160c17.664 0 32 14.336 32 32s-14.336 32-32 32l-155.328-.32C122.304 202.624 64 273.088 64 352c0 78.592 59.008 146.24 137.344 157.44l27.52 3.968c15.744 2.24 27.456 15.744 27.456 31.68l-.512 34.048C256 718.592 370.88 832 512 832c141.184 0 256-114.816 256-256 0-17.344-1.728-34.816-5.248-51.776l-8.448-40.704c-2.112-10.176.896-20.672 7.936-28.288 7.04-7.552 17.152-11.456 27.648-9.856.704.064 20.736 2.688 43.776 2.688C903.36 448.064 960 390.656 960 320c0-70.592-57.408-128-128-128H608c-89.6 0-95.68 53.696-96 64v212.352l75.712-75.648c12.48-12.48 32.768-12.48 45.248 0s12.48 32.768 0 45.248L504.192 566.656c-6.272 6.272-14.528 9.344-22.784 9.344-.512 0-.896.256-1.408.256-9.216 0-17.344-3.968-23.168-10.176L327.936 437.312c-12.48-12.48-12.48-32.768 0-45.248s32.768-12.48 45.248 0L448 466.816V256c0-44.224 33.408-128 160-128h224c105.856 0 192 86.144 192 192s-85.376 192.064-190.336 192.064z"/><glyph unicode="" glyph-name="icon_cloud-download_alt" data-tags="icon_cloud-download_alt" d="M837.312 512c59.776 137.28 22.912 224.576-7.104 266.624-45.568 63.808-128.576 98.816-201.472 84.8C502.016 839.232 448 753.344 448 576V427.904l-74.112 74.112c-12.48 12.48-32.768 12.48-45.248 0s-12.48-32.768 0-45.248l128.768-128.704c6.464-6.464 14.976-9.408 23.424-9.216 8.448-.192 16.96 2.752 23.424 9.216l129.408 129.344c12.48 12.48 12.48 32.768 0 45.248s-32.768 12.48-45.248 0L512 426.304V576c0 184.576 63.552 212.096 128.64 224.576 41.792 7.68 102.272-9.856 137.408-59.136 43.008-60.096 34.752-149.248-23.232-250.88-6.144-10.816-5.504-24.192 1.664-34.304s19.776-15.232 31.744-13.056c7.744 1.344 30.848 4.864 45.44 4.864C903.36 448.064 960 390.656 960 320c0-70.592-57.408-128-128-128l-635.328-.384C122.304 202.624 64 273.088 64 352c0 78.592 59.008 146.24 137.344 157.44l27.52 3.968c15.744 2.24 27.456 15.744 27.456 31.68l-.512 34.048C256 693.76 326.656 787.968 424 803.136c17.408 2.752 29.376 19.072 26.688 36.544-2.752 17.472-18.688 29.312-36.608 26.688-128.64-20.032-222.08-140.8-222.272-287.104 0-.064.512-6.464.512-6.464C82.688 557.12 0 462.208 0 352c0-111.744 80.512-207.872 192-224h640c105.856 0 192 86.144 192 192 0 104.704-83.456 190.08-186.688 192z"/><glyph unicode="" glyph-name="icon_image" data-tags="icon_image" d="M551.296 649.984c0-49.167 39.857-89.024 89.024-89.024s89.024 39.857 89.024 89.024-39.857 89.024-89.024 89.024-89.024-39.857-89.024-89.024zM832 128h64v384L640 320 320 576 128 384V128h64zm128 768H64c-35.328 0-64-28.672-64-64V64C0 28.672 28.672 0 64 0h896c35.328 0 64 28.672 64 64v768c0 35.328-28.672 64-64 64zm0-832H64v768h896V64z"/><glyph unicode="" glyph-name="icon_images" data-tags="icon_images" d="M960 768h-64v128c0 35.328-28.672 64-64 64H64c-35.328 0-64-28.672-64-64V192c0-35.328 28.672-64 64-64h64V0c0-35.328 28.672-64 64-64h768c35.328 0 64 28.672 64 64v704c0 35.328-28.672 64-64 64zM64 192v704h768V192H64zM960 0H192v128h64V64h640v640h64V0zM473.28 697.984c0-49.167 39.857-89.024 89.024-89.024s89.024 39.857 89.024 89.024-39.857 89.024-89.024 89.024-89.024-39.857-89.024-89.024zM320 640L128 512V256h640v320L512 448z"/><glyph unicode="" glyph-name="icon_lightbulb_alt" data-tags="icon_lightbulb_alt" d="M512 960c-211.712 0-384-172.288-384-384 0-123.776 60.16-240.64 161.024-312.64a74.718 74.718 0 0 1 4.736-3.072c23.424-13.76 25.728-58.112 25.216-66.24-.064-1.344-.128-2.688-.128-3.968V64a63.872 63.872 0 0 1 34.88-56.96L482.88-58.944c9.152-4.672 19.136-7.04 29.12-7.04 9.92 0 19.776 2.304 28.864 6.848L671.552 6.848c21.568 10.88 35.136 32.96 35.136 57.152v125.312c0 63.168 38.592 84.032 38.976 84.224 5.12 2.368 9.856 5.44 14.144 9.088C846.336 355.84 896 462.72 896 576c0 211.712-172.288 384-384 384zM382.848 190.016s0 1.28.064 1.984H642.88c0-.96-.256-1.664-.256-2.688V128H382.848v62.016zM512-1.984L382.912 64h259.776L512-1.984zM718.464 331.52s-42.88-20.16-64.128-75.52H372.608c-7.936 22.144-21.696 44.928-46.4 59.456C244.992 373.44 192 468.544 192 576c0 176.704 143.296 320 320 320s320-143.296 320-320c0-98.048-44.096-185.792-113.536-244.48zM544 832c-17.664 0-32-14.336-32-32s14.336-32 32-32c72 0 160-65.472 160-163.008 0-17.664 14.336-32 32-32s32 14.336 32 32C768 750.976 654.016 832 544 832z"/><glyph unicode="" glyph-name="icon_gift_alt" data-tags="icon_gift_alt" d="M960 704H64c-35.328 0-64-28.672-64-64V448h64V0c0-35.328 28.672-64 64-64h768c35.328 0 64 28.672 64 64v448h64v192c0 35.328-28.672 64-64 64zM64 640h384V512H64v128zM128 0v448h320V0H128zm768 0H577.344v448H896V0zm64 512H577.344v128H960V512zM512 768c0 .128-.064.384-.064.512h.192A1.506 1.506 0 0 1 512 768h256c88.384 0 128 43.008 128 96s-39.616 96-128 96c-82.752 0-147.904-37.248-192-80.448-19.328 11.456-41.664 18.432-65.856 18.432-23.168 0-44.608-6.528-63.424-17.152C402.688 923.52 337.92 960 256 960c-88.384 0-128-43.008-128-96s39.616-96 128-96h256zm320 96c0-26.432-34.816-32-64-32H622.656c-.512.896-.96 1.856-1.472 2.688C653.696 866.304 702.976 896 768 896c29.184 0 64-5.568 64-32zm-640 0c0 26.432 34.816 32 64 32 63.616 0 111.872-28.48 144.384-59.008-1.024-1.6-1.792-3.328-2.752-4.992H256c-29.184 0-64 5.568-64 32z"/><glyph unicode="" glyph-name="icon_house_alt" data-tags="icon_house_alt" d="M51.968 454.976l76.032 60.8V64c0-35.328 28.672-64 64-64h192c35.328 0 64 28.672 64 64v256h128V64c0-35.328 28.672-64 64-64h192c35.328 0 64 28.672 64 64v451.776l76.032-60.8A32.02 32.02 0 0 1 992 448c9.408 0 18.688 4.096 25.024 12.032 11.008 13.824 8.768 33.92-4.992 44.992l-480 384a32.043 32.043 0 0 1-40 0L320 751.424V832c0 35.328-28.672 64-64 64s-64-28.672-64-64V649.024l-179.968-144c-13.76-11.072-16-31.168-4.992-44.992s31.104-16.064 44.928-5.056zM512 823.04l320-256V64H640v320H384V64H192v502.976L512 823.04z"/><glyph unicode="" glyph-name="icon_genius" data-tags="icon_genius" d="M81.408 171.008c15.36-23.872 47.616-52.288 114.176-52.288 41.856 0 95.424 12.224 155.072 33.536C376.448 38.592 423.872-64 512-64c89.6 0 137.216 106.112 162.688 222.144 59.776-20.224 113.536-31.872 155.584-31.872 70.4 0 103.424 29.952 118.784 55.04 49.664 81.408-27.84 184.768-121.408 270.208 17.28 16.64 33.536 33.28 47.808 49.472 80.896 92.096 103.488 167.424 67.136 224-15.36 23.872-47.616 52.288-114.176 52.288-41.856 0-95.424-12.224-155.072-33.536C647.552 857.408 600.128 960 512 960c-89.6 0-137.216-106.112-162.688-222.144-59.776 20.288-113.536 31.872-155.584 31.872-70.4 0-103.488-29.952-118.784-55.04C25.28 633.28 102.784 529.92 196.352 444.48c-17.28-16.704-33.536-33.28-47.808-49.472-80.896-92.096-103.488-167.488-67.136-224zM512 0c-41.408 0-78.144 69.184-101.568 176 33.664 14.528 68.48 31.488 104.128 50.88 34.176-17.536 67.584-32.832 99.968-46.144C591.232 71.232 554.048 0 512 0zM384 448c0 23.488.704 46.4 1.664 68.928 18.432 13.056 37.312 25.984 57.088 38.72 22.72 14.592 45.184 28.032 67.456 40.832 22.592-12.288 45.376-25.152 68.416-39.168 20.608-12.608 40.384-25.472 59.584-38.4C639.296 495.744 640 472.192 640 448c0-23.488-.704-46.4-1.664-68.928-18.432-13.056-37.312-25.984-57.088-38.72-22.72-14.592-45.184-28.032-67.456-40.832-22.592 12.288-45.376 25.152-68.416 39.168-20.608 12.608-40.384 25.472-59.584 38.4C384.704 400.256 384 423.808 384 448zm-63.68-24.064c-9.408 7.168-18.624 14.336-27.456 21.44 8.832 7.488 17.984 14.976 27.328 22.464-.128-8.576-.192-15.808-.192-19.84 0-4.672.128-13.504.32-24.064zm71.168 174.208c1.856 18.176 4.032 35.776 6.528 52.8 14.592-6.208 29.504-13.056 44.736-20.224-11.52-7.04-23.04-13.76-34.624-21.184-5.76-3.776-10.944-7.68-16.64-11.392zM576.96 632.32c16.512 8.32 32.64 16.064 48.448 23.168 2.688-18.112 4.992-36.992 6.976-56.384-8.896 5.696-16.384 10.368-20.352 12.8-11.712 7.168-23.424 13.632-35.072 20.416zm126.72-160.256c9.408-7.168 18.624-14.336 27.456-21.44-8.832-7.488-17.984-14.912-27.392-22.464.192 8.576.256 15.808.256 19.84 0 4.672-.128 13.504-.32 24.064zm-71.168-174.208c-1.856-18.176-3.968-35.84-6.464-52.8-14.592 6.208-29.568 13.056-44.736 20.224 11.52 7.04 23.04 13.76 34.624 21.184 5.696 3.776 10.88 7.68 16.576 11.392zm-220.544-13.76c11.712-7.168 23.36-13.632 35.072-20.416-16.512-8.32-32.64-16.064-48.448-23.168-2.688 18.048-4.992 36.928-6.976 56.384 8.896-5.632 16.384-10.368 20.352-12.8zm482.432-69.44c-10.112-16.512-32.512-24.384-64.128-24.384-36.928 0-86.784 11.264-143.616 31.232 6.784 43.904 11.008 86.784 13.504 123.392 28.608 21.12 55.04 42.496 80.064 64 90.304-81.984 137.28-156.416 114.176-194.24zM828.416 713.28c29.312 0 50.368-7.36 60.352-22.912 24-37.312-21.312-112.896-109.76-197.056-27.52 22.4-54.656 42.88-79.104 60.224-2.624 37.76-6.976 81.792-14.208 126.784 56.768 21.056 106.368 32.96 142.72 32.96zM512 896c41.408 0 78.144-69.184 101.568-176-33.664-14.528-68.48-31.488-104.128-50.88-34.24 17.536-67.648 32.896-99.968 46.144C432.768 824.768 469.952 896 512 896zM129.6 681.344c10.112 16.512 32.512 24.384 64.128 24.384 36.928 0 86.784-11.264 143.616-31.232-6.848-43.904-11.008-86.72-13.504-123.392-28.608-21.12-55.04-42.496-80.064-64-90.304 81.984-137.28 156.416-114.176 194.24zm194.432-338.816c2.624-37.76 6.976-81.792 14.208-126.784-56.704-21.056-106.304-32.96-142.656-32.96-29.312 0-50.368 7.36-60.352 22.912-24 37.312 21.312 112.896 109.76 197.056 27.456-22.4 54.592-42.944 79.04-60.224z"/><glyph unicode="" glyph-name="icon_mobile" data-tags="icon_mobile" d="M768-64c35.328 0 64 28.672 64 64v896c0 35.328-28.672 64-64 64H320c-35.328 0-64-28.672-64-64V0c0-35.328 28.672-64 64-64h448zM512 35.968c0 19.904 16.128 35.968 35.968 35.968s35.968-16.128 35.968-35.968S567.872 0 547.968 0 512 16.128 512 35.968zM672 896c17.664 0 32-14.336 32-32s-14.336-32-32-32h-64c-17.664 0-32 14.336-32 32s14.336 32 32 32h64zm-160-32c0-17.664-14.336-32-32-32s-32 14.336-32 32 14.336 32 32 32 32-14.336 32-32zm-192-96h448V128H320v640z"/><glyph unicode="" glyph-name="icon_tablet" data-tags="icon_tablet" d="M832-64c35.328 0 64 28.672 64 64v896c0 35.328-28.672 64-64 64H192c-35.328 0-64-28.672-64-64V0c0-35.328 28.672-64 64-64h640zM512-35.968c-19.904 0-35.968 16.128-35.968 35.968S492.096 35.968 512 35.968 547.968 19.904 547.968 0 531.904-35.968 512-35.968zM256 832h512V64H256v768z"/><glyph unicode="" glyph-name="icon_laptop" data-tags="icon_laptop" d="M990.976 192H960v576c0 35.328-28.672 64-64 64H128c-35.328 0-64-28.672-64-64V192H33.024C14.784 192 0 177.664 0 160s14.784-32 33.024-32h957.952c18.24 0 33.024 14.336 33.024 32s-14.784 32-33.024 32zM896 768V258.688H128V768h768z"/><glyph unicode="" glyph-name="icon_desktop" data-tags="icon_desktop" d="M960 896H64c-35.328 0-64-28.672-64-64V256c0-35.328 28.672-64 64-64h319.936c-.128-46.272-1.984-106.368-19.52-128h-12.928C334.08 64 320 49.664 320 32s14.08-32 31.488-32h320.96C689.92 0 704 14.336 704 32s-14.08 32-31.488 32h-12.928c-17.6 21.632-19.392 81.728-19.52 128H960c35.328 0 64 28.672 64 64v576c0 35.328-28.672 64-64 64zM448 192l-.064-.128c0 .064 0 .064.064.128zm128.064-.128L576 192h.064v-.128zM960 320H64v512h896V320z"/><glyph unicode="" glyph-name="icon_camera_alt" data-tags="icon_camera_alt" d="M960 704H832s-36.992 0-64 64c-13.76 32.576-28.672 64-64 64H448c-35.328 0-50.688-31.232-64-64-25.984-64-64-64-64-64h-64c0 35.328-28.672 64-64 64h-64c-35.328 0-64-28.672-64-64-35.328 0-64-28.672-64-64V128c0-35.328 28.672-64 64-64h896c35.328 0 64 28.672 64 64v512c0 35.328-28.672 64-64 64zm0-576H64v256h291.2C370.88 275.584 463.232 192 576 192c115.52 0 209.472 87.744 221.568 200H960V128zM416 416c0 88.256 71.808 160 160 160s160-71.744 160-160c0-88.192-71.808-160-160-160s-160 71.808-160 160zm380.8 32C781.12 556.416 688.768 640 576 640s-205.12-83.584-220.8-192H64v192h256c37.376 0 92.16 27.2 123.264 103.936 5.312 12.992 8.896 20.16 11.264 24.064h242.688c4.288-7.04 9.792-20.032 11.84-24.896C750.464 644.992 818.752 640 832 640h128V448H796.8zM128 543.36c0-17.673 14.327-32 32-32s32 14.327 32 32c0 17.673-14.327 32-32 32s-32-14.327-32-32z"/><glyph unicode="" glyph-name="icon_mail_alt" data-tags="icon_mail_alt" d="M960 832H64c-35.328 0-64-28.672-64-64V128c0-35.328 28.672-64 64-64h896c35.328 0 64 28.672 64 64v640c0 35.328-28.672 64-64 64zM363.52 382.272L512.128 281.28 659.84 382.976 914.752 128H109.248L363.52 382.272zM64 173.248V585.92l245.632-166.976L64 173.248zM713.408 419.84L960 589.568v-416.32L713.408 419.84zM960 768V664.448l-1.344 1.92L511.872 358.72 64 663.232V768h896z"/><glyph unicode="" glyph-name="icon_cone_alt" data-tags="icon_cone_alt" d="M798.912 320l-24.256 64H249.344l-24.256-64L128 64h768l-97.088 256zm-505.344 0h436.928l72.832-192H220.736l72.832 192zm364.096 192h68.48l-24.256 64-130.176 343.104C562.176 943.744 538.432 960 512 960s-50.176-16.256-59.712-40.896L297.92 512h359.744zM512 896l121.344-320H390.656L512 896zM991.488 0H32.512C14.528 0 0-13.568 0-31.488S14.528-64 32.512-64h958.976C1009.472-64 1024-49.472 1024-31.488S1009.472 0 991.488 0z"/><glyph unicode="" glyph-name="icon_ribbon_alt" data-tags="icon_ribbon_alt" d="M167.488-59.136A64.385 64.385 0 0 1 192-64a64.022 64.022 0 0 1 45.248 18.752L512 229.504 786.752-45.248A64.022 64.022 0 0 1 832-64a63.83 63.83 0 0 1 24.448 4.864C880.384-49.216 896-25.856 896 0v896c0 35.328-28.672 64-64 64H192c-35.328 0-64-28.672-64-64V0c0-25.856 15.616-49.216 39.488-59.136zM512 320L192 0v704h640V0L512 320zm320 576V768H192v128h640z"/><glyph unicode="" glyph-name="icon_bag_alt" data-tags="icon_bag_alt" d="M192-64h640c35.328 0 64 28.672 64 64v704c0 35.328-28.672 64-64 64H703.68C702.144 874.304 617.024 960 512 960s-190.144-85.696-191.68-192H192c-35.328 0-64-28.672-64-64V0c0-35.328 28.672-64 64-64zm640 768V0H192v704h640zM512 896c69.568 0 126.144-57.152 127.68-128H384.32c1.536 70.848 58.112 128 127.68 128zm-96-320h192c17.664 0 32 14.336 32 32s-14.336 32-32 32H416c-17.664 0-32-14.336-32-32s14.336-32 32-32z"/><glyph unicode="" glyph-name="icon_creditcard" data-tags="icon_creditcard" d="M960 832H64c-35.328 0-64-28.672-64-64V128c0-35.328 28.672-64 64-64h896c35.328 0 64 28.672 64 64v640c0 35.328-28.672 64-64 64zm0-704H64v384h896V128zM64 637.312V768h896V637.312H64zM160 192h320c17.664 0 32 14.336 32 32s-14.336 32-32 32H160c-17.664 0-32-14.336-32-32s14.336-32 32-32zm416 32c0-17.673 14.327-32 32-32s32 14.327 32 32c0 17.673-14.327 32-32 32s-32-14.327-32-32zm128 0c0-17.673 14.327-32 32-32s32 14.327 32 32c0 17.673-14.327 32-32 32s-32-14.327-32-32zm128 0c0-17.673 14.327-32 32-32s32 14.327 32 32c0 17.673-14.327 32-32 32s-32-14.327-32-32z"/><glyph unicode="" glyph-name="icon_cart_alt" data-tags="icon_cart_alt" d="M192 64c0-35.346 28.654-64 64-64s64 28.654 64 64c0 35.346-28.654 64-64 64s-64-28.654-64-64zm576 0c0-35.346 28.654-64 64-64s64 28.654 64 64c0 35.346-28.654 64-64 64s-64-28.654-64-64zM-1.856 864c0-17.664 14.336-32 32-32H96.64l39.744-169.984L192 384c0-2.304 1.088-4.288 1.344-6.528l-32.576-146.56a31.897 31.897 0 0 1 6.272-26.944C173.12 196.352 182.272 192 192 192h726.016c17.664 0 32 14.336 32 32s-14.336 32-32 32h-686.08l14.656 65.92c3.2-.512 6.08-1.92 9.408-1.92h583.36c35.328 0 56.64 6.976 73.664 48l103.936 318.848C1035.008 744 995.392 768 960 768H192c-4.992 0-9.344-1.728-14.016-2.816l-24.832 106.112A31.98 31.98 0 0 1 121.984 896h-91.84c-17.728 0-32-14.336-32-32zM193.28 704H955.2L853.056 390.464c-1.216-2.752-2.24-4.736-3.008-6.08-2.112-.192-5.44-.384-10.688-.384H256v6.336l-1.216 6.208L193.28 704z"/><glyph unicode="" glyph-name="icon_paperclip" data-tags="icon_paperclip" d="M450.432 736.704c-67.776 67.648-152.896 73.344-212.096 14.144-59.2-59.136-53.568-144.384 14.08-212.096l366.336-366.336c12.48-12.48 32.768-12.48 45.248 0s12.48 32.768 0 45.248L297.664 584c-32.832 32.832-53.76 81.984-14.144 121.6 39.552 39.616 88.768 18.624 121.6-14.208L812.416 284.16c116.8-116.928 145.92-170.816 76.352-240.448-70.4-70.336-145.024-52.928-257.408 59.392L178.88 555.712C105.792 628.8 54.592 748.16 150.656 844.16c114.048 114.048 244.288 1.92 281.408-35.264l415.744-415.808c12.48-12.48 32.768-12.48 45.248 0s12.48 32.768 0 45.248L477.312 854.144C351.616 979.84 209.088 993.28 105.344 889.408.512 784.64 11.84 632.32 133.632 510.464L586.176 57.92C624.64 19.456 707.008-62.848 801.728-62.848c42.56 0 87.68 16.704 132.352 61.376 127.168 127.232 9.536 244.992-76.352 330.944L450.432 736.704z"/><glyph unicode="" glyph-name="icon_tag_alt" data-tags="icon_tag_alt" d="M993.856 959.68h-1.728c-.512 0-.96.064-1.472 0H588.288c-9.792-.448-32.064-15.744-34.944-18.624L82.688 470.4c-24.96-24.96-24.96-65.408 0-90.368L444.032 18.688C456.576 6.208 472.896 0 489.216 0S521.92 6.208 534.4 18.688l470.656 470.656c2.88 2.88 18.944 22.656 18.944 34.944v403.648c.896 17.856-12.608 31.744-30.144 31.744zM960 536.256c-.96-1.472-1.92-3.008-2.816-4.224L489.28 64 127.936 425.152l468.032 468.032c1.28.896 2.752 1.856 4.288 2.816H960V536.256zM832 800c0-17.673 14.327-32 32-32s32 14.327 32 32c0 17.673-14.327 32-32 32s-32-14.327-32-32z"/><glyph unicode="" glyph-name="icon_tags_alt" data-tags="icon_tags_alt" d="M930.56 960H588.992c-9.792-.512-32.064-15.808-34.944-18.688l-407.36-407.296c-24.96-24.96-24.96-65.408 0-90.368l50.816-50.816-50.816-50.816c-24.96-24.96-24.96-65.408 0-90.368L444.032-45.696c12.48-12.48 28.8-18.688 45.184-18.688 16.32 0 32.704 6.208 45.184 18.688l407.296 407.36c2.944 2.88 18.304 22.592 18.304 34.88v531.648c.896 17.856-11.904 31.808-29.44 31.808zm-33.856-552.64c-.192-.32-.32-.512-.256-.512L489.28-.512 191.936 296.704l50.816 50.816 201.28-201.28c12.48-12.48 28.8-18.688 45.184-18.688 16.32 0 32.704 6.208 45.184 18.688l362.304 362.304V407.36zm0 296.64V599.36c-.192-.32-.32-.512-.256-.512L489.28 191.488 191.936 488.704l404.608 404.544c1.216.896 2.688 1.856 4.16 2.752h296V704zm-128 96.256c0-17.673 14.327-32 32-32s32 14.327 32 32c0 17.673-14.327 32-32 32s-32-14.327-32-32z"/><glyph unicode="" glyph-name="icon_trash_alt" data-tags="icon_trash_alt" d="M832 896H704c0 35.328-28.672 64-64 64H448c-35.328 0-64-28.672-64-64H256c-35.328 0-64-28.672-64-64h704c0 35.328-28.672 64-64 64zM192 0c0-35.328 28.672-64 64-64h576c35.328 0 64 28.672 64 64v768H192V0zm64 704h576V0H256v704zm96-64c-17.664 0-32-14.336-32-32V96c0-17.664 14.336-32 32-32s32 14.336 32 32v512c0 17.664-14.336 32-32 32zm192 0c-17.664 0-32-14.336-32-32V96c0-17.664 14.336-32 32-32s32 14.336 32 32v512c0 17.664-14.336 32-32 32zm192 0c-17.664 0-32-14.336-32-32V96c0-17.664 14.336-32 32-32s32 14.336 32 32v512c0 17.664-14.336 32-32 32z"/><glyph unicode="" glyph-name="icon_cursor_alt" data-tags="icon_cursor_alt" d="M314.496 948.608c-8.704 10.304-22.848 14.08-35.456 9.472s-21.056-16.64-21.056-30.08V92.992a31.998 31.998 0 0 1 21.952-30.4c3.264-1.088 6.656-1.6 10.048-1.6 9.92 0 19.52 4.608 25.664 12.928l143.104 192.768L558.016-17.28c12.736-36.352 52.544-55.552 88.896-42.816S702.464-7.552 689.728 28.8L592.32 307.392l223.872-43.328c13.376-2.688 26.816 3.52 33.664 15.168 6.848 11.712 5.632 26.432-3.136 36.8L314.496 948.608zM494.4 391.616c-12.096 2.432-24.448-2.432-31.744-12.352l-140.608-189.44v650.432l417.536-496.128L494.4 391.616z"/><glyph unicode="" glyph-name="icon_mic_alt" data-tags="icon_mic_alt" d="M448 134.144V0h-96c-17.664 0-32-14.336-32-32s14.336-32 32-32h320c17.664 0 32 14.336 32 32S689.664 0 672 0h-96v134.528C709.312 160.832 832 268.736 832 448v96c0 17.664-14.336 32-32 32s-32-14.336-32-32v-96c0-168.064-128.832-256-256-256-123.328 0-256 80.128-256 256v96c0 17.664-14.336 32-32 32s-32-14.336-32-32v-96c0-181.76 120.512-288.384 256-313.856zM512 256c105.856 0 192 86.144 192 192v320c0 105.856-86.144 192-192 192s-192-86.144-192-192V448c0-105.856 86.144-192 192-192zM384 768c0 70.72 57.28 128 128 128s128-57.28 128-128V448c0-70.72-57.28-128-128-128s-128 57.28-128 128v320z"/><glyph unicode="" glyph-name="icon_compass_alt" data-tags="icon_compass_alt" d="M512 960C229.248 960 0 730.752 0 448S229.248-64 512-64s512 229.248 512 512-229.248 512-512 512zm0-960C264.96 0 64 200.96 64 448s200.96 448 448 448 448-200.96 448-448S759.04 0 512 0zm207.04 699.136L520.384 575.168c63.872-4.224 114.56-54.848 118.784-118.784L763.136 655.04c7.936 12.608 6.08 29.056-4.48 39.552-10.624 10.624-27.136 12.416-39.616 4.544zm-334.208-259.52l-123.968-198.72c-7.936-12.608-6.08-29.056 4.48-39.552A32.193 32.193 0 0 1 288 192c5.888 0 11.776 1.6 16.96 4.864l198.656 123.968c-63.872 4.224-114.56 54.912-118.784 118.784zm135.552 135.552c-2.816.192-5.504.832-8.384.832-70.72 0-128-57.28-128-128 0-2.88.64-5.568.832-8.384 4.224-63.872 54.912-114.56 118.784-118.784 2.816-.192 5.504-.832 8.384-.832 70.72 0 128 57.28 128 128 0 2.88-.64 5.568-.832 8.384-4.224 63.872-54.912 114.56-118.784 118.784zM448 448c0 35.264 28.736 64 64 64s64-28.736 64-64-28.736-64-64-64-64 28.736-64 64z"/><glyph unicode="" glyph-name="icon_pin_alt" data-tags="icon_pin_alt" d="M518.784 434.432c91.968 0 166.784 74.816 166.784 166.784S610.752 768 518.784 768 352 693.184 352 601.216c0-91.968 74.816-166.784 166.784-166.784zm0 269.568c56.64 0 102.784-46.08 102.784-102.784s-46.08-102.784-102.784-102.784S416 544.576 416 601.216 462.08 704 518.784 704zM495.488-46.656c5.376-5.952 10.56-9.792 15.552-12.48.064-.064.192-.064.256-.128 3.456-1.792 6.848-3.136 10.048-3.136s6.592 1.344 10.048 3.136c.064.064.192.064.256.128 4.992 2.688 10.176 6.528 15.552 12.48 0 0 297.472 323.52 327.36 603.84 1.792 14.464 3.008 29.12 3.008 44.032C877.568 799.36 716.928 960 518.784 960S160 799.36 160 601.216c0-15.168 1.216-29.952 3.072-44.608C193.728 276.416 495.488-46.656 495.488-46.656zM518.784 896c162.56 0 294.784-132.224 294.784-294.784 0-10.816-.768-22.336-2.624-37.248C788.032 349.184 586.368 97.152 521.408 20.48c-66.624 76.8-271.168 328.192-294.848 544-1.728 14.144-2.56 25.792-2.56 36.736C224 763.776 356.224 896 518.784 896z"/><glyph unicode="" glyph-name="icon_pushpin_alt" data-tags="icon_pushpin_alt" d="M278.08 391.296c-13.632-15.488-18.944-36.608-14.336-56.704s18.688-36.736 37.696-44.672c45.44-19.008 122.688-31.04 210.624-33.472 0-.128-.064-.256-.064-.448V64c0-35.328 14.336-128 32-128s32 92.672 32 128v192c0 .192-.064.32-.064.512 87.936 2.368 165.184 14.464 210.624 33.472 19.008 7.936 33.088 24.576 37.696 44.672s-.704 41.216-14.336 56.64c-26.24 29.76-72.064 46.208-105.92 54.784V777.6c33.472 11.328 61.888 25.536 84.352 42.112 19.2 14.144 28.928 37.888 25.216 61.44s-20.224 43.136-42.88 50.752C739.456 942.4 668.416 960 544 960c-131.52 0-204.16-20.288-229.312-28.992a63.976 63.976 0 0 1-42.24-50.56c-3.648-23.296 5.888-46.784 24.768-61.056 22.784-17.088 51.904-31.552 86.72-42.944H384V446.08c-33.792-8.512-79.68-24.96-105.92-54.784zm125.824 445.952c-33.408 10.944-55.104 23.424-68.224 33.344C369.728 882.368 438.656 896 544 896c103.296 0 171.712-13.12 206.4-24.768-13.568-9.984-35.072-22.208-66.944-33.024L640 823.488v-427.2l48.256-12.224c35.392-8.96 62.144-22.016 73.6-35.072C732.224 336.64 660.224 320 544 320s-188.224 16.64-217.856 28.992c11.52 13.056 38.272 26.112 73.6 35.072L448 396.288v426.56l-44.096 14.4z"/><glyph unicode="" glyph-name="icon_map_alt" data-tags="icon_map_alt" d="M973.888 830.464l-288 128A63.262 63.262 0 0 1 672 960c-4.16 0-8.384-.384-12.48-1.216L351.424 833.408 77.952 958.464A64.272 64.272 0 0 1 64 960a63.795 63.795 0 0 1-40-14.08C8.832 933.824 0 915.456 0 896V128c0-29.952 20.8-55.936 50.048-62.464l286.656-128A64.272 64.272 0 0 1 350.656-64c4.16 0 8.384.384 12.48 1.216L671.232 62.592 946.048-62.464A65.152 65.152 0 0 1 960-64c14.4 0 28.608 4.864 40.064 14.08C1015.168-37.76 1024-19.392 1024 0v768c0 30.016-20.864 56-50.112 62.464zM384 781.248L640 883.2v-768L384 13.248v768zM64 896l256-114.304v-768L64 128v768zM960 0L704 113.792v768L960 768V0z"/><glyph unicode="" glyph-name="icon_drawer_alt" data-tags="icon_drawer_alt" d="M809.984 896H208c-35.328 0-64-24-80-64L0 385.024V32C0 14.336 14.336 0 32 0h960c17.664 0 32 14.336 32 32v349.056L896 832c-17.984 40-50.624 64-86.016 64zM188.48 810.688C191.424 817.28 198.912 832 208 832h601.984c8.768 0 18.88-9.024 25.984-22.784L956.608 384H672c-17.664 0-32-14.336-32-32v-96H384v96c0 17.664-14.336 32-32 32H66.304L188.48 810.688zM960 64H64v256h256v-96c0-17.664 14.336-32 32-32h320c17.664 0 32 14.336 32 32v96h256V64z"/><glyph unicode="" glyph-name="icon_toolbox_alt" data-tags="icon_toolbox_alt" d="M960 768H704c0-35.328-28.672-64-64-64h320V576H640c35.328 0 64-28.672 64-64h256V128H64v384h256c0 35.328 28.672 64 64 64H64v128h320c-35.328 0-64 28.672-64 64H64c-35.328 0-64-28.672-64-64V128c0-35.328 28.672-64 64-64h896c35.328 0 64 28.672 64 64v576c0 35.328-28.672 64-64 64zm-576-64h256c35.328 0 64 28.672 64 64v64c0 35.328-28.672 64-64 64H384c-35.328 0-64-28.672-64-64v-64c0-35.328 28.672-64 64-64zm0 128h256v-64H384v64zm-64-320v-64c0-35.328 28.672-64 64-64h256c35.328 0 64 28.672 64 64v64c0 35.328-28.672 64-64 64H384c-35.328 0-64-28.672-64-64zm320-64H384v64h256v-64z"/><glyph unicode="" glyph-name="icon_book_alt" data-tags="icon_book_alt" d="M929.344 960h-704c-88.32 0-159.808-70.976-161.088-158.976l-.256.32v-704C64 8.256 136.256-64 225.344-64h544C804.672-64 832-35.328 832 0v672c0 17.664-12.992 32-30.656 32h-576C171.648 704 128 745.024 128 798.656 128 852.352 171.648 896 225.344 896H896V160c0-17.664 15.68-32 33.344-32S960 142.336 960 160v768c0 17.664-12.992 32-30.656 32zm-704-320h542.72l1.28-640h-544C171.648 0 128 43.648 128 97.344v573.952C154.88 651.584 188.48 640 225.344 640z"/><glyph unicode="" glyph-name="icon_calendar" data-tags="icon_calendar" d="M1020.224 780.032c-8.064 26.048-31.488 45.312-60.224 45.312h-64v-99.328c0-52.928-43.072-96-96-96s-96 43.072-96 96v99.328H319.68v-99.328c0-52.928-43.072-96-96-96s-96 43.072-96 96v99.328H64c-28.736 0-52.16-19.264-60.224-45.312H0V0c0-35.328 28.672-64 64-64h896c35.328 0 64 28.672 64 64v780.032h-3.776zM960 0H64v512h896V0zM223.68 694.016c17.664 0 32 14.336 32 32V928c0 17.664-14.336 32-32 32s-32-14.336-32-32V726.016c0-17.664 14.336-32 32-32zm576.32 0c17.664 0 32 14.336 32 32V928c0 17.664-14.336 32-32 32s-32-14.336-32-32V726.016c0-17.664 14.336-32 32-32z"/><glyph unicode="" glyph-name="icon_film" data-tags="icon_film" d="M960 960H64c-35.328 0-64-28.672-64-64V0c0-35.328 28.672-64 64-64h896c35.328 0 64 28.672 64 64v896c0 35.328-28.672 64-64 64zM192 384V256H64v128h128zM64 512v128h128V512H64zm192-192h512V0H256v320zm512 64H256v512h512V384zm64 0h128V256H832v128zm0 128v128h128V512H832zm0 256v128h128V768H832zm-640 0H64v128h128V768zM64 128h128V0H64v128zm768 0h128V0H832v128z"/><glyph unicode="" glyph-name="icon_table" data-tags="icon_table" d="M1022.912 835.328C1020.096 868.288 993.472 896 960 896H64c-33.472 0-60.096-27.712-62.912-60.672H0V0c0-35.328 28.672-64 64-64h896c35.328 0 64 28.672 64 64v835.328h-1.088zM384 512v192h256V512H384zm256-64V250.688H384V448h256zM320 704V512H64v192h256zM64 448h256V250.688H64V448zM64 0v192h256V0H64zm320 0v192h256V0H384zm576 0H704v192h256V0zm0 250.688H704V448h256V250.688zM960 512H704v192h256V512z"/><glyph unicode="" glyph-name="icon_contacts_alt" data-tags="icon_contacts_alt" d="M832 960H64c-35.328 0-64-28.672-64-64V0c0-35.328 28.672-64 64-64h768c35.328 0 64 28.672 64 64v896c0 35.328-28.672 64-64 64zM64 896h128V0H64v896zM832 0H256v896h576V0zM443.584 616.512c0-53.514 43.382-96.896 96.896-96.896s96.896 43.382 96.896 96.896-43.382 96.896-96.896 96.896-96.896-43.382-96.896-96.896zm98.88-135.616C454.976 480.896 384 385.728 384 268.352s316.992-117.376 316.992 0-70.976 212.544-158.528 212.544zM960 896h64V704h-64zm0-256h64V448h-64zm0-256h64V192h-64z"/><glyph unicode="" glyph-name="icon_headphones" data-tags="icon_headphones" d="M960 320v128c0 294.144-225.344 448-448 448-217.216 0-448-156.992-448-448V320c-35.328 0-64-28.672-64-64V128c0-35.328 28.672-64 64-64 0-35.328 28.672-64 64-64s64 28.672 64 64v256c0 35.328-28.672 64-64 64v64c0 252.096 193.216 384 384 384 184.96 0 384-120.128 384-384v-64c-35.328 0-64-28.672-64-64V64c0-35.328 28.672-64 64-64s64 28.672 64 64c35.328 0 64 28.672 64 64v128c0 35.328-28.672 64-64 64z"/><glyph unicode="" glyph-name="icon_lifesaver" data-tags="icon_lifesaver" d="M512 960c-131.008 0-262.08-49.984-362.048-149.952-199.936-199.936-199.936-524.16 0-724.096C249.92-14.016 380.992-64 512-64S774.08-14.016 874.048 85.952c199.936 199.936 199.936 524.16 0 724.096C774.08 910.016 643.008 960 512 960zM331.008 267.008C282.624 315.328 256 379.648 256 448s26.624 132.672 75.008 180.992C379.328 677.376 443.648 704 512 704s132.672-26.624 180.992-75.008C741.376 580.672 768 516.352 768 448s-26.624-132.672-75.008-180.992C644.672 218.624 580.352 192 512 192s-132.672 26.624-180.992 75.008zM709.952 849.6L611.2 750.848C578.944 761.408 545.6 768 512 768c-30.592 0-60.864-5.824-90.496-14.528l-99.84 99.84C380.544 880.896 445.056 896 512 896c69.888 0 137.088-16.32 197.952-46.4zm-603.2-211.328l99.84-99.84c-18.304-62.08-17.536-128 2.56-189.696L110.4 249.984C80.32 310.912 64 378.112 64 448c0 66.944 15.104 131.456 42.752 190.272zM195.2 131.264c0-.064 0-.064 0 0zm134.208-92.16l100.864 100.864C457.088 132.864 484.416 128 512 128c30.592 0 60.864 5.824 90.496 14.592l99.84-99.84C643.456 15.104 578.944 0 512 0c-64.064 0-125.824 13.76-182.592 39.104zM917.12 257.856l-99.648 99.648c16.576 56.256 17.536 115.584 2.56 172.224L920.704 630.4c52.672-118.464 51.456-254.912-3.584-372.544z"/><glyph unicode="" glyph-name="icon_piechart" data-tags="icon_piechart" d="M512-64c165.056 0 311.488 78.464 405.12 199.744L512 448v512C229.248 960 0 730.752 0 448S229.248-64 512-64zm-64 955.456V448c0-19.84 9.216-38.592 24.896-50.688l350.848-270.464C740.608 45.568 629.952 0 512 0 264.96 0 64 200.96 64 448c0 225.28 167.168 412.288 384 443.456zm152 59.968v-457.92l365.568-281.792C1002.688 282.432 1024 362.624 1024 448c0 252.672-183.296 461.632-424 503.424z"/><glyph unicode="" glyph-name="icon_refresh" data-tags="icon_refresh" d="M959.168 960c-35.84 0-64.832-29.056-64.832-64.832V744c-73.088 88.512-157.312 216-389.12 216C226.688 960 0 733.376 0 454.784S226.688-50.432 505.216-50.432c218.752 0 411.648 139.712 480.128 347.648 11.328 34.624-7.488 71.936-42.112 83.328s-71.936-7.424-83.328-42.048C809.344 184.832 666.816 81.6 505.216 81.6c-205.824 0-373.248 167.424-373.248 373.248s167.424 372.48 373.248 372.48c145.728 0 226.688-90.688 292.736-185.792H634.944c-35.84 0-64.832-29.056-64.832-64.832 0-35.84 29.056-64.832 64.832-64.832h324.224c35.776-.128 64.832 28.928 64.832 64.704v318.592c0 35.776-29.056 64.832-64.832 64.832z"/><glyph unicode="" glyph-name="icon_link_alt" data-tags="icon_link_alt" d="M305.856 830.208c37.44 37.44 98.304 37.44 135.744 0l343.232-343.232c16.896 63.936 1.088 134.72-49.024 184.832l-226.304 226.24c-75.008 75.008-196.544 75.008-271.552 0l-50.88-50.88c-75.008-75.008-75.008-196.544 0-271.552l226.304-226.304c50.112-50.112 120.896-65.92 184.832-49.024L254.976 643.52c-37.44 37.44-37.44 98.304 0 135.744l50.88 50.944zM514.496-2.048c75.008-75.008 196.544-75.008 271.552 0l50.88 50.944c75.008 75.008 75.008 196.544 0 271.552L610.624 546.624c-50.112 50.112-120.896 65.92-184.832 49.024l343.232-343.232c37.44-37.44 37.44-98.304 0-135.744L718.08 65.728c-37.44-37.44-98.304-37.44-135.744 0L239.168 409.024c-16.896-63.936-1.088-134.72 49.024-184.832L514.496-2.048z"/><glyph unicode="" glyph-name="icon_link" data-tags="icon_link" d="M241.28 455.36c40.896-40.896 101.056-55.232 155.776-38.912L94.72 718.72c-9.856 9.856-15.04 24.128-15.04 41.152 0 28.16 14.72 64.128 34.24 83.648 25.6 25.6 95.04 53.952 127.36 21.824l302.272-302.336a159.153 159.153 0 0 1 6.656 45.504c0 41.728-16.192 80.832-45.568 110.272L299.648 923.712c-61.568 61.568-183.936 38.464-244.16-21.76-34.944-34.944-56.64-89.088-56.64-141.312 0-40.576 13.312-76.224 37.44-100.352L241.28 455.36zm541.44-14.72c-40.896 40.896-101.056 55.232-155.776 38.912L929.28 177.216c9.856-9.856 15.04-24.064 15.04-41.152 0-28.16-14.72-64.128-34.24-83.648-25.6-25.6-95.04-53.952-127.36-21.824l-302.272 302.4a159.153 159.153 0 0 1-6.656-45.504c0-41.728 16.192-80.832 45.568-110.272L724.288-27.712c61.568-61.568 183.936-38.464 244.16 21.76 34.944 34.944 56.64 89.088 56.64 141.312 0 40.576-13.312 76.224-37.44 100.352L782.72 440.64zM293.248 666.816c-8.192-8.128-12.672-19.008-12.672-30.528s4.48-22.336 12.608-30.464l376.576-376.64c16.832-16.768 44.16-16.768 60.992 0 8.192 8.128 12.608 19.008 12.608 30.528s-4.48 22.336-12.608 30.464l-376.576 376.64c-16.768 16.768-44.16 16.768-60.928 0z"/><glyph unicode="" glyph-name="icon_loading" data-tags="icon_loading" d="M864.64 229.76c0-3.217 2.607-5.824 5.824-5.824s5.824 2.607 5.824 5.824c0 3.217-2.607 5.824-5.824 5.824s-5.824-2.607-5.824-5.824zM736.064 97.088c0-6.398 5.186-11.584 11.584-11.584s11.584 5.186 11.584 11.584-5.186 11.584-11.584 11.584-11.584-5.186-11.584-11.584zM562.752 28.8c0-9.614 7.794-17.408 17.408-17.408s17.408 7.794 17.408 17.408-7.794 17.408-17.408 17.408-17.408-7.794-17.408-17.408zm-186.56 9.152c0-12.795 10.373-23.168 23.168-23.168s23.168 10.373 23.168 23.168S412.155 61.12 399.36 61.12s-23.168-10.373-23.168-23.168zM210.688 122.88c0-16.012 12.98-28.992 28.992-28.992s28.992 12.98 28.992 28.992-12.98 28.992-28.992 28.992-28.992-12.98-28.992-28.992zM96.064 267.264c0-19.228 15.588-34.816 34.816-34.816s34.816 15.588 34.816 34.816-15.588 34.816-34.816 34.816-34.816-15.588-34.816-34.816zm-43.008 177.28c0-22.41 18.166-40.576 40.576-40.576s40.576 18.166 40.576 40.576-18.166 40.576-40.576 40.576-40.576-18.166-40.576-40.576zm35.392 176.128c0-25.626 20.774-46.4 46.4-46.4s46.4 20.774 46.4 46.4c0 25.626-20.774 46.4-46.4 46.4s-46.4-20.774-46.4-46.4zm106.176 142.016c0-28.843 23.381-52.224 52.224-52.224s52.224 23.381 52.224 52.224c0 28.843-23.381 52.224-52.224 52.224s-52.224-23.381-52.224-52.224zm155.904 81.344c0-32.024 25.96-57.984 57.984-57.984s57.984 25.96 57.984 57.984-25.96 57.984-57.984 57.984-57.984-25.96-57.984-57.984zm175.104 5.056c0-35.24 28.568-63.808 63.808-63.808s63.808 28.568 63.808 63.808c0 35.24-28.568 63.808-63.808 63.808s-63.808-28.568-63.808-63.808zm160.32-72.128c0-38.421 31.147-69.568 69.568-69.568s69.568 31.147 69.568 69.568-31.147 69.568-69.568 69.568-69.568-31.147-69.568-69.568zm113.92-135.488c0-41.638 33.754-75.392 75.392-75.392s75.392 33.754 75.392 75.392-33.754 75.392-75.392 75.392-75.392-33.754-75.392-75.392zm45.312-175.488c0-44.854 36.362-81.216 81.216-81.216s81.216 36.362 81.216 81.216c0 44.854-36.362 81.216-81.216 81.216s-81.216-36.362-81.216-81.216z"/><glyph unicode="" glyph-name="icon_blocked" data-tags="icon_blocked" d="M512 960C229.248 960 0 730.752 0 448S229.248-64 512-64s512 229.248 512 512-229.248 512-512 512zm0-128c211.712 0 384-172.288 384-384 0-82.816-26.624-159.36-71.36-222.144L289.856 760.64C352.64 805.376 429.184 832 512 832zM128 448c0 82.816 26.624 159.36 71.36 222.144L734.144 135.36C671.296 90.624 594.816 64 512 64c-211.712 0-384 172.288-384 384z"/><glyph unicode="" glyph-name="icon_archive_alt" data-tags="icon_archive_alt" d="M960 896H64c-35.328 0-64-28.672-64-64V704h1024v128c0 35.328-28.672 64-64 64zm0-128H64v64h896v-64zM64 64c0-35.328 28.672-64 64-64h768c35.328 0 64 28.672 64 64v576H64V64zm64 512h768V64H128v512zm544-64H352c-17.664 0-32-14.336-32-32s14.336-32 32-32h320c17.664 0 32 14.336 32 32s-14.336 32-32 32z"/><glyph unicode="" glyph-name="icon_heart_alt" data-tags="icon_heart_alt" d="M1023.488 581.312C1020.8 738.368 893.376 878.336 736 878.336c-91.008 0-171.2-47.616-224-117.504-52.8 69.888-132.992 117.504-224 117.504-157.376 0-284.8-139.968-287.488-297.024H0c0-.96.192-1.856.192-2.816 0-.704-.192-1.408-.192-2.176 0-4.416 1.088-7.744 1.28-11.968C15.36 164.096 507.968 0 507.968 0s499.84 163.904 514.624 563.712c.256 4.48 1.408 8 1.408 12.608 0 .768-.192 1.472-.192 2.176 0 1.024.192 1.856.192 2.816h-.512zm-64.832-15.232c-11.328-307.2-362.112-463.36-450.56-497.856-87.68 34.56-432.064 190.016-442.88 499.072-.128 3.2-.448 6.144-.896 9.344.064 1.152.128 2.368.192 3.584C66.688 707.136 169.024 814.336 288 814.336c65.664 0 128.704-33.536 172.928-92.096 12.096-16 30.976-25.408 51.072-25.408s38.976 9.408 51.072 25.408C607.296 780.8 670.336 814.336 736 814.336c118.976 0 221.312-107.2 223.488-234.112 0-1.216.064-2.432.192-3.648-.448-3.136-.832-6.464-1.024-10.496z"/><glyph unicode="" glyph-name="icon_star_alt" data-tags="icon_star_alt" d="M1020.288 545.728c-7.552 23.168-27.584 40.064-51.648 43.584L692.8 629.376l-123.392 249.92c-10.816 21.888-33.024 35.712-57.408 35.712s-46.592-13.824-57.408-35.712l-123.328-249.92-275.84-40.064c-24.128-3.52-44.16-20.416-51.648-43.584-7.552-23.168-1.28-48.576 16.192-65.6l199.616-194.56L172.48 10.816a64.06 64.06 0 0 1 25.472-62.592C209.024-59.904 222.208-64 235.52-64a63.79 63.79 0 0 1 29.76 7.36L512 73.088 758.72-56.64A63.79 63.79 0 0 1 788.48-64c13.248 0 26.496 4.096 37.632 12.224a64.06 64.06 0 0 1 25.472 62.592L804.48 285.568l199.616 194.56c17.408 16.96 23.68 42.432 16.192 65.6zM735.68 307.904L788.48 0 512 145.344 235.52 0l52.8 307.904L64.64 525.952l309.12 44.928L512 851.008 650.24 570.88l309.12-44.928-223.68-218.048z"/><glyph unicode="" glyph-name="icon_star-half_alt" data-tags="icon_star-half_alt" d="M1020.288 545.728c-7.552 23.168-27.584 40.064-51.712 43.52l-275.84 40.064-123.328 249.984c-10.816 21.888-33.024 35.712-57.408 35.712s-46.592-13.824-57.408-35.712l-123.328-249.92-275.84-40.064c-24.128-3.52-44.16-20.416-51.648-43.584-7.552-23.168-1.28-48.576 16.192-65.6l199.616-194.56L172.48 10.816a64.06 64.06 0 0 1 25.472-62.592C209.024-59.904 222.208-64 235.52-64a63.79 63.79 0 0 1 29.76 7.36L512 73.088 758.72-56.64A63.79 63.79 0 0 1 788.48-64c13.248 0 26.496 4.096 37.632 12.224a64.06 64.06 0 0 1 25.472 62.592L804.48 285.568l199.616 194.56c17.472 17.024 23.744 42.432 16.192 65.6zM735.68 307.904L788.48 0 512 145.344v705.664L650.24 570.88l309.12-44.928-223.68-218.048z"/><glyph unicode="" glyph-name="icon_star" data-tags="icon_star" d="M664.192 583.424l-156.8 317.696-156.8-317.696L0 532.48l253.696-247.296L193.792-64l313.6 164.864L820.992-64l-59.904 349.184 253.696 247.296z"/><glyph unicode="" glyph-name="icon_star-half" data-tags="icon_star-half" d="M512 100.864V901.12L355.2 583.424 4.608 532.48l253.696-247.296L198.4-64z"/><glyph unicode="" glyph-name="icon_tools" data-tags="icon_tools" d="M27.136 98.88c-37.504-37.504-37.504-98.24 0-135.744C45.888-55.616 70.464-64.96 95.04-64.96s49.152 9.344 67.904 28.096l315.2 315.2L342.336 414.08l-315.2-315.2zm787.776 584.192l137.152 70.976L1024 892.992 956.992 960l-138.944-71.936-70.976-137.152-167.168-167.168 67.84-67.84zm30.016-364.352c-4.352.256-8.512 1.28-12.928 1.28-23.424 0-45.632-4.8-66.368-12.48L371.52 701.632C379.2 722.368 384 744.576 384 768c0 4.416-1.024 8.576-1.28 12.928C375.936 880.832 293.632 960 192 960c-29.568 0-57.28-7.232-82.304-19.2l127.552-127.552c6.72-6.72 11.328-14.656 14.4-23.04 8.384-22.72 3.84-49.152-14.4-67.456C224.768 710.272 208.384 704 192 704c-7.552 0-15.04 1.664-22.208 4.352-8.384 3.136-16.32 7.68-23.04 14.4L19.2 850.304C7.232 825.28 0 797.568 0 768c0-101.632 79.168-183.936 179.072-190.72 4.352-.256 8.512-1.28 12.928-1.28 23.424 0 45.632 4.8 66.368 12.48L652.48 194.368C644.8 173.632 640 151.424 640 128c0-4.416 1.024-8.576 1.28-12.928C648.064 15.168 730.368-64 832-64c29.568 0 57.28 7.232 82.304 19.2L786.752 82.752c-6.72 6.72-11.328 14.656-14.4 23.04-8.384 22.72-3.84 49.152 14.4 67.456C799.232 185.728 815.616 192 832 192c7.552 0 15.04-1.664 22.208-4.352 8.384-3.136 16.32-7.68 23.04-14.4L1004.8 45.696C1016.768 70.72 1024 98.432 1024 128c0 101.632-79.168 183.936-179.072 190.72z"/><glyph unicode="" glyph-name="icon_tool" data-tags="icon_tool" d="M832 192c7.552 0 15.04-1.664 22.208-4.352 8.384-3.136 16.32-7.68 23.04-14.4L1004.8 45.696C1016.768 70.72 1024 98.432 1024 128c0 101.632-79.168 183.936-179.072 190.72-4.352.256-8.512 1.28-12.928 1.28-23.424 0-45.632-4.8-66.368-12.48L371.52 701.632C379.2 722.368 384 744.576 384 768c0 4.416-1.024 8.576-1.28 12.928C375.936 880.832 293.632 960 192 960c-29.568 0-57.28-7.232-82.304-19.2l127.552-127.552c6.72-6.72 11.328-14.656 14.4-23.04 8.384-22.72 3.84-49.152-14.4-67.456C224.768 710.272 208.384 704 192 704c-7.552 0-15.04 1.664-22.208 4.352-8.384 3.136-16.32 7.68-23.04 14.4L19.2 850.304C7.232 825.28 0 797.568 0 768c0-101.632 79.168-183.936 179.072-190.72 4.352-.256 8.512-1.28 12.928-1.28 23.424 0 45.632 4.8 66.368 12.48L652.48 194.368C644.8 173.632 640 151.424 640 128c0-4.416 1.024-8.576 1.28-12.928C648.064 15.168 730.368-64 832-64c29.568 0 57.28 7.232 82.304 19.2L786.752 82.752c-6.72 6.72-11.328 14.656-14.4 23.04-8.384 22.72-3.84 49.152 14.4 67.456C799.232 185.728 815.616 192 832 192z"/><glyph unicode="" glyph-name="icon_cog" data-tags="icon_cog" d="M880.832 554.176c-8.064 28.032-19.008 54.72-32.896 79.744l63.616 133.824a517.088 517.088 0 0 1-79.808 79.808L697.92 783.936c-24.96 13.824-51.712 24.832-79.744 32.896l-49.792 139.904C549.888 958.784 531.072 960 512 960s-37.888-1.216-56.384-3.264l-49.792-139.904c-27.968-8.064-54.72-19.072-79.68-32.896l-133.888 63.616a517.088 517.088 0 0 1-79.808-79.808l63.616-133.824c-13.824-24.96-24.832-51.712-32.896-79.744L3.264 504.384C1.216 485.888 0 467.072 0 448s1.216-37.888 3.264-56.384l139.968-49.792c8.064-28.032 19.008-54.72 32.896-79.744l-63.616-133.824C136.128 98.816 162.88 72 192.32 48.448l133.824 63.616c24.96-13.824 51.712-24.832 79.744-32.896L455.68-60.8C474.112-62.784 492.928-64 512-64s37.888 1.216 56.384 3.264l49.792 139.968c28.032 8.064 54.72 19.008 79.744 32.896l133.824-63.616C861.184 72.128 888 98.88 911.552 128.32l-63.616 133.824c13.824 24.96 24.832 51.712 32.896 79.744L1020.8 391.68c1.984 18.432 3.2 37.248 3.2 56.32s-1.216 37.888-3.264 56.384l-139.904 49.792zM512 192c-141.376 0-256 114.624-256 256s114.624 256 256 256 256-114.624 256-256-114.624-256-256-256zM384 448c0-70.692 57.308-128 128-128s128 57.308 128 128c0 70.692-57.308 128-128 128s-128-57.308-128-128z"/><glyph unicode="" glyph-name="icon_cogs" data-tags="icon_cogs" d="M31.296 409.664l111.04 4.096c13.12-17.024 28.288-32.512 45.184-46.336l-7.296-111.168c12.16-6.912 24.704-13.312 37.888-19.008 13.12-5.696 26.432-10.368 39.808-14.528l75.84 81.6c21.696-2.752 43.328-3.136 64.64-1.024l73.28-83.584a381.138 381.138 0 0 1 78.656 31.296l-4.032 111.104c16.96 13.12 32.448 28.288 46.272 45.184L703.744 400c6.912 12.16 13.312 24.704 19.008 37.888 5.696 13.12 10.368 26.432 14.528 39.808l-81.6 75.84c2.752 21.696 3.136 43.328 1.024 64.64l83.584 73.28a381.138 381.138 0 0 1-31.296 78.656l-111.104-4.032c-13.12 16.96-28.288 32.448-45.184 46.272L560 923.52c-12.16 6.912-24.704 13.312-37.888 19.008-13.12 5.632-26.432 10.368-39.808 14.464l-75.776-81.6c-21.696 2.752-43.328 3.136-64.64 1.024L268.544 960a381.138 381.138 0 0 1-78.656-31.296l4.032-111.04c-16.96-13.12-32.448-28.224-46.272-45.12L36.48 779.776c-6.912-12.16-13.312-24.704-19.008-37.888-5.632-13.12-10.368-26.432-14.464-39.808l81.6-75.84c-2.752-21.696-3.136-43.328-1.024-64.64L0 488.32c7.488-27.264 17.984-53.696 31.296-78.656zm414.848 356.544c97.344-41.984 142.272-154.944 100.288-252.352S391.488 371.584 294.08 413.568 151.808 568.512 193.792 665.92s154.944 142.272 252.352 100.288zm-172.032-176.32c0-53.019 42.981-96 96-96s96 42.981 96 96-42.981 96-96 96-96-42.981-96-96zm687.232-383.424l-26.496 9.408 12.096 25.472 27.84 58.56a225.532 225.532 0 0 1-34.944 34.944l-84.032-39.936-9.408 26.496-21.76 61.248c-8.064.832-16.32 1.344-24.64 1.344s-16.576-.512-24.704-1.408l-31.168-87.744-84.032 39.936a225.532 225.532 0 0 1-34.944-34.944l39.936-84.032-87.744-31.168C576.512 176.576 576 168.32 576 160s.512-16.576 1.408-24.64l87.744-31.168-12.096-25.472-27.84-58.56a225.532 225.532 0 0 1 34.944-34.944l84.032 39.936L753.6-1.344l21.76-61.248C783.424-63.488 791.68-64 800-64s16.576.512 24.704 1.408l31.168 87.744 84.032-39.936a225.532 225.532 0 0 1 34.944 34.944l-39.936 84.032 87.744 31.168c.832 8.064 1.344 16.32 1.344 24.64s-.512 16.576-1.408 24.704l-61.248 21.76zM800 112c-26.496 0-48 21.504-48 48s21.504 48 48 48 48-21.504 48-48-21.504-48-48-48z"/><glyph unicode="" glyph-name="arrow_up_alt" data-tags="arrow_up_alt" d="M544 896C278.912 896 64 681.088 64 416S278.912-64 544-64s480 214.912 480 480-214.912 480-480 480zm214.656-438.656c-12.48-12.48-32.768-12.48-45.248 0L576 594.752V96c0-17.664-14.336-32-32-32s-32 14.336-32 32v498.752L374.656 457.344c-12.48-12.48-32.768-12.48-45.248 0s-12.48 32.768 0 45.248l192 192c.064.128.128.128.192.192 2.88 2.816 6.336 5.184 10.112 6.72a31.744 31.744 0 0 0 24.448 0 32.035 32.035 0 0 0 10.496-6.848l192-192c12.48-12.544 12.48-32.768 0-45.312z"/><glyph unicode="" glyph-name="arrow_down_alt" data-tags="arrow_down_alt" d="M544 896C278.912 896 64 681.088 64 416S278.912-64 544-64s480 214.912 480 480-214.912 480-480 480zm214.656-566.656l-192-192a31.662 31.662 0 0 0-10.368-6.912 31.744 31.744 0 0 0-24.448 0c-3.84 1.6-7.232 3.904-10.112 6.72-.064.064-.192.064-.256.192l-192 192c-12.48 12.48-12.48 32.768 0 45.248s32.768 12.48 45.248 0L512 237.248V736c0 17.664 14.336 32 32 32s32-14.336 32-32V237.248l137.344 137.344c12.48 12.48 32.768 12.48 45.248 0 12.544-12.48 12.544-32.704.064-45.248z"/><glyph unicode="" glyph-name="arrow_left_alt" data-tags="arrow_left_alt" d="M544 896C278.912 896 64 681.088 64 416S278.912-64 544-64s480 214.912 480 480-214.912 480-480 480zm352-480c0-17.664-14.336-32-32-32H365.248l137.344-137.344c12.48-12.48 12.48-32.768 0-45.248s-32.768-12.48-45.248 0l-192 192c-.064.064-.128.192-.192.32-2.816 2.88-5.12 6.272-6.656 10.048-1.6 3.904-2.496 8-2.496 12.096V416c0 4.16.832 8.32 2.496 12.224 1.536 3.776 3.84 7.168 6.656 10.048.128.128.128.256.256.384l192 192c12.48 12.48 32.768 12.48 45.248 0s12.48-32.768 0-45.248L365.248 448H864c17.664 0 32-14.336 32-32z"/><glyph unicode="" glyph-name="arrow_right_alt" data-tags="arrow_right_alt" d="M544 896C278.912 896 64 681.088 64 416S278.912-64 544-64s480 214.912 480 480-214.912 480-480 480zm288-480v-.128c0-4.16-.832-8.256-2.432-12.096a31.662 31.662 0 0 0-6.912-10.368l-192-192c-12.48-12.48-32.768-12.48-45.248 0s-12.48 32.768 0 45.248L722.752 384H224c-17.664 0-32 14.336-32 32s14.336 32 32 32h498.752L585.344 585.344c-12.48 12.48-12.48 32.768 0 45.248s32.768 12.48 45.248 0l192-192a31.662 31.662 0 0 0 6.912-10.368A31.17 31.17 0 0 0 832 416z"/><glyph unicode="" glyph-name="arrow_left-up_alt" data-tags="arrow_left-up_alt" d="M204.608 755.392C17.152 567.936 17.152 264 204.608 76.544s491.392-187.456 678.848 0c187.456 187.456 187.456 491.392 0 678.848-187.52 187.456-491.392 187.456-678.848 0zm577.344-577.344c-12.48-12.48-32.768-12.48-45.248 0L384 530.752V336.448c0-17.664-14.336-32-32-32s-32 14.336-32 32V608c0 4.16.832 8.32 2.496 12.224 1.536 3.776 3.84 7.168 6.656 10.048.128.128.128.256.256.384.064.064.128.064.192.128 2.88 2.816 6.336 5.184 10.112 6.72A31.713 31.713 0 0 0 352 640h271.552c17.664 0 32-14.336 32-32s-14.336-32-32-32H429.248l352.64-352.64c12.544-12.544 12.544-32.768.064-45.312z"/><glyph unicode="" glyph-name="arrow_right-up_alt" data-tags="arrow_right-up_alt" d="M204.608 755.392C17.152 567.936 17.152 264 204.608 76.544s491.392-187.456 678.848 0c187.456 187.456 187.456 491.392 0 678.848-187.52 187.456-491.392 187.456-678.848 0zM768 608V336.448c0-17.664-14.336-32-32-32s-32 14.336-32 32v194.304l-352.64-352.64c-12.48-12.48-32.768-12.48-45.248 0s-12.48 32.768 0 45.248L658.752 576H464.448c-17.664 0-32 14.336-32 32s14.336 32 32 32H736c4.16 0 8.32-.832 12.224-2.496 7.808-3.264 14.08-9.472 17.28-17.28A31.17 31.17 0 0 0 768 608z"/><glyph unicode="" glyph-name="arrow_right-down_alt" data-tags="arrow_right-down_alt" d="M204.608 755.392C17.152 567.936 17.152 264 204.608 76.544s491.392-187.456 678.848 0c187.456 187.456 187.456 491.392 0 678.848-187.52 187.456-491.392 187.456-678.848 0zM768 224v-.128c0-4.16-.832-8.256-2.432-12.096-3.264-7.808-9.472-14.08-17.28-17.28A31.713 31.713 0 0 0 736 192H464.448c-17.664 0-32 14.336-32 32s14.336 32 32 32h194.304l-352.64 352.64c-12.48 12.48-12.48 32.768 0 45.248s32.768 12.48 45.248 0L704 301.248v194.304c0 17.664 14.336 32 32 32s32-14.336 32-32V224z"/><glyph unicode="" glyph-name="arrow_left-down_alt" data-tags="arrow_left-down_alt" d="M204.608 755.392C17.152 567.936 17.152 264 204.608 76.544s491.392-187.456 678.848 0c187.456 187.456 187.456 491.392 0 678.848-187.52 187.456-491.392 187.456-678.848 0zM781.952 608.64L429.248 256h194.304c17.664 0 32-14.336 32-32s-14.336-32-32-32H352c-4.16 0-8.32.832-12.224 2.496-3.84 1.6-7.232 3.904-10.112 6.72-.064.064-.192.064-.256.192-.128.128-.128.256-.256.384-2.816 2.88-5.12 6.272-6.656 10.048-1.6 3.84-2.496 7.936-2.496 12.032v271.68c0 17.664 14.336 32 32 32s32-14.336 32-32V301.248l352.64 352.64c12.48 12.48 32.768 12.48 45.248 0s12.544-32.704.064-45.248z"/><glyph unicode="" glyph-name="arrow_condense_alt" data-tags="arrow_condense_alt" d="M960 960H64c-35.328 0-64-28.672-64-64V0c0-35.328 28.672-64 64-64h896c35.328 0 64 28.672 64 64v896c0 35.328-28.672 64-64 64zM448 352V96c0-17.664-14.336-32-32-32s-32 14.336-32 32v178.752L182.656 73.408c-12.48-12.48-32.768-12.48-45.248 0s-12.48 32.768 0 45.248L338.752 320H160c-17.664 0-32 14.336-32 32s14.336 32 32 32h256c4.16 0 8.32-.832 12.224-2.496 7.808-3.264 14.08-9.472 17.28-17.28A31.17 31.17 0 0 0 448 352zm416 224c17.664 0 32-14.336 32-32s-14.336-32-32-32H608c-4.16 0-8.32.832-12.224 2.496-3.84 1.536-7.232 3.84-10.176 6.72-.064.064-.128.064-.256.128l-.192.384c-2.816 2.88-5.12 6.272-6.656 10.048-1.6 3.904-2.496 8-2.496 12.096V800c0 17.664 14.336 32 32 32s32-14.336 32-32V621.248l201.344 201.344c12.48 12.48 32.768 12.48 45.248 0s12.48-32.768 0-45.248L685.248 576H864z"/><glyph unicode="" glyph-name="arrow_expand_alt3" data-tags="arrow_expand_alt3" d="M960 960H64c-35.328 0-64-28.672-64-64V0c0-35.328 28.672-64 64-64h896c35.328 0 64 28.672 64 64v896c0 35.328-28.672 64-64 64zM416 128c17.664 0 32-14.336 32-32s-14.336-32-32-32H160c-4.16 0-8.32.832-12.224 2.496-3.84 1.6-7.232 3.904-10.112 6.72-.064.064-.192.064-.256.192-.128.128-.128.256-.256.384-2.816 2.88-5.12 6.272-6.656 10.048-1.6 3.84-2.496 7.936-2.496 12.032V352c0 17.664 14.336 32 32 32s32-14.336 32-32V173.248l201.344 201.344c12.48 12.48 32.768 12.48 45.248 0s12.48-32.768 0-45.248L237.248 128H416zm480 672V544c0-17.664-14.336-32-32-32s-32 14.336-32 32v178.752L630.656 521.344c-12.48-12.48-32.768-12.48-45.248 0s-12.48 32.768 0 45.248L786.752 768H608c-17.664 0-32 14.336-32 32s14.336 32 32 32h256c4.16 0 8.32-.832 12.224-2.496 7.808-3.264 14.08-9.472 17.28-17.28A31.17 31.17 0 0 0 896 800z"/><glyph unicode="" glyph-name="arrow_carrot_up_alt" data-tags="arrow_carrot_up_alt" d="M544-64c265.088 0 480 214.912 480 480S809.088 896 544 896 64 681.088 64 416 278.912-64 544-64zM313.728 358.848L521.28 566.4c6.272 6.272 14.464 9.344 22.72 9.344s16.448-3.072 22.72-9.344l207.552-207.552c12.48-12.48 12.48-32.768 0-45.248s-32.768-12.48-45.248 0L544 498.624 358.976 313.6c-12.48-12.48-32.768-12.48-45.248 0s-12.48 32.768 0 45.248z"/><glyph unicode="" glyph-name="arrow_carrot-down_alt" data-tags="arrow_carrot-down_alt" d="M544 896C278.912 896 64 681.088 64 416S278.912-64 544-64s480 214.912 480 480-214.912 480-480 480zm230.272-422.848L566.72 265.6c-6.272-6.272-14.528-9.408-22.72-9.344-8.256 0-16.448 3.072-22.72 9.344L313.728 473.152c-12.48 12.48-12.48 32.768 0 45.248s32.768 12.48 45.248 0L544 333.376 729.024 518.4c12.48 12.48 32.768 12.48 45.248 0s12.48-32.768 0-45.248z"/><glyph unicode="" glyph-name="arrow_carrot-left_alt" data-tags="arrow_carrot-left_alt" d="M544 896C278.912 896 64 681.088 64 416S278.912-64 544-64s480 214.912 480 480-214.912 480-480 480zm102.4-665.024c12.48-12.48 12.48-32.768 0-45.248s-32.768-12.48-45.248 0L393.6 393.28c-6.272 6.272-9.344 14.464-9.344 22.72s3.072 16.448 9.344 22.72l207.552 207.552c12.48 12.48 32.768 12.48 45.248 0s12.48-32.768 0-45.248L461.376 416 646.4 230.976z"/><glyph unicode="" glyph-name="arrow_carrot-right_alt" data-tags="arrow_carrot-right_alt" d="M544 896C278.912 896 64 681.088 64 416S278.912-64 544-64s480 214.912 480 480-214.912 480-480 480zm150.4-502.72L486.848 185.728c-12.48-12.48-32.768-12.48-45.248 0s-12.48 32.768 0 45.248L626.624 416 441.6 601.024c-12.48 12.48-12.48 32.768 0 45.248s32.768 12.48 45.248 0L694.4 438.72c6.272-6.272 9.408-14.528 9.344-22.72 0-8.256-3.072-16.448-9.344-22.72z"/><glyph unicode="" glyph-name="arrow_carrot-2up_alt" data-tags="arrow_carrot-2up_alt" d="M544 896C278.912 896 64 681.088 64 416S278.912-64 544-64s480 214.912 480 480-214.912 480-480 480zm238.464-697.856c-12.544-12.544-32.96-12.544-45.504 0l-191.744 169.6-191.744-169.6c-12.544-12.544-32.96-12.544-45.504 0s-12.544 32.96 0 45.504l214.08 189.376c6.4 6.4 14.784 9.472 23.168 9.344 8.384.192 16.768-2.88 23.168-9.28l214.08-189.376c12.608-12.608 12.608-32.96 0-45.568zm0 229.504c-12.544-12.544-32.96-12.544-45.504 0L545.152 597.312 353.408 427.648c-12.544-12.544-32.96-12.544-45.504 0s-12.544 32.96 0 45.504l214.08 189.376c6.4 6.4 14.784 9.472 23.168 9.344 8.448.192 16.832-2.88 23.232-9.28l214.08-189.376c12.608-12.608 12.608-32.96 0-45.568z"/><glyph unicode="" glyph-name="arrow_carrot-2dwnn_alt" data-tags="arrow_carrot-2dwnn_alt" d="M546.112 891.712c-263.936 0-477.888-213.952-477.888-477.888S282.24-64 546.112-64 1024 149.952 1024 413.888 810.048 891.712 546.112 891.712zm233.984-532.928l-214.08-189.376c-6.4-6.4-14.784-9.472-23.168-9.344-8.448-.064-16.832 2.944-23.232 9.344l-214.08 189.376c-12.544 12.544-12.544 32.96 0 45.504s32.96 12.544 45.504 0l191.744-169.6 191.744 169.6c12.544 12.544 32.96 12.544 45.504 0s12.672-32.896.064-45.504zm0 229.504l-214.08-189.376c-6.4-6.4-14.784-9.472-23.168-9.344-8.448-.064-16.832 2.944-23.232 9.344l-214.08 189.376c-12.544 12.544-12.544 32.96 0 45.504 12.544 12.608 32.96 12.608 45.504.064l191.744-169.6 191.744 169.6c12.544 12.544 32.96 12.544 45.504 0s12.672-32.96.064-45.568z"/><glyph unicode="" glyph-name="arrow_carrot-2left_alt" data-tags="arrow_carrot-2left_alt" d="M546.304 891.456c-263.808 0-477.696-213.888-477.696-477.696C68.544 149.888 282.432-64 546.304-64 810.112-64 1024 149.888 1024 413.696c0 263.872-213.888 477.76-477.696 477.76zm-13.952-711.552c-12.544-12.544-32.96-12.544-45.504 0l-189.44 214.08c-6.4 6.4-9.472 14.848-9.344 23.232-.064 8.384 2.944 16.768 9.344 23.168l189.376 214.08c12.544 12.544 32.96 12.544 45.504 0s12.544-32.96 0-45.504l-169.6-191.744 169.6-191.744c12.608-12.608 12.608-33.024.064-45.568zm229.504 45.504c12.544-12.544 12.544-32.96 0-45.504s-32.96-12.544-45.504 0l-189.44 214.08c-6.4 6.4-9.472 14.848-9.344 23.232-.064 8.384 2.944 16.768 9.344 23.168l189.376 214.08c12.544 12.544 32.96 12.544 45.504 0s12.544-32.96 0-45.504l-169.6-191.744 169.664-191.808z"/><glyph unicode="" glyph-name="arrow_carrot-2right_alt" data-tags="arrow_carrot-2right_alt" d="M546.304 891.392c-263.808 0-477.696-213.888-477.696-477.696S282.496-64 546.304-64 1024 149.888 1024 413.696 810.112 891.392 546.304 891.392zm-220.16-713.856c-12.544 12.544-12.544 32.96 0 45.504l169.6 191.744-169.6 191.744c-12.544 12.608-12.544 33.024 0 45.568s32.96 12.544 45.504 0l189.376-214.08c6.4-6.4 9.472-14.784 9.344-23.168.192-8.448-2.88-16.832-9.28-23.232l-189.376-214.08c-12.608-12.608-32.96-12.608-45.568 0zm464.448 214.08l-189.376-214.08c-12.544-12.544-32.96-12.544-45.504 0s-12.544 32.96 0 45.504l169.6 191.744-169.6 191.744c-12.544 12.544-12.544 32.96 0 45.504s32.96 12.544 45.504 0l189.376-214.08c6.4-6.4 9.472-14.784 9.344-23.168.064-8.384-2.944-16.768-9.344-23.168z"/><glyph unicode="" glyph-name="arrow_triangle-up_alt" data-tags="arrow_triangle-up_alt" d="M544 896C278.912 896 64 681.088 64 416S278.912-64 544-64s480 214.912 480 480-214.912 480-480 480zm215.168-564.864l-.128.128C753.984 324.416 746.88 320 738.88 320H347.84c-7.872 0-14.912 4.16-19.968 10.816-.064.128-.192.192-.32.32-10.88 13.888-10.88 36.416 0 50.304l195.52 246.848c.256.384.384.896.704 1.28 10.88 13.888 28.608 13.888 39.488 0L759.232 381.44c10.88-13.888 10.88-36.416-.064-50.304z"/><glyph unicode="" glyph-name="arrow_triangle-down_alt" data-tags="arrow_triangle-down_alt" d="M544 896C278.912 896 64 681.088 64 416S278.912-64 544-64s480 214.912 480 480-214.912 480-480 480zm215.168-445.44l-195.52-246.848c-.256-.384-.384-.896-.704-1.28-10.88-13.888-28.608-13.888-39.488 0L327.552 450.56c-10.88 13.888-10.88 36.416 0 50.304l.128-.128c5.056 6.848 12.16 11.264 20.16 11.264h391.04c7.872 0 14.912-4.16 19.968-10.816.128-.128.256-.128.32-.256 10.944-13.952 10.944-36.48 0-50.368z"/><glyph unicode="" glyph-name="arrow_triangle-left_alt" data-tags="arrow_triangle-left_alt" d="M544 896C278.912 896 64 681.088 64 416S278.912-64 544-64s480 214.912 480 480-214.912 480-480 480zm96-674.88c0-7.872-4.16-14.912-10.816-19.968-.128-.128-.128-.256-.256-.32-13.888-10.88-36.416-10.88-50.304 0L331.712 396.288c-.384.32-.896.384-1.28.704-13.888 10.88-13.888 28.608 0 39.488L578.56 632.448c13.888 10.88 36.416 10.88 50.304 0l-.128-.128c6.848-5.056 11.264-12.16 11.264-20.16V221.12z"/><glyph unicode="" glyph-name="arrow_triangle-right_alt" data-tags="arrow_triangle-right_alt" d="M544 896C278.912 896 64 681.088 64 416S278.912-64 544-64s480 214.912 480 480-214.912 480-480 480zm213.568-499.2L509.44 200.832c-13.888-10.88-36.416-10.88-50.304 0l.128.128C452.416 206.016 448 213.12 448 221.12v391.04c0 7.872 4.16 14.912 10.816 19.968.128.064.192.192.32.32 13.888 10.88 36.416 10.88 50.304 0l246.848-195.52c.384-.32.896-.384 1.28-.704 13.888-10.88 13.888-28.544 0-39.424z"/><glyph unicode="" glyph-name="icon_minus_alt" data-tags="icon_minus_alt" d="M544 896C278.912 896 64 681.088 64 416S278.912-64 544-64s480 214.912 480 480-214.912 480-480 480zm256-512H288c-17.664 0-32 14.336-32 32s14.336 32 32 32h512c17.664 0 32-14.336 32-32s-14.336-32-32-32z"/><glyph unicode="" glyph-name="plus-circle" data-tags="icon_plus_alt" d="M544 896C278.912 896 64 681.088 64 416S278.912-64 544-64s480 214.912 480 480-214.912 480-480 480zm256-512H576V160c0-17.664-14.336-32-32-32s-32 14.336-32 32v224H288c-17.664 0-32 14.336-32 32s14.336 32 32 32h224v224c0 17.664 14.336 32 32 32s32-14.336 32-32V448h224c17.664 0 32-14.336 32-32s-14.336-32-32-32z"/><glyph unicode="" glyph-name="icon_close_alt" data-tags="icon_close_alt" d="M544 896C278.912 896 64 681.088 64 416S278.912-64 544-64s480 214.912 480 480-214.912 480-480 480zm222.4-302.848L588.032 414.784l157.824-175.936c12.48-12.48 12.48-32.768 0-45.248s-32.768-12.48-45.248 0L542.784 369.536 366.848 193.6c-12.48-12.48-32.768-12.48-45.248 0s-12.48 32.768 0 45.248l178.368 178.368-157.824 175.936c-12.48 12.48-12.48 32.768 0 45.248s32.768 12.48 45.248 0l157.824-175.936L721.152 638.4c12.48 12.48 32.768 12.48 45.248 0s12.48-32.768 0-45.248z"/><glyph unicode="" glyph-name="icon_check_alt" data-tags="icon_check_alt" d="M514.688 960c-282.752 0-512-229.248-512-512s229.248-512 512-512 512 229.248 512 512-229.248 512-512 512zm237.184-370.368L506.624 214.784c-.064-.064-.192-.128-.192-.192-1.28-1.92-1.984-4.096-3.584-5.888-2.24-2.432-5.12-3.712-7.68-5.568-.64-.448-1.28-.96-1.984-1.408-3.968-2.496-8.064-4.16-12.544-5.248-1.472-.384-2.816-.768-4.352-1.024-3.648-.512-7.104-.512-10.752-.128-2.56.192-4.992.512-7.488 1.152-2.56.704-4.928 1.792-7.36 2.944-2.048.96-4.224 1.216-6.144 2.432-1.408.896-2.176 2.304-3.392 3.392-.512.448-1.152.576-1.664 1.024L296.704 338.304c-18.176 16.832-19.264 45.184-2.496 63.296s45.12 19.264 63.296 2.496l103.36-95.616 216 330.176c13.568 20.672 41.28 26.496 62.016 12.992 20.736-13.568 26.56-41.344 12.992-62.016z"/><glyph unicode="" glyph-name="icon_zoom-out" data-tags="icon_zoom-out" d="M608 960c-229.76 0-416-186.24-416-416 0-98.88 34.624-189.504 92.224-260.928L13.056 11.904C-4.288-5.44-4.288-33.6 13.056-50.944s45.504-17.344 62.848 0l271.168 271.168C418.496 162.624 509.12 128 608 128c229.76 0 416 186.24 416 416S837.76 960 608 960zm192-448H416c-17.664 0-32 14.336-32 32s14.336 32 32 32h384c17.664 0 32-14.336 32-32s-14.336-32-32-32z"/><glyph unicode="" glyph-name="icon_zoom-in" data-tags="icon_zoom-in" d="M608 960c-229.76 0-416-186.24-416-416 0-98.88 34.624-189.504 92.224-260.928L13.056 11.904C-4.288-5.44-4.288-33.6 13.056-50.944s45.504-17.344 62.848 0l271.168 271.168C418.496 162.624 509.12 128 608 128c229.76 0 416 186.24 416 416S837.76 960 608 960zm192-448H640V352c0-17.664-14.336-32-32-32s-32 14.336-32 32v160H416c-17.664 0-32 14.336-32 32s14.336 32 32 32h160v160c0 17.664 14.336 32 32 32s32-14.336 32-32V576h160c17.664 0 32-14.336 32-32s-14.336-32-32-32z"/><glyph unicode="" glyph-name="icon_stop_alt" data-tags="icon_stop_alt" d="M512 960C229.248 960 0 730.752 0 448S229.248-64 512-64s512 229.248 512 512-229.248 512-512 512zm192-640c0-35.328-28.672-64-64-64H384c-35.328 0-64 28.672-64 64v256c0 35.328 28.672 64 64 64h256c35.328 0 64-28.672 64-64V320z"/><glyph unicode="" glyph-name="icon_menu-square_alt" data-tags="icon_menu-square_alt" d="M960 896H128c-35.328 0-64-28.672-64-64V0c0-35.328 28.672-64 64-64h832c35.328 0 64 28.672 64 64v832c0 35.328-28.672 64-64 64zM800 192H288c-17.664 0-32 14.336-32 32s14.336 32 32 32h512c17.664 0 32-14.336 32-32s-14.336-32-32-32zm0 192H288c-17.664 0-32 14.336-32 32s14.336 32 32 32h512c17.664 0 32-14.336 32-32s-14.336-32-32-32zm0 192H288c-17.664 0-32 14.336-32 32s14.336 32 32 32h512c17.664 0 32-14.336 32-32s-14.336-32-32-32z"/><glyph unicode="" glyph-name="icon_menu-circle_alt" data-tags="icon_menu-circle_alt" d="M544 896C278.912 896 64 681.088 64 416S278.912-64 544-64s480 214.912 480 480-214.912 480-480 480zm256-704H288c-17.664 0-32 14.336-32 32s14.336 32 32 32h512c17.664 0 32-14.336 32-32s-14.336-32-32-32zm0 192H288c-17.664 0-32 14.336-32 32s14.336 32 32 32h512c17.664 0 32-14.336 32-32s-14.336-32-32-32zm0 192H288c-17.664 0-32 14.336-32 32s14.336 32 32 32h512c17.664 0 32-14.336 32-32s-14.336-32-32-32z"/><glyph unicode="" glyph-name="icon_document" data-tags="icon_document" d="M128-64h770.688c35.328 0 64 28.672 64 64v896c0 35.328-28.672 64-64 64H128c-35.328 0-64-28.672-64-64V0c0-35.328 28.672-64 64-64zm352 832h258.688c17.664 0 32-14.336 32-32s-14.336-32-32-32H480c-17.664 0-32 14.336-32 32s14.336 32 32 32zM288 576h450.688c17.664 0 32-14.336 32-32s-14.336-32-32-32H288c-17.664 0-32 14.336-32 32s14.336 32 32 32zm0-192h450.688c17.664 0 32-14.336 32-32s-14.336-32-32-32H288c-17.664 0-32 14.336-32 32s14.336 32 32 32zm0-192h450.688c17.664 0 32-14.336 32-32s-14.336-32-32-32H288c-17.664 0-32 14.336-32 32s14.336 32 32 32z"/><glyph unicode="" glyph-name="icon_documents" data-tags="icon_documents" d="M128 64h64V0c0-35.328 28.672-64 64-64h640c35.328 0 64 28.672 64 64v768c0 35.328-28.672 64-64 64h-64v64c0 35.328-28.672 64-64 64H128c-35.328 0-64-28.672-64-64V128c0-35.328 28.672-64 64-64zm768 704V0H256v64h512c35.328 0 64 28.672 64 64v640h64zm-224 64c17.664 0 32-14.336 32-32s-14.336-32-32-32H413.312c-17.664 0-32 14.336-32 32s14.336 32 32 32H672zM221.312 640H672c17.664 0 32-14.336 32-32s-14.336-32-32-32H221.312c-17.664 0-32 14.336-32 32s14.336 32 32 32zm0-192H672c17.664 0 32-14.336 32-32s-14.336-32-32-32H221.312c-17.664 0-32 14.336-32 32s14.336 32 32 32zm0-192H672c17.664 0 32-14.336 32-32s-14.336-32-32-32H221.312c-17.664 0-32 14.336-32 32s14.336 32 32 32z"/><glyph unicode="" glyph-name="icon_pencil_alt" data-tags="icon_pencil_alt" d="M960 960H64c-35.328 0-64-28.672-64-64V0c0-35.328 28.672-64 64-64h896c35.328 0 64 28.672 64 64v896c0 35.328-28.672 64-64 64zM178.368 666.496c-31.808 31.808-31.808 83.328 0 115.136s83.328 31.808 115.136 0l84.736-84.736L263.104 581.76l-84.736 84.736zM659.84 185.024l-328.96 328.96L446.016 629.12l328.96-328.96L832 128l-172.16 57.024z"/><glyph unicode="" glyph-name="icon_folder" data-tags="icon_folder" d="M960 896H640c-35.328 0-64-28.672-64-64 0 0-8.32-58.688-64-64H64c-35.328 0-64-27.648-64-62.976V128c0-35.328 28.672-64 64-64h896c35.328 0 64 28.672 64 64v704c0 35.328-28.672 64-64 64z"/><glyph unicode="" glyph-name="icon_folder-open" data-tags="icon_folder-open" d="M960 896H640c-35.328 0-64-28.672-64-64 0 0-8.32-58.688-64-64H64c-35.328 0-64-27.648-64-62.976V640h1024v192c0 35.328-28.672 64-64 64zM0 64C0 28.672 28.672 0 64 0h896c35.328 0 64 28.672 64 64v512H0V64z"/><glyph unicode="" glyph-name="icon_folder-add" data-tags="icon_folder-add" d="M896 832H640c-35.328 0-64-28.672-64-64 0 0-8.32-58.688-64-64H64c-35.328 0-64-28.672-64-64V64C0 28.672 28.672 0 64 0h832c35.328 0 64 28.672 64 64v704c0 35.328-28.672 64-64 64zM672 320H512V160c0-17.664-14.336-32-32-32s-32 14.336-32 32v160H288c-17.664 0-32 14.336-32 32s14.336 32 32 32h160v160c0 17.664 14.336 32 32 32s32-14.336 32-32V384h160c17.664 0 32-14.336 32-32s-14.336-32-32-32z"/><glyph unicode="" glyph-name="icon_folder_upload" data-tags="icon_folder_upload" d="M960 832H640c-35.328 0-64-28.672-64-64 0 0-8.32-58.688-64-64H64c-35.328 0-64-27.648-64-62.976V64C0 28.672 28.672 0 64 0h384.192v320H312.384l199.808 256L712 320H576.192V0H960c35.328 0 64 28.672 64 64v704c0 35.328-28.672 64-64 64z"/><glyph unicode="" glyph-name="icon_folder_download" data-tags="icon_folder_download" d="M960 832H640c-35.328 0-64-28.672-64-64 0 0-8.32-58.688-64-64H64c-35.328 0-64-27.648-64-62.976V64C0 28.672 28.672 0 64 0h896c35.328 0 64 28.672 64 64v704c0 35.328-28.672 64-64 64zM512.192.384l-199.808 256h135.808v256c0 35.328 28.672 64 64 64s64-28.672 64-64v-256H712L512.192.384z"/><glyph unicode="" glyph-name="icon_info" data-tags="icon_info" d="M512 960C229.248 960 0 730.752 0 448S229.248-64 512-64s512 229.248 512 512-229.248 512-512 512zm-64-448c0 35.328 28.672 64 64 64s64-28.672 64-64V192c0-35.328-28.672-64-64-64s-64 28.672-64 64v320zm64 126.976c-35.328 0-64 28.672-64 64s28.672 64 64 64 64-28.672 64-64-28.672-64-64-64z"/><glyph unicode="" glyph-name="icon_error-circle" data-tags="icon_error-circle" d="M512-64c282.752 0 512 229.248 512 512S794.752 960 512 960 0 730.752 0 448 229.248-64 512-64zm64 448c0-35.328-28.672-64-64-64s-64 28.672-64 64v320c0 35.328 28.672 64 64 64s64-28.672 64-64V384zm-64-126.976c35.328 0 64-28.672 64-64s-28.672-64-64-64-64 28.672-64 64 28.672 64 64 64z"/><glyph unicode="" glyph-name="icon_error-oct" data-tags="icon_error-oct" d="M742.848 941.248C730.816 953.28 714.56 960 697.536 960H326.464c-16.96 0-33.28-6.72-45.248-18.752l-262.4-262.464C6.72 666.816 0 650.56 0 633.536V262.4c0-16.96 6.72-33.28 18.752-45.248l262.4-262.464A64.187 64.187 0 0 1 326.464-64H697.6c16.96 0 33.28 6.72 45.248 18.752l262.4 262.464C1017.28 229.184 1024 245.44 1024 262.464v371.072c0 16.96-6.72 33.28-18.752 45.248l-262.4 262.464zM512 320c-35.328 0-64 28.672-64 64v384c0 35.328 28.672 64 64 64s64-28.672 64-64V384c0-35.328-28.672-64-64-64zm64-192c0-35.328-28.672-64-64-64s-64 28.672-64 64 28.672 64 64 64 64-28.672 64-64z"/><glyph unicode="" glyph-name="icon_error-triangle" data-tags="icon_error-triangle" d="M65.984 0h889.984a64.015 64.015 0 0 1 54.912 31.104c11.584 19.264 12.16 43.2 1.6 63.04l-444.032 832C557.376 946.944 535.68 960 512.064 960H512c-23.616 0-45.248-12.992-56.384-33.792L9.6 94.208C-1.024 74.368-.448 50.432 11.072 31.104 22.656 11.84 43.52 0 65.984 0zM512 256c35.328 0 64-28.672 64-64s-28.672-64-64-64-64 28.672-64 64 28.672 64 64 64zm-64 126.976v256c0 35.328 28.672 64 64 64s64-28.672 64-64v-256c0-35.328-28.672-64-64-64s-64 28.672-64 64z"/><glyph unicode="" glyph-name="icon_question_alt" data-tags="icon_question_alt" d="M512-64c282.752 0 512 229.248 512 512S794.752 960 512 960 0 730.752 0 448 229.248-64 512-64zm0 896c127.424 0 256-72.96 256-236.032 0-94.912-47.04-169.024-139.776-220.032C601.344 361.152 576 331.904 576 320c0-35.328-28.672-64-64-64s-64 28.672-64 64c0 81.216 74.496 143.872 118.528 168.064C631.232 523.776 640 562.688 640 595.968 640 689.984 559.808 704 512 704c-61.632 0-128-40.448-128-129.344 0-35.328-28.672-64-64-64s-64 28.672-64 64C256 741.824 387.904 832 512 832zm0-770.816c-36.416 0-65.92 29.504-65.92 65.92s29.504 65.92 65.92 65.92 65.92-29.504 65.92-65.92-29.504-65.92-65.92-65.92z"/><glyph unicode="" glyph-name="icon_comment" data-tags="icon_comment" d="M162.496 176.576C143.744 128.128 111.936 64.768 57.984 0 160.32 0 291.968 13.44 393.408 75.648 431.552 68.288 471.104 64 512 64c282.752 0 512 186.24 512 416S794.752 896 512 896 0 709.76 0 480c0-119.808 62.72-227.52 162.496-303.424z"/><glyph unicode="" glyph-name="icon_chat" data-tags="icon_chat" d="M893.12 582.72c5.632-25.344 8.896-51.392 8.896-78.144 0-206.592-175.36-378.816-406.272-415.808C544.576 69.056 599.296 57.536 657.6 57.536c54.976 0 106.88 10.112 153.728 27.712 59.328-20.224 124.096-25.472 177.664-25.472-27.84 33.408-47.168 66.176-60.992 94.976 59.392 52.992 96 123.2 96 200.512 0 91.392-51.008 172.864-130.88 227.456zm-87.104-78.144C806.016 685.376 625.6 832 403.008 832S0 685.376 0 504.576c0-94.336 49.344-179.072 127.936-238.848-14.784-38.144-39.808-88-82.24-139.008 80.512 0 184.192 10.56 264 59.584 30.016-5.824 61.184-9.216 93.312-9.216 222.592.064 403.008 146.624 403.008 327.488z"/><glyph unicode="" glyph-name="icon_vol-mute" data-tags="icon_vol-mute" d="M64 183.872h146.88c11.584-11.52 278.464-236.16 278.464-236.16 16.064-9.728 29.696-12.544 41.344-11.456 23.68 2.24 40.32 22.08 45.376 43.008.256 2.048.256 935.424-.064 937.472-4.992 20.992-21.696 40.832-45.312 43.072-11.648 1.088-25.28-1.728-41.344-11.456 0 0-266.88-232.832-278.464-244.352H64c-35.328 0-64-28.672-64-64V247.872c0-35.392 28.672-64 64-64zm948.544 429.824c-15.232 15.232-40 15.232-55.232 0L846.848 503.232 736.384 613.696c-15.232 15.232-40 15.232-55.232 0s-15.232-40 0-55.232L791.616 448 681.152 337.536c-15.232-15.232-15.232-40 0-55.232s40-15.232 55.232 0l110.464 110.464 110.464-110.464c15.232-15.232 40-15.232 55.232 0s15.232 40 0 55.232L902.08 448l110.464 110.464c15.296 15.232 15.296 40 0 55.232z"/><glyph unicode="" glyph-name="icon_volume-low" data-tags="icon_volume-low" d="M658.688 959.808c-11.648 1.088-25.28-1.728-41.344-11.456 0 0-266.88-232.832-278.464-244.352H192c-35.328 0-64-28.672-64-64V247.872c0-35.328 28.672-64 64-64h146.88c11.584-11.52 278.464-236.16 278.464-236.16 16.064-9.728 29.696-12.544 41.344-11.456 23.68 2.24 40.32 22.08 45.376 43.008.32 2.048.32 935.488 0 937.472-5.056 20.992-21.76 40.832-45.376 43.072zm143.936-623.616c-15.808-8-22.144-27.2-14.208-43.008a32.026 32.026 0 0 1 28.544-17.6c4.864 0 9.728 1.088 14.4 3.392C896.064 311.616 936.256 376.32 936.256 448S896.064 584.384 831.36 617.024c-15.808 8-35.008 1.6-42.944-14.208s-1.6-35.008 14.208-43.008c42.944-21.632 69.632-64.448 69.632-111.808s-26.688-90.176-69.632-111.808z"/><glyph unicode="" glyph-name="icon_volume-high" data-tags="icon_volume-high" d="M64 183.872h146.88c11.584-11.52 278.464-236.16 278.464-236.16 16.064-9.728 29.696-12.544 41.344-11.456 23.68 2.24 40.32 22.08 45.376 43.008.256 2.048.256 935.424-.064 937.472-4.992 20.992-21.696 40.832-45.312 43.072-11.648 1.088-25.28-1.728-41.344-11.456 0 0-266.88-232.832-278.464-244.352H64c-35.328 0-64-28.672-64-64V247.872c0-35.392 28.672-64 64-64zm610.624 152.32c-15.808-8-22.144-27.2-14.208-43.008a32.026 32.026 0 0 1 28.544-17.6c4.864 0 9.728 1.088 14.4 3.392C768.064 311.616 808.256 376.32 808.256 448S768.064 584.384 703.36 617.024c-15.808 8-34.944 1.6-42.944-14.208-7.936-15.808-1.6-35.008 14.208-43.008 42.944-21.632 69.632-64.448 69.632-111.808s-26.688-90.176-69.632-111.808zM630.592 80.704c3.008-15.296 16.384-25.856 31.36-25.856 2.048 0 4.096.192 6.208.576C855.808 92.032 992 257.152 992 448S855.808 803.968 668.096 840.576c-17.088 3.456-34.176-7.936-37.504-25.28-3.392-17.344 7.936-34.176 25.28-37.568C813.568 747.008 928 608.32 928 448S813.568 148.992 655.872 118.272c-17.344-3.392-28.672-20.224-25.28-37.568z"/><glyph unicode="" glyph-name="icon_quotations_alt" data-tags="icon_quotations_alt" d="M512 960C229.248 960 0 730.752 0 448S229.248-64 512-64s512 229.248 512 512-229.248 512-512 512zm256.832-502.656c-3.968-65.664-33.6-163.968-152.192-259.648-5.696-4.544-12.352-6.784-19.008-6.784-9.28 0-18.432 4.288-24.512 12.48-10.496 14.08-8.064 34.304 5.504 45.184 96.576 77.888 123.008 154.176 127.68 206.528-13.632-7.936-29.056-12.8-45.76-12.8-52.096 0-94.272 43.84-94.272 97.92s42.176 97.92 94.272 97.92c11.776 0 22.592-3.072 32.896-7.232l-.384.768s4.544-1.664 10.88-5.184c.32-.192.64-.256.96-.384.192-.128.32-.256.512-.384 4.352-2.496 9.344-5.824 14.912-10.56 2.368-2.048 4.352-4.416 6.528-6.656 23.232-23.104 48.704-67.2 41.984-151.168zm-418.624-15.04c-52.096 0-94.272 43.84-94.272 97.92s42.24 97.92 94.272 97.92c11.776 0 22.592-3.072 32.896-7.232l-.32.768s4.544-1.664 10.88-5.184c.32-.192.64-.256.96-.384.192-.128.32-.256.512-.384 4.352-2.496 9.344-5.824 14.912-10.56 2.368-2.048 4.352-4.416 6.528-6.656 23.232-23.104 48.768-67.2 41.984-151.232-3.968-65.664-33.6-163.968-152.192-259.648-5.696-4.544-12.352-6.784-19.008-6.784-9.28 0-18.432 4.288-24.512 12.48-10.496 14.08-8.064 34.304 5.504 45.184C364.928 326.4 391.36 402.688 396.032 455.04c-13.696-7.808-29.12-12.736-45.824-12.736z"/><glyph unicode="" glyph-name="icon_clock" data-tags="icon_clock" d="M544 896C278.903 896 64 681.097 64 416S278.903-64 544-64s480 214.903 480 480-214.903 480-480 480zm256-512H544c-17.673 0-32 14.327-32 32v320c0 17.673 14.327 32 32 32s32-14.327 32-32V448h224c17.673 0 32-14.327 32-32s-14.327-32-32-32z"/><glyph unicode="" glyph-name="icon_lock" data-tags="icon_lock" d="M512 960c-179.456 0-324.928-145.472-324.928-324.928V576H128c-35.328 0-64-28.672-64-64V0c0-35.328 28.672-64 64-64h768c35.328 0 64 28.672 64 64v512c0 35.328-28.672 64-64 64h-59.072v59.072C836.928 814.528 691.456 960 512 960zM315.072 635.072C315.072 743.68 403.392 832 512 832s196.928-88.32 196.928-196.928V576H315.072v59.072zM512 128c-70.72 0-128 57.28-128 128s57.28 128 128 128 128-57.28 128-128-57.28-128-128-128z"/><glyph unicode="" glyph-name="icon_lock-open" data-tags="icon_lock-open" d="M896 576H315.072v59.072C315.072 743.68 403.392 832 512 832c71.552 0 133.824-38.656 168.256-95.936.32.384.896.576 1.28.96 11.584-16.512 29.824-28.032 51.52-28.032 35.328 0 64 28.672 64 64 0 8.64-1.792 16.896-4.928 24.448-.256.448-.448.96-.704 1.408-2.816 6.4-6.848 12.032-11.52 17.088C721.664 902.4 624.128 960 512 960c-179.456 0-324.928-145.472-324.928-324.928V576H128c-35.328 0-64-28.672-64-64V0c0-35.328 28.672-64 64-64h768c35.328 0 64 28.672 64 64v512c0 35.328-28.672 64-64 64zM512 128c-70.72 0-128 57.28-128 128s57.28 128 128 128 128-57.28 128-128-57.28-128-128-128z"/><glyph unicode="" glyph-name="icon_key" data-tags="icon_key" d="M992 960H864c-7.744 0-15.232-2.816-21.12-7.936L401.152 564.8C378.304 569.6 342.976 576 320 576 143.552 576 0 432.448 0 256S143.552-64 320-64 640 79.552 640 256c0 52.416-9.984 87.552-21.312 116.736l108.928 36.992c13.248 4.48 22.016 17.088 21.696 31.04l-2.688 121.472 122.24 8.512c16.384 1.152 29.248 14.528 29.76 30.912l4.544 145.856 95.744 21.248c14.656 3.2 25.088 16.256 25.088 31.232v128c0 17.664-14.336 32-32 32zM224 256c38.4 0 71.552-22.592 86.912-55.168A95.857 95.857 0 0 0 320 160c0-52.992-43.008-96-96-96s-96 43.008-96 96 43.008 96 96 96z"/><glyph unicode="" glyph-name="icon_cloud" data-tags="icon_cloud" d="M832 448c-2.24 0-4.352-.576-6.528-.64C829.76 468.224 832 489.856 832 512c0 176.704-143.296 320-320 320S192 688.704 192 512c0-1.088.32-2.112.32-3.2C83.776 493.312 0 400.832 0 288 0 175.232 83.584 82.88 192 67.2V64h640c106.048 0 192 85.952 192 192s-85.952 192-192 192z"/><glyph unicode="" glyph-name="icon_cloud-upload" data-tags="icon_cloud-upload" d="M832 448c-2.24 0-4.352-.576-6.528-.64C829.76 468.224 832 489.856 832 512c0 176.704-143.296 320-320 320S192 688.704 192 512c0-1.088.32-2.112.32-3.2C83.776 493.312 0 400.832 0 288 0 164.288 100.288 64 224 64h160.512C419.584 64 448 92.416 448 127.488V320H312.192L512 576l199.808-256H576V127.488C576 92.416 604.416 64 639.488 64H832c106.048 0 192 85.952 192 192s-85.952 192-192 192z"/><glyph unicode="" glyph-name="icon_cloud-download" data-tags="icon_cloud-download" d="M832 448c-2.24 0-4.352-.576-6.528-.64C829.76 468.224 832 489.856 832 512c0 176.704-143.296 320-320 320S192 688.704 192 512c0-1.088.32-2.112.32-3.2C83.776 493.312 0 400.832 0 288 0 175.232 83.584 82.88 192 67.2V64h320L312.192 320H448v256c0 35.328 28.672 64 64 64s64-28.672 64-64V320h135.808L512 64h320c106.048 0 192 85.952 192 192s-85.952 192-192 192z"/><glyph unicode="" glyph-name="icon_lightbulb" data-tags="icon_lightbulb" d="M869.632 443.008c4.544 12.16 8.32 24.704 11.584 37.312.576 2.176 1.28 4.224 1.792 6.4 2.88 11.84 4.928 23.936 6.656 36.096.384 2.816 1.088 5.632 1.408 8.448 1.728 14.784 2.688 29.696 2.688 44.736 0 211.712-172.288 384-384 384s-384-172.288-384-384c0-15.04.96-29.952 2.752-44.672.32-2.88.96-5.632 1.344-8.448 1.728-12.16 3.776-24.256 6.656-36.096.512-2.176 1.216-4.288 1.792-6.4 3.264-12.608 7.04-25.152 11.584-37.312.448-1.152.96-2.304 1.344-3.456 5.056-13.12 10.688-25.984 17.152-38.464.256-.512.512-.96.768-1.408a385.368 385.368 0 0 1 22.336-37.632c.256-.384.512-.704.704-1.088 8-11.84 16.704-23.168 25.984-34.112.768-.896 1.472-1.728 2.24-2.624 8.448-9.792 17.6-19.072 27.072-28.032 2.112-1.984 4.096-3.968 6.272-5.888 2.816-2.496 5.312-5.312 8.256-7.744 1.728-1.472 3.84-2.432 5.76-3.648 6.336-5.248 12.352-10.752 19.072-15.616 2.688-1.92 4.352-3.776 6.656-5.696C337.664 220.992 316.096 192 365.248 192h289.024c49.088 0 27.584 28.992 71.808 65.664 2.304 1.92 3.968 3.712 6.656 5.696 6.72 4.864 12.736 10.368 19.072 15.616 1.856 1.28 3.968 2.176 5.76 3.648 2.88 2.432 5.44 5.248 8.256 7.744 2.112 1.92 4.16 3.968 6.272 5.888 9.472 8.96 18.56 18.24 27.072 28.032.768.896 1.472 1.728 2.24 2.624 9.28 10.944 17.984 22.272 25.984 34.112.256.384.512.704.704 1.088a389.068 389.068 0 0 1 22.272 37.568c.256.448.512.96.768 1.408 6.464 12.48 12.096 25.344 17.152 38.464.384 1.216.896 2.304 1.344 3.456zM736 572.992c-17.664 0-32 14.336-32 32C704 702.528 616 768 544 768c-17.664 0-32 14.336-32 32s14.336 32 32 32c110.016 0 224-81.024 224-227.008 0-17.664-14.336-32-32-32zM505.856 0H365.248L480.64-59.008c9.152-4.672 19.136-7.04 29.12-7.04 9.856 0 19.776 2.304 28.864 6.848L655.68 0H505.856zM704 96c0 17.664-14.336 32-32 32H352c-17.664 0-32-14.336-32-32s14.336-32 32-32h320c17.664 0 32 14.336 32 32z"/><glyph unicode="" glyph-name="icon_gift" data-tags="icon_gift" d="M960 704H578.688V512H1024v128c0 35.328-28.672 64-64 64zm-896 0c-35.328 0-64-28.672-64-64V512h448v192H64zm0-256V0c0-35.328 28.672-64 64-64h320v512H64zM896-64c35.328 0 64 28.672 64 64v448H578.688V-64H896zM511.936 768.512h.192A1.506 1.506 0 0 1 512 768h256c88.384 0 128 43.008 128 96s-39.616 96-128 96c-82.752 0-147.904-37.248-192-80.448-19.328 11.456-41.664 18.432-65.856 18.432-23.168 0-44.608-6.528-63.424-17.152C402.688 923.52 337.92 960 256 960c-88.384 0-128-43.008-128-96s39.616-96 128-96h256c0 .128-.064.384-.064.512zM832 864c0-26.432-34.816-32-64-32H622.656c-.512.896-.96 1.856-1.472 2.688C653.696 866.304 702.976 896 768 896c29.184 0 64-5.568 64-32zm-640 0c0 26.432 34.816 32 64 32 63.616 0 111.872-28.48 144.384-59.008-1.024-1.6-1.792-3.328-2.752-4.992H256c-29.184 0-64 5.568-64 32z"/><glyph unicode="" glyph-name="icon_house" data-tags="icon_house" d="M52.992 455.808L512 853.632l459.008-397.824A32.037 32.037 0 0 1 992 448c8.96 0 17.856 3.776 24.192 11.008 11.584 13.376 10.112 33.536-3.2 45.184l-480 416c-12.032 10.432-29.888 10.432-41.92 0L320 771.968V832c0 35.328-28.672 64-64 64s-64-28.672-64-64V661.056L11.008 504.192c-13.312-11.584-14.784-31.808-3.2-45.184 11.648-13.312 31.808-14.784 45.184-3.2zM384 320h256V0h192c35.328 0 64 28.672 64 64v313.664c0 19.2-8.576 37.312-23.424 49.472l-320 262.336C540.8 699.136 526.4 704 512 704s-28.8-4.864-40.576-14.528l-320-262.336C136.576 415.04 128 396.864 128 377.664V64c0-35.328 28.672-64 64-64h192v320z"/><glyph unicode="" glyph-name="icon_camera" data-tags="icon_camera" d="M960 704H832s-36.992 0-64 64c-13.76 32.576-28.672 64-64 64H448c-35.328 0-50.688-31.232-64-64-25.984-64-64-64-64-64h-64c0 35.328-28.672 64-64 64h-64c-35.328 0-64-28.672-64-64-35.328 0-64-28.672-64-64V512h355.52C399.872 588.224 481.472 640 576 640s176.128-51.776 220.48-128H1024v128c0 35.328-28.672 64-64 64zM224 576H96c-17.664 0-32 14.336-32 32s14.336 32 32 32h128c17.664 0 32-14.336 32-32s-14.336-32-32-32zm160-192c0-106.039 85.961-192 192-192s192 85.961 192 192-85.961 192-192 192-192-85.961-192-192zm448 0c0-141.376-114.624-256-256-256S320 242.624 320 384c0 22.208 3.712 43.456 9.024 64H0V128c0-35.328 28.672-64 64-64h896c35.328 0 64 28.672 64 64v320H822.976c5.312-20.544 9.024-41.792 9.024-64z"/><glyph unicode="" glyph-name="icon_mail" data-tags="icon_mail" d="M960 832H64c-35.328 0-64-28.672-64-64V660.544l512-204.8 512 204.8V768c0 35.328-28.672 64-64 64zM0 556.032V128c0-35.328 28.672-64 64-64h896c35.328 0 64 28.672 64 64v428.032l-512-204.8-512 204.8z"/><glyph unicode="" glyph-name="icon_cone" data-tags="icon_cone" d="M694.272 576L572.288 917.504C563.2 942.976 539.072 960 512 960s-51.2-17.024-60.288-42.496L329.728 576h364.544zm160-448l-91.456 256H261.184l-91.456-256zM64 64C28.672 64 0 35.328 0 0s28.672-64 64-64h896c35.328 0 64 28.672 64 64s-28.672 64-64 64H64z"/><glyph unicode="" glyph-name="icon_ribbon" data-tags="icon_ribbon" d="M128 768V0c0-25.856 15.616-49.216 39.488-59.136A64.385 64.385 0 0 1 192-64a64.022 64.022 0 0 1 45.248 18.752L512 229.504 786.752-45.248A64.022 64.022 0 0 1 832-64a63.83 63.83 0 0 1 24.448 4.864C880.384-49.216 896-25.856 896 0v768H128zm768 64v64c0 35.328-28.672 64-64 64H192c-35.328 0-64-28.672-64-64v-64h768z"/><glyph unicode="" glyph-name="icon_bag" data-tags="icon_bag" d="M192-64h640c35.328 0 64 28.672 64 64v704c0 35.328-28.672 64-64 64H703.68C702.144 874.304 617.024 960 512 960s-190.144-85.696-191.68-192H192c-35.328 0-64-28.672-64-64V0c0-35.328 28.672-64 64-64zm416 640H416c-17.664 0-32 14.336-32 32s14.336 32 32 32h192c17.664 0 32-14.336 32-32s-14.336-32-32-32zm-96 320c69.568 0 126.144-57.152 127.68-128H384.32c1.536 70.848 58.112 128 127.68 128z"/><glyph unicode="" glyph-name="icon_cart" data-tags="icon_cart" d="M960 768H192c-4.992 0-9.344-1.728-14.016-2.816l-24.832 106.112A31.98 31.98 0 0 1 121.984 896h-91.84c-17.664 0-32-14.336-32-32s14.272-32 32-32H96.64l39.744-169.984L192 384c0-2.304 1.088-4.288 1.344-6.528l-32.576-146.56a31.897 31.897 0 0 1 6.272-26.944C173.12 196.352 182.272 192 192 192h726.016c17.664 0 32 14.336 32 32s-14.336 32-32 32h-686.08l14.656 65.92c3.2-.512 6.08-1.92 9.408-1.92h583.36c35.328 0 56.64 6.976 73.664 48l103.936 318.848C1035.008 744 995.392 768 960 768zM192 64c0-35.346 28.654-64 64-64s64 28.654 64 64c0 35.346-28.654 64-64 64s-64-28.654-64-64zm576 0c0-35.346 28.654-64 64-64s64 28.654 64 64c0 35.346-28.654 64-64 64s-64-28.654-64-64z"/><glyph unicode="" glyph-name="icon_tag" data-tags="icon_tag" d="M993.856 959.68h-1.728c-.512 0-.96.064-1.472 0H588.288c-9.792-.448-32.064-15.744-34.944-18.624L82.688 470.4c-24.96-24.96-24.96-65.408 0-90.368L444.032 18.688C456.576 6.208 472.896 0 489.216 0S521.92 6.208 534.4 18.688l470.656 470.656c2.88 2.88 18.944 22.656 18.944 34.944v403.648c.896 17.856-12.608 31.744-30.144 31.744zM928 832c-17.664 0-32 14.336-32 32s14.336 32 32 32 32-14.336 32-32-14.336-32-32-32z"/><glyph unicode="" glyph-name="icon_tags" data-tags="icon_tags" d="M929.856 960h-1.728c-.512 0-.96.064-1.472 0H588.288c-9.792-.512-32.064-15.808-34.944-18.688l-407.36-407.296c-24.96-24.96-24.96-65.408 0-90.368l50.816-50.816-50.816-50.816c-24.96-24.96-24.96-65.408 0-90.368L443.328-45.696c12.48-12.48 28.8-18.688 45.184-18.688s32.704 6.208 45.184 18.688l407.296 407.36c2.944 2.88 19.008 22.592 19.008 34.88v531.648c.896 17.856-12.608 31.808-30.144 31.808zM864 896.256c17.664 0 32-14.336 32-32s-14.336-32-32-32-32 14.336-32 32 14.336 32 32 32zm31.808-489.408L488.64-.512 191.296 296.704l50.816 50.816 201.28-201.28c12.48-12.48 28.8-18.688 45.184-18.688s32.704 6.208 45.184 18.688L896 508.544V407.36c-.192-.32-.32-.512-.192-.512-.064 0-.064 0 0 0z"/><glyph unicode="" glyph-name="icon_trash" data-tags="icon_trash" d="M832 896H704c0 35.328-28.672 64-64 64H448c-35.328 0-64-28.672-64-64H256c-35.328 0-64-28.672-64-64h704c0 35.328-28.672 64-64 64zM192 0c0-35.328 28.672-64 64-64h576c35.328 0 64 28.672 64 64v768H192V0zm512 608c0 17.664 14.336 32 32 32s32-14.336 32-32V96c0-17.664-14.336-32-32-32s-32 14.336-32 32v512zm-192 0c0 17.664 14.336 32 32 32s32-14.336 32-32V96c0-17.664-14.336-32-32-32s-32 14.336-32 32v512zm-192 0c0 17.664 14.336 32 32 32s32-14.336 32-32V96c0-17.664-14.336-32-32-32s-32 14.336-32 32v512z"/><glyph unicode="" glyph-name="icon_cursor" data-tags="icon_cursor" d="M849.92 279.296c6.848 11.712 5.632 26.432-3.136 36.8L314.496 948.608c-8.704 10.304-22.912 14.08-35.456 9.472-12.608-4.608-21.056-16.64-21.056-30.08V92.992a31.998 31.998 0 0 1 21.952-30.4c3.264-1.088 6.656-1.6 10.048-1.6 9.92 0 19.52 4.608 25.664 12.928l143.104 192.768L558.016-17.28c12.736-36.352 52.544-55.552 88.896-42.816S702.464-7.552 689.728 28.8L592.32 307.392l223.872-43.328c13.504-2.624 26.88 3.584 33.728 15.232z"/><glyph unicode="" glyph-name="icon_mic" data-tags="icon_mic" d="M448 134.144V0h-96c-17.664 0-32-14.336-32-32s14.336-32 32-32h320c17.664 0 32 14.336 32 32S689.664 0 672 0h-96v134.528C709.312 160.832 832 268.736 832 448v96c0 17.664-14.336 32-32 32s-32-14.336-32-32v-96c0-168.064-128.832-256-256-256-123.328 0-256 80.128-256 256v96c0 17.664-14.336 32-32 32s-32-14.336-32-32v-96c0-181.76 120.512-288.384 256-313.856zM512 320c70.72 0 128 57.28 128 128v384c0 70.72-57.28 128-128 128s-128-57.28-128-128V448c0-70.72 57.28-128 128-128z"/><glyph unicode="" glyph-name="icon_compass" data-tags="icon_compass" d="M512 960C229.248 960 0 730.752 0 448S229.248-64 512-64s512 229.248 512 512-229.248 512-512 512zm251.136-304.96L639.168 456.384c.192-2.816.832-5.504.832-8.384 0-70.72-57.28-128-128-128-2.88 0-5.568.64-8.384.832L304.96 196.864C299.776 193.6 293.888 192 288 192c-8.256 0-16.448 3.2-22.656 9.344-10.56 10.56-12.416 26.944-4.48 39.552l123.968 198.656c-.192 2.88-.832 5.568-.832 8.448 0 70.72 57.28 128 128 128 2.88 0 5.568-.64 8.384-.832L719.04 699.136c12.416 7.872 28.992 6.016 39.552-4.544 10.624-10.496 12.48-26.88 4.544-39.552zM448 448c0-35.346 28.654-64 64-64s64 28.654 64 64c0 35.346-28.654 64-64 64s-64-28.654-64-64z"/><glyph unicode="" glyph-name="icon_pin" data-tags="icon_pin" d="M488.704-46.656c5.376-5.952 10.56-9.792 15.552-12.48.064-.064.192-.064.256-.128 3.456-1.792 6.848-3.136 10.048-3.136s6.592 1.344 10.048 3.136c.064.064.192.064.256.128 4.992 2.688 10.176 6.528 15.552 12.48 0 0 297.472 323.52 327.36 603.84 1.792 14.464 3.008 29.12 3.008 44.032C870.784 799.36 710.144 960 512 960S153.216 799.36 153.216 601.216c0-15.168 1.216-29.952 3.072-44.608C186.944 276.416 488.704-46.656 488.704-46.656zM512 832c127.232 0 230.784-103.552 230.784-230.784S639.232 370.432 512 370.432 281.216 473.984 281.216 601.216C281.216 728.448 384.768 832 512 832z"/><glyph unicode="" glyph-name="icon_pushpin" data-tags="icon_pushpin" d="M256 335.552c0-49.088 123.52-75.136 256.064-78.784 0-.256-.064-.512-.064-.768V64c0-35.328 14.336-128 32-128s32 92.672 32 128v192c0 .256-.064.512-.064.768C708.48 260.416 832 286.464 832 335.552c0 52.096-47.168 90.112-128 110.592V777.6c80.832 27.392 128 71.488 128 102.848 0 106.048-576 106.048-576 0 0-34.496 47.168-77.632 128-104V446.144c-80.832-20.544-128-58.496-128-110.592z"/><glyph unicode="" glyph-name="icon_map" data-tags="icon_map" d="M322.688 774.272L64 896V128L322.688 6.272zm64-767.104L641.344 121.92v768L386.688 775.168zm318.656 113.408L960 0v768L705.344 888.576z"/><glyph unicode="" glyph-name="icon_drawer" data-tags="icon_drawer" d="M896 832c-17.984 40-50.624 64-86.016 64H208c-35.328 0-64-24-80-64L0 320V30.976c0-17.664 14.336-32 32-32h960c17.664 0 32 14.336 32 32v285.056l-.832 2.944L896 832zm-707.52-21.312C191.424 817.28 198.912 832 208 832h601.984c8.768 0 18.88-9.024 25.984-22.784l112.704-458.048c0-.128-.192 0-.192-.128 0-17.664-14.336-32-32-32-.064 0-.064-.064-.128-.064H672c-17.664 0-32-14.336-32-32V224c0-17.664-14.336-32-32-32-.64 0-1.28-.832-1.92-1.024H417.088c-.448.192-.448 1.024-1.088 1.024-17.664 0-32 14.336-32 32v62.976c0 17.664-14.336 32-32 32H107.648c-.064 0-.064.064-.128.064-17.664 0-32.512 14.336-32.512 32 0 .448-.512.128-.64.448l114.112 459.2z"/><glyph unicode="" glyph-name="icon_toolbox" data-tags="icon_toolbox" d="M960 768H704v64c0 35.328-28.672 64-64 64H384c-35.328 0-64-28.672-64-64v-64H64c-35.328 0-64-28.672-64-64V576h1024v128c0 35.328-28.672 64-64 64zm-576 64h256v-64H384v64zm0-320h256v-64H384zm320-64c0-35.328-28.672-64-64-64H384c-35.328 0-64 28.672-64 64v64H0V128c0-35.328 28.672-64 64-64h896c35.328 0 64 28.672 64 64v384H704v-64z"/><glyph unicode="" glyph-name="icon_book" data-tags="icon_book" d="M161.344-64h605.12c35.328 0 64 28.672 64 64v672c0 17.664-14.336 32-32 32H256c-1.6 0-4.736-.256-7.744-.448l-86.912.448C107.648 704 64 745.024 64 798.656 64 852.352 106.304 896 160 896h736V160c0-17.664 12.8-32 30.528-32S960 142.336 960 160v768c0 17.664-15.808 32-33.472 32H161.344C73.024 960 1.536 889.024.256 801.024l-.256.32v-704C0 8.256 72.256-64 161.344-64z"/><glyph unicode="" glyph-name="icon_contacts" data-tags="icon_contacts" d="M64 960c-35.328 0-64-28.672-64-64V0c0-35.328 28.672-64 64-64h64V960H64zm768 0H192V-64h640c35.328 0 64 28.672 64 64v896c0 35.328-28.672 64-64 64zM540.48 713.344c53.504 0 96.832-43.392 96.832-96.832 0-53.504-43.392-96.896-96.832-96.896-53.504 0-96.896 43.392-96.896 96.896s43.392 96.832 96.896 96.832zM384 268.352c0 117.376 70.976 212.48 158.464 212.48s158.464-95.168 158.464-212.48S384 151.04 384 268.352zM960 896h64V704h-64zm0-256h64V448h-64zm0-256h64V192h-64z"/><glyph unicode="" glyph-name="icon_archive" data-tags="icon_archive" d="M960 832H64c-35.328 0-64-28.672-64-64V640h1024v128c0 35.328-28.672 64-64 64zM64 0c0-35.328 28.672-64 64-64h768c35.328 0 64 28.672 64 64v576H64V0zm320 448h256c35.328 0 64-28.672 64-64s-28.672-64-64-64H384c-35.328 0-64 28.672-64 64s28.672 64 64 64z"/><glyph unicode="" glyph-name="icon_heart" data-tags="icon_heart" d="M1023.488 581.312C1020.8 738.368 893.376 878.336 736 878.336c-91.008 0-171.2-47.616-224-117.504-52.8 69.888-132.992 117.504-224 117.504-157.376 0-284.8-139.968-287.488-297.024H0c0-.96.192-1.856.192-2.816 0-.704-.192-1.408-.192-2.176 0-4.416 1.088-7.744 1.28-11.968C15.36 164.096 507.968 0 507.968 0s499.84 163.904 514.624 563.712c.256 4.48 1.408 8 1.408 12.608 0 .768-.192 1.472-.192 2.176 0 1.024.192 1.856.192 2.816h-.512z"/><glyph unicode="" glyph-name="icon_profile" data-tags="icon_profile" d="M704 768c0 102.784-89.216 192-192 192s-192-89.216-192-192 89.216-192 192-192 192 89.216 192 192zM512 512c-168.192 0-320-181.44-320-406.912s640-225.472 640 0S680.192 512 512 512z"/><glyph unicode="" glyph-name="icon_group" data-tags="icon_group" d="M448 800c0 85.632-74.368 160-160 160s-160-74.368-160-160 74.368-160 160-160 160 74.368 160 160zm112-608c0 256-132.864 384-280 384S0 448 0 192c0-175.36 560-175.36 560 0zm192 323.52c85.632 0 160 74.368 160 160s-74.368 160-160 160-160-74.368-160-160 74.368-160 160-160zm-8-64c-44.224 0-86.592-12.992-124.992-36.16C642.24 352.896 656 278.848 656 192 656 105.792 598.528 38.656 499.904.256 622.208-103.296 1024-81.216 1024 67.52c0 256-132.864 384-280 384z"/><glyph unicode="" glyph-name="icon_grid-2x2" data-tags="icon_grid-2x2" d="M192 512h192c35.328 0 64 28.672 64 64v192c0 35.328-28.672 64-64 64H192c-35.328 0-64-28.672-64-64V576c0-35.328 28.672-64 64-64zm448 0h192c35.328 0 64 28.672 64 64v192c0 35.328-28.672 64-64 64H640c-35.328 0-64-28.672-64-64V576c0-35.328 28.672-64 64-64zM128 128c0-35.328 28.672-64 64-64h192c35.328 0 64 28.672 64 64v192c0 35.328-28.672 64-64 64H192c-35.328 0-64-28.672-64-64V128zm448 0c0-35.328 28.672-64 64-64h192c35.328 0 64 28.672 64 64v192c0 35.328-28.672 64-64 64H640c-35.328 0-64-28.672-64-64V128z"/><glyph unicode="" glyph-name="icon_grid-3x3" data-tags="icon_grid-3x3" d="M128 640h128c35.328 0 64 28.672 64 64v128c0 35.328-28.672 64-64 64H128c-35.328 0-64-28.672-64-64V704c0-35.328 28.672-64 64-64zm320 0h128c35.328 0 64 28.672 64 64v128c0 35.328-28.672 64-64 64H448c-35.328 0-64-28.672-64-64V704c0-35.328 28.672-64 64-64zm320 0h128c35.328 0 64 28.672 64 64v128c0 35.328-28.672 64-64 64H768c-35.328 0-64-28.672-64-64V704c0-35.328 28.672-64 64-64zM64 384c0-35.328 28.672-64 64-64h128c35.328 0 64 28.672 64 64v128c0 35.328-28.672 64-64 64H128c-35.328 0-64-28.672-64-64V384zm320 0c0-35.328 28.672-64 64-64h128c35.328 0 64 28.672 64 64v128c0 35.328-28.672 64-64 64H448c-35.328 0-64-28.672-64-64V384zm320 0c0-35.328 28.672-64 64-64h128c35.328 0 64 28.672 64 64v128c0 35.328-28.672 64-64 64H768c-35.328 0-64-28.672-64-64V384zM64 64c0-35.328 28.672-64 64-64h128c35.328 0 64 28.672 64 64v128c0 35.328-28.672 64-64 64H128c-35.328 0-64-28.672-64-64V64zm320 0c0-35.328 28.672-64 64-64h128c35.328 0 64 28.672 64 64v128c0 35.328-28.672 64-64 64H448c-35.328 0-64-28.672-64-64V64zm320 0c0-35.328 28.672-64 64-64h128c35.328 0 64 28.672 64 64v128c0 35.328-28.672 64-64 64H768c-35.328 0-64-28.672-64-64V64z"/><glyph unicode="" glyph-name="icon_music" data-tags="icon_music" d="M25.536-14.592C73.408-76.736 172.288-80.768 246.4-23.68c30.144 23.232 51.008 53.056 62.592 84.352C315.648 73.856 320 92.544 320 113.92v478.272l576 108.864V448.512c0-89.088-68.16-109.568-92.288-114.112-2.112-.256-4.16-.768-6.272-1.152-1.088-.128-2.688-.32-2.688-.32l.384-.128c-28.544-5.184-57.28-17.152-83.072-36.992-74.112-57.088-95.424-153.728-47.552-215.872s146.752-66.24 220.864-9.152c37.504 28.928 61.376 67.968 69.696 107.52 2.88 9.6 4.928 20.16 4.928 32.128v621.184c0 3.904-.768 7.232-1.088 10.944.128 1.92 1.088 4.096 1.088 6.016v64c0 35.328-28.672 55.296-64 44.48L320 848.192c-35.328-10.752-64-48.192-64-83.52v-64c0-.896.448-1.536.512-2.368-.064-1.92-.512-3.584-.512-5.504V353.984c0-89.216-68.352-109.632-92.416-114.112-1.216-.192-2.432-.576-3.712-.768-3.136-.512-5.184-.704-5.184-.704l.704-.32c-28.288-5.312-56.768-17.152-82.304-36.8-74.112-57.088-95.36-153.728-47.552-215.872z"/><glyph unicode="" glyph-name="icon_pause_alt" data-tags="icon_pause_alt" d="M512 960C229.248 960 0 730.752 0 448S229.248-64 512-64s512 229.248 512 512-229.248 512-512 512zm-64-640c0-35.328-28.672-64-64-64s-64 28.672-64 64v256c0 35.328 28.672 64 64 64s64-28.672 64-64V320zm256 0c0-35.328-28.672-64-64-64s-64 28.672-64 64v256c0 35.328 28.672 64 64 64s64-28.672 64-64V320z"/><glyph unicode="" glyph-name="icon_phone" data-tags="icon_phone" d="M422.912 701.952C410.688 842.56 264 911.552 257.792 914.368c-5.824 2.752-12.352 3.584-18.624 2.496C69.824 888.768 44.352 790.208 43.328 786.112c-1.408-5.76-1.152-11.712.64-17.28C245.952 142.144 665.728 25.984 803.712-12.224c10.624-2.944 19.392-5.312 26.048-7.488 3.2-1.088 6.528-1.536 9.856-1.536 4.544 0 9.088.96 13.248 2.88 4.224 1.92 103.936 48.896 128.32 202.112a31.911 31.911 0 0 1-3.072 19.584c-2.176 4.224-54.336 103.488-198.976 138.56-10.112 2.624-20.48-.064-28.288-6.72-45.632-38.976-108.672-80.512-135.872-84.8-182.336 89.152-284.16 260.224-288 292.672-2.24 18.24 39.552 82.304 87.616 134.4 6.08 6.592 9.152 15.552 8.32 24.512z"/><glyph unicode="" glyph-name="icon_upload" data-tags="icon_upload" d="M192 640h192V256h256l-1.344 384H832L512 960zm576-512H256v128H128V0h768v256H768z"/><glyph unicode="" glyph-name="icon_download" data-tags="icon_download" d="M512 256l320 320H640v384H384l1.152-384H192zM128 128V0h768v256H768V128H256v128H128z"/><glyph unicode="" glyph-name="social_facebook" data-tags="social_facebook" d="M385.728-64H577.6l.128 512 174.272.064 18.688 176.448H577.6l.256 88.32c0 46.016 3.136 70.656 69.184 70.656h121.984V960H594.112c-169.536 0-208.576-87.616-208.576-231.552l.192-103.936-128.704-.064V448h128.704V-64z"/><glyph unicode="" glyph-name="social_twitter" data-tags="social_twitter" d="M995.776 848.64c-40.576-24.064-85.568-41.536-133.44-51.008C824 838.528 769.408 864 708.992 864 592.96 864 498.88 769.92 498.88 653.952c0-16.448 1.856-32.512 5.44-47.872-174.592 8.768-329.408 92.416-433.024 219.52C53.184 794.624 42.88 758.528 42.88 720c0-72.896 37.12-137.216 93.44-174.848-34.432 1.152-66.816 10.624-95.168 26.368v-2.624c0-101.76 72.448-186.688 168.512-206.016-17.6-4.8-36.16-7.36-55.36-7.36-13.568 0-26.688 1.344-39.552 3.776 26.752-83.456 104.32-144.192 196.224-145.92-71.872-56.32-162.496-89.92-260.928-89.92-16.96 0-33.664 1.024-50.112 2.944C92.928 66.816 203.328 32 321.984 32c386.432 0 597.76 320.128 597.76 597.76 0 9.088-.192 18.176-.64 27.2 41.152 29.504 76.8 66.496 104.96 108.608-37.696-16.704-78.144-28.032-120.64-33.088 43.392 25.984 76.672 67.2 92.352 116.16z"/><glyph unicode="" glyph-name="social_pinterest" data-tags="social_pinterest" d="M257.92 367.808c49.472 87.488-15.936 106.688-26.176 170.112-41.92 259.2 299.008 436.224 477.568 255.104 123.52-125.44 42.176-511.104-156.992-471.04-190.784 38.336 93.44 345.344-58.816 405.568C369.728 776.576 304 577.792 362.688 478.976 328.256 309.056 254.144 149.056 284.16-64c97.28 70.592 130.112 205.824 156.992 346.816 48.896-29.76 75.072-60.672 137.408-65.472 229.952-17.856 358.464 229.568 326.976 457.92-27.904 202.368-229.696 305.408-444.864 281.28C290.56 937.472 120.96 799.936 113.92 603.264c-4.288-120.064 29.76-210.176 144-235.456z"/><glyph unicode="" glyph-name="social_googleplus" data-tags="social_googleplus" horiz-adv-x="1664" d="M524.8 576V384H800c-38.4-134.4-115.2-236.8-275.2-236.8-172.8 0-307.2 140.8-307.2 307.2 0 172.8 134.4 307.2 307.2 307.2 89.6 0 153.6-32 204.8-70.4C768 729.6 768 736 870.4 838.4 780.8 908.8 652.8 960 524.8 960 236.8 960 0 736 0 454.4S236.8-64 524.8-64C953.6-64 1056 332.8 1024 576H524.8zm1139.2 0h-192v192h-128V576h-192V448h192V256h128v192h192z"/><glyph unicode="" glyph-name="social_tumblr" data-tags="social_tumblr" d="M329.472 181.248c0-46.784 4.928-82.56 14.72-107.2 9.856-24.64 27.392-47.936 52.864-69.824 25.344-21.76 56.064-38.72 92.032-50.56C525.12-58.112 552.64-64 599.488-64c41.216 0 79.552 4.16 115.072 12.416 35.456 8.32 73.6 20.352 117.312 40.896v153.984c-51.264-33.728-81.92-40.576-133.76-40.576-29.12 0-54.976 6.784-77.696 20.416-17.088 10.048-32.704 27.456-38.976 44.16-6.336 16.832-5.568 51.072-5.568 110.528L576 512h255.936v192H576v256H410.88c-6.528-52.8-18.56-96.384-35.904-130.496-17.344-34.24-40.384-63.488-69.12-87.936-28.544-24.384-73.536-43.136-113.728-56.192V512h137.408V181.248z"/><glyph unicode="" glyph-name="social_tumbleupon" data-tags="social_tumbleupon" d="M704 458.112l-68.032-24-59.968 24V334.08C576 214.144 662.144 128 768 128s192 86.144 192 192v128H832V320c0-35.264-28.736-64-64-64s-64 28.736-64 78.016v124.096zM256 128c105.856 0 192 86.144 192 192v256c0 35.264 28.736 64 64 64 35.2 0 64-28.672 64-49.92V528l60.032-24L704 528v62.08C704 681.92 617.856 768 512 768s-192-86.08-192-192V320c0-35.264-28.736-64-64-64s-64 28.736-64 64v128H64V320c0-105.856 86.144-192 192-192z"/><glyph unicode="" glyph-name="social_wordpress" data-tags="social_wordpress" d="M512 960C229.248 960 0 730.752 0 448S229.248-64 512-64s512 229.248 512 512-229.248 512-512 512zM73.152 448c0 61.952 13.696 120.832 38.016 173.952L320.512 63.36C174.08 132.608 73.152 278.848 73.152 448zM512 20.544c-43.072 0-84.608 6.144-123.968 17.408L519.68 410.624 654.528 50.688c.896-2.112 1.984-4.096 3.136-5.952C612.16 29.12 563.136 20.544 512 20.544zm60.352 627.84c26.432 1.344 50.24 4.032 50.24 4.032 23.68 2.752 20.864 36.544-2.752 35.264 0 0-71.104-5.44-116.928-5.44-43.072 0-115.584 5.44-115.584 5.44-23.68 1.344-26.432-33.856-2.816-35.264 0 0 22.4-2.688 46.016-4.032L498.88 465.92l-96.064-280.512-159.744 462.976c26.496 1.344 50.24 4.032 50.24 4.032 23.616 2.752 20.864 36.544-2.752 35.264 0 0-71.104-5.44-116.928-5.44-8.192 0-17.92.192-28.224.512C223.808 798.784 358.72 875.456 512 875.456c114.24 0 218.24-42.56 296.384-112.192-1.92.128-3.712.384-5.696.384-43.136 0-73.728-36.544-73.728-75.84 0-35.264 20.864-65.024 43.072-100.288 16.768-28.544 36.224-65.088 36.224-117.888 0-36.544-14.4-79.04-33.344-138.24l-43.84-142.4-158.72 459.392zM950.848 448c0-157.696-87.744-295.36-218.24-369.344l134.08 377.408c25.024 60.992 33.344 109.696 33.344 153.088 0 15.744-1.024 30.336-2.944 43.968 34.24-60.928 53.76-130.816 53.76-205.12z"/><glyph unicode="" glyph-name="social_instagram" data-tags="social_instagram" d="M512 867.776c136.704 0 152.896-.512 206.912-3.008 49.92-2.304 77.056-10.624 95.04-17.6 23.872-9.28 40.96-20.352 58.88-38.272s28.992-34.944 38.272-58.88c7.04-18.048 15.36-45.184 17.6-95.04 2.496-54.08 3.072-70.272 3.072-206.976s-.512-152.896-3.008-206.912c-2.304-49.92-10.624-77.056-17.6-95.04-9.28-23.872-20.352-40.96-38.272-58.88s-34.944-28.992-58.88-38.272c-18.048-7.04-45.184-15.36-95.04-17.6-54.08-2.496-70.272-3.072-206.976-3.072s-152.896.512-206.912 3.008c-49.92 2.304-77.056 10.624-95.04 17.6-23.872 9.28-40.96 20.352-58.88 38.272s-28.992 34.944-38.272 58.88c-7.04 18.048-15.36 45.184-17.6 95.04-2.496 54.08-3.072 70.272-3.072 206.976s.576 152.896 3.008 206.912c2.304 49.92 10.624 77.056 17.6 95.04 9.28 23.872 20.352 40.96 38.272 58.88s34.944 28.992 58.88 38.272c18.048 7.04 45.184 15.36 95.04 17.6 54.08 2.496 70.272 3.072 206.976 3.072zM512 960c-139.072 0-156.48-.576-211.072-3.072-54.528-2.496-91.712-11.136-124.288-23.808-33.664-13.056-62.272-30.592-90.688-59.072-28.48-28.416-46.016-57.024-59.072-90.688C14.208 750.784 5.568 713.6 3.072 659.072.576 604.48 0 587.072 0 448s.576-156.48 3.072-211.072C5.568 182.4 14.208 145.216 26.88 112.64c13.056-33.664 30.592-62.208 59.072-90.688S142.976-24 176.64-37.12c32.576-12.672 69.76-21.312 124.288-23.808C355.52-63.424 372.928-64 512-64s156.48.576 211.072 3.072C777.6-58.432 814.784-49.792 847.36-37.12c33.664 13.056 62.208 30.592 90.688 59.072S984 78.976 997.12 112.64c12.672 32.576 21.312 69.76 23.808 124.288 2.496 54.592 3.072 72 3.072 211.072s-.576 156.48-3.072 211.072c-2.496 54.528-11.136 91.712-23.808 124.288-13.056 33.664-30.592 62.208-59.072 90.688S881.024 920 847.36 933.12c-32.576 12.672-69.76 21.312-124.288 23.808C668.48 959.424 651.072 960 512 960zm0-249.088c-145.216 0-262.912-117.696-262.912-262.912S366.784 185.088 512 185.088 774.912 302.784 774.912 448c0 145.216-117.696 262.912-262.912 262.912zm0-433.6c-94.272 0-170.688 76.416-170.688 170.688S417.728 618.688 512 618.688c94.272 0 170.688-76.416 170.688-170.688S606.272 277.312 512 277.312zM846.72 721.28c0-33.932-27.508-61.44-61.44-61.44s-61.44 27.508-61.44 61.44 27.508 61.44 61.44 61.44 61.44-27.508 61.44-61.44z"/><glyph unicode="" glyph-name="social_dribbble" data-tags="social_dribbble" d="M512 960C229.696 960 0 730.304 0 448S229.696-64 512-64s512 229.696 512 512-229.696 512-512 512zm0-75.328c111.168 0 212.672-41.664 289.92-110.208-7.872-11.2-73.664-99.648-229.184-157.952-71.68 131.648-151.104 239.808-163.2 256 32.896 7.936 67.2 12.16 102.464 12.16zm-185.92-41.536c11.52-15.808 89.664-124.096 162.112-252.928-204.544-54.336-384.704-53.568-404.288-53.312 28.352 135.744 119.808 248.512 242.176 306.24zM74.624 447.36c0 4.48.064 8.96.192 13.376 19.136-.448 231.104-3.136 449.472 62.208 12.544-24.512 24.448-49.408 35.456-74.24a408.86 408.86 0 0 1-17.216-5.184c-225.536-72.896-345.536-271.616-355.456-288.576C117.248 232.448 74.688 335.04 74.624 447.36zM511.936 10.048c-101.056 0-194.24 34.496-268.416 92.288 7.872 16.064 96.448 187.136 343.104 273.088l2.88.96c61.44-159.552 86.784-293.248 93.312-331.648-52.48-22.336-110.208-34.752-170.88-34.688zM756.352 84.8c-4.48 26.624-27.712 154.624-84.928 311.808 137.024 21.952 257.408-13.952 272.384-18.688-19.52-121.664-89.344-226.752-187.456-293.12zm-111.68 380.736a2133.767 2133.767 0 0 1-9.408 22.592c-9.088 21.312-18.816 42.496-28.992 63.36C768 617.472 841.28 711.424 850.496 723.904c60.928-74.432 97.792-169.216 98.688-272.448-14.4 3.072-158.976 32.384-304.512 14.08z"/><glyph unicode="" glyph-name="social_vimeo" data-tags="social_vimeo" d="M587.392 654.272c116.992 70.208 179.456-28.544 119.552-140.352-59.776-111.744-114.368-184.576-142.976-184.576-28.544 0-50.496 74.752-83.2 205.44-33.792 135.104-33.6 378.432-174.144 350.848C174.144 859.584 0 651.648 0 651.648l41.6-54.528s85.76 67.584 114.368 33.792 137.728-441.984 174.144-517.248C361.92 47.616 449.6-39.68 545.856 22.656c96.128 62.336 415.808 335.296 473.088 657.6 57.152 322.24-384.704 254.72-431.552-25.984z"/><glyph unicode="" glyph-name="social_linkedin" data-tags="social_linkedin" d="M130.048 704H320V0H130.048zm579.52-.064C640 703.936 605.312 670.784 576 648.32V704H385.024V0H576v443.2s-6.976 88.256 98.816 88.256c63.744 0 93.184-36.288 93.184-88.256V0h201.216v436.992c0 240-193.216 266.944-259.648 266.944zM128 864c0-53.019 42.981-96 96-96s96 42.981 96 96-42.981 96-96 96-96-42.981-96-96z"/><glyph unicode="" glyph-name="social_rss" data-tags="social_rss" d="M.384 960V763.648c455.808 0 826.752-371.328 826.752-827.648H1024C1024 500.48 564.736 960 .384 960zM478.848-64h197.12c.064 372.864-303.232 676.16-675.84 676.16V415.872c127.808 0 247.936-49.984 338.432-140.544C428.928 185.024 478.848 64.32 478.848-64zM136.32-62.72c75.456 0 136.512 60.672 136.512 135.808-.064 74.688-61.056 136.064-136.512 136.064C61.12 209.152 0 147.84 0 73.088 0-2.048 61.12-62.72 136.32-62.72z"/><glyph unicode="" glyph-name="social_deviantart" data-tags="social_deviantart" d="M727.744 625.664c-114.624 26.88-238.784 25.728-365.952 6.528-4.608-.704-9.152-1.408-13.696-2.176l-42.24 78.272c-41.152-5.504-79.808-14.08-115.584-25.472l40.256-84.224c-65.792-25.472-119.744-61.76-158.656-105.408-64.256-72.96-89.664-164.8-58.816-254.272 6.208-18.048 14.592-35.136 24.96-51.2l478.08 131.328L383.36 564.864c4.544.896 9.216 1.792 13.952 2.624 214.656 38.272 332.096-20.864 396.416-83.84l-163.584-39.68-68.288 109.12c-39.04 2.304-84.096-.064-136.256-8.96l120.32-216.896L1024 458.496c-5.184 12.288-12.672 24.256-22.656 35.776-49.472 57.28-156.736 108.352-273.6 131.392zM174.72 333.696c-14.784 67.328-3.008 142.528 90.432 192.576l73.152-152.96-163.584-39.616z"/><glyph unicode="" glyph-name="social_share" data-tags="social_share" d="M754.752 657.792c28.16-21.312 63.104-34.048 101.12-34.048 92.864 0 168.128 75.264 168.128 168.128S948.736 960 855.872 960c-92.8 0-168.128-75.264-168.128-168.128v-.128l-414.976-200.64c-28.736 22.912-65.088 36.736-104.64 36.736C75.264 627.84 0 552.512 0 459.712s75.264-168.128 168.128-168.128c33.536 0 64.768 9.984 91.008 26.88l428.672-207.232v-.128c0-92.864 75.264-168.128 168.128-168.128s168.128 75.264 168.128 168.128c0 92.864-75.264 168.128-168.128 168.128-38.016 0-72.96-12.736-101.12-34.048l-419.2 202.624c.192 2.56.32 5.056.384 7.616l418.752 202.368z"/><glyph unicode="" glyph-name="social_myspace" data-tags="social_myspace" d="M505.472 703.552c24.832 24.832 37.312 55.296 37.312 91.328 0 35.072-12.48 65.088-37.312 89.92-24.768 24.768-55.36 37.184-91.392 37.184-34.944 0-64.96-12.416-89.792-37.184-24.832-24.896-37.312-54.848-37.312-89.92 0-36.032 12.48-66.496 37.312-91.328 24.896-24.832 54.848-37.248 89.792-37.248 36.032 0 66.624 12.416 91.392 37.248zm113.984-27.776c15.104-15.104 32.64-27.008 52.608-35.776 19.968-8.704 41.728-13.12 65.024-13.12 23.424 0 45.056 4.416 65.024 13.12 19.968 8.832 37.44 20.672 52.608 35.776 15.104 15.104 27.072 32.64 35.84 52.608s13.184 41.6 13.184 65.088c0 23.36-4.352 44.992-13.184 65.024-8.704 19.968-20.736 37.504-35.84 52.608s-32.576 27.072-52.608 35.776c-19.904 8.768-41.6 13.12-65.024 13.12-23.296 0-45.056-4.352-65.024-13.12-19.968-8.704-37.504-20.672-52.608-35.776-15.04-15.168-26.944-32.704-35.776-52.672-8.768-19.968-13.184-41.6-13.184-65.024s4.416-45.056 13.184-65.088c8.832-19.904 20.736-37.44 35.776-52.544zm-449.408 19.712c27.328 0 50.176 9.472 68.736 28.48 18.496 19.072 27.712 42.176 27.712 69.504 0 26.304-9.28 48.96-27.712 67.904-18.56 19.008-41.408 28.544-68.736 28.544-27.2 0-50.432-9.536-69.312-28.544-19.072-18.944-28.544-41.6-28.544-67.904 0-27.328 9.536-50.432 28.544-69.44 18.944-19.008 42.112-28.544 69.312-28.544zM897.92 495.296c-20.416 20.48-44.608 36.544-72.32 48.256-27.84 11.712-57.344 17.536-88.512 17.536s-60.416-5.824-87.616-17.536c-27.328-11.712-51.136-27.328-71.616-46.784-9.728 36.032-29.504 65.92-59.2 89.856-29.76 23.872-64.576 35.84-104.576 35.84-25.344 0-49.152-5.376-71.616-16.064-22.272-10.816-41.856-25.856-58.304-45.312-6.976 25.28-20.48 46.464-40.96 63.552-20.416 17.088-44.8 25.536-73.152 25.536-33.088 0-61.12-11.456-83.968-34.304C63.168 593.024 64 564.928 64 531.84V326.976h168.256V159.232h281.92V-64h450.048v398.592c0 31.168-5.184 60.672-17.408 88.384-12.16 27.776-28.48 51.904-48.896 72.32z"/><glyph unicode="" glyph-name="social_skype" data-tags="social_skype" d="M979.712 445.504c0 258.304-210.56 467.776-470.208 467.776-25.792 0-51.136-2.112-75.712-6.144-44.16 28.8-96.704 45.504-153.216 45.504C125.504 952.64 0 827.008 0 672c0-56.384 16.576-108.8 45.184-152.768a467.165 467.165 0 0 1-5.824-73.728c0-258.368 210.432-467.776 470.144-467.776 29.312 0 57.856 2.88 85.568 7.872 43.072-26.752 93.888-42.304 148.288-42.304 155.072 0 280.64 125.632 280.64 280.64 0 58.56-17.92 113.024-48.704 158.08 2.816 20.8 4.416 41.984 4.416 63.488zM553.472 100.8c-149.44-7.808-219.328 25.28-283.392 85.376-71.552 67.136-42.816 143.68 15.488 147.584 58.24 3.904 93.184-66.048 124.288-85.44 31.04-19.392 149.184-63.552 211.584 7.808 67.968 77.632-45.184 117.824-128.128 129.984-118.4 17.536-267.904 81.536-256.256 207.808C248.704 720 344.192 784.768 444.736 793.856c128.128 11.648 211.584-19.392 277.568-75.712 76.288-65.088 35.008-137.792-13.568-143.616-48.448-5.824-102.784 107.008-209.6 108.672-110.08 1.728-184.448-114.56-48.576-147.584 135.936-33.024 281.472-46.592 333.952-170.816s-81.472-256.192-231.04-264z"/><glyph unicode="" glyph-name="social_youtube" data-tags="social_youtube" d="M885.504 798.528c-233.152 15.68-509.568 19.968-747.008 0-73.728-8.256-124.224-97.984-129.728-166.144-11.648-143.168-11.648-224.64 0-367.808 5.568-68.16 54.784-158.4 129.792-167.872 240.256-15.744 515.264-17.92 747.008 0 72.576 12.608 124.224 99.712 129.792 167.872 11.648 143.168 11.648 233.536 0 376.768-5.632 68.16-46.336 154.112-129.856 157.184zM384 266.88v367.04l320-183.552L384 266.88z"/><glyph unicode="" glyph-name="social_picassa" data-tags="social_picassa" d="M256 4.544V458.24L42.112 244.416C85.952 143.36 161.408 59.264 256 4.544zm64-31.296C379.264-50.752 444.096-64 512-64c189.504 0 354.944 102.976 443.456 256H320V-26.752zM426.24 736L265.472 896.832C107.2 809.728 0 641.408 0 448c0-42.496 5.184-83.776 14.976-123.264L426.24 736zM704 922.752C644.672 946.752 579.904 960 512 960c-60.544 0-118.592-10.56-172.48-29.824L704 565.76v356.992zm64-31.296V256h218.752c24 59.328 37.248 124.096 37.248 192 0 189.504-102.976 354.944-256 443.456z"/><glyph unicode="" glyph-name="social_googledrive" data-tags="social_googledrive" d="M975.616 384L682.688 891.52H341.312L634.304 384zM463.488 511.808l-170.624 295.68L0 300.16 170.688 4.48zM288.704-1.344h564.608L1024 320H472z"/><glyph unicode="" glyph-name="social_flickr" data-tags="social_flickr" d="M0 451.52c0-117.809 95.503-213.312 213.312-213.312s213.312 95.503 213.312 213.312c0 117.809-95.503 213.312-213.312 213.312S0 569.329 0 451.52zm597.376 0c0-117.809 95.503-213.312 213.312-213.312S1024 333.711 1024 451.52c0 117.809-95.503 213.312-213.312 213.312S597.376 569.329 597.376 451.52z"/><glyph unicode="" glyph-name="social_blogger" data-tags="social_blogger" d="M957.824 576h-57.408c-35.136 0-65.984 29.76-68.416 64 0 182.656-147.264 320-331.2 320H332.992C149.184 960 .128 811.968 0 629.312V266.496C0 83.904 149.184-64 332.992-64h358.4C875.328-64 1024 83.904 1024 266.56v234.368c0 36.48-29.44 75.072-66.176 75.072zM320 704h192c35.2 0 64-28.8 64-64s-28.8-64-64-64H320c-35.2 0-64 28.8-64 64s28.8 64 64 64zm384-512H320c-35.2 0-64 28.8-64 64s28.8 64 64 64h384c35.2 0 64-28.8 64-64s-28.8-64-64-64z"/><glyph unicode="" glyph-name="social_spotify" data-tags="social_spotify" d="M512 960C229.248 960 0 730.752 0 448S229.248-64 512-64s512 229.248 512 512-229.248 512-512 512zm236.544-812.16c-6.4-11.648-18.432-18.24-30.848-18.24-5.76 0-11.52 1.408-16.96 4.352-81.984 45.184-175.104 69.056-269.184 69.056-56.384 0-112.064-8.384-165.376-24.896-18.56-5.76-38.272 4.672-43.968 23.232-5.76 18.56 4.608 57.92 23.232 63.68 60.096 18.56 122.752 28.032 186.176 28.032 105.92 0 210.752-26.88 303.104-77.76 17.024-9.344 23.232-50.432 13.824-67.456zm65.024 192.896c-7.296-14.08-21.632-36.928-36.48-36.928-6.4 0-12.864 1.472-18.88 4.672-101.568 52.736-211.456 79.488-326.592 79.488-63.424 0-126.4-8.384-187.2-25.024-21.952-5.952-44.48 6.912-50.432 28.8-5.888 21.888 6.976 59.2 28.864 65.152 67.84 18.496 138.112 27.904 208.768 27.904 126.656 0 252.672-30.72 364.416-88.768 20.096-10.432 27.968-35.2 17.536-55.296zm69.248 185.344c-8.256-16.448-24.768-30.912-42.048-30.912-7.04 0-14.144 1.6-20.864 4.928-121.28 60.48-251.904 91.072-388.288 91.072-71.04 0-141.824-8.64-210.496-25.6-25.152-6.208-50.56 9.088-56.768 34.24-6.272 25.088 9.088 55.488 34.24 61.696 75.968 18.88 154.368 28.416 233.024 28.416 151.04 0 295.744-33.984 430.08-100.928 23.232-11.584 32.64-39.744 21.12-62.912z"/><glyph unicode="" glyph-name="social_delicious" data-tags="social_delicious" d="M960 960H45.568C20.48 960 0 939.52 0 914.368V0c0-35.328 28.672-64 64-64h914.432C1003.52-64 1024-43.52 1024-18.368V896c0 35.328-28.672 64-64 64zM512.704 446.528V0H64v448h448v448h448V446.528H512.704z"/><glyph unicode="" glyph-name="social_facebook_circle" data-tags="social_facebook_circle" d="M512 960C229.248 960 0 730.752 0 448S229.248-64 512-64s512 229.248 512 512c0 282.816-229.248 512-512 512zm132.352-511.936L560.448 448l-.064-307.2H445.248V448h-76.8v105.856l76.8.064-.128 62.336c0 86.4 23.424 138.944 125.12 138.944h84.736V649.28h-52.992c-39.616 0-41.536-14.784-41.536-42.368l-.128-52.992h95.232l-11.2-105.856z"/><glyph unicode="" glyph-name="social_twitter_circle" data-tags="social_twitter_circle" d="M512 960C229.248 960 0 730.752 0 448S229.248-64 512-64s512 229.248 512 512c0 282.816-229.248 512-512 512zm254.72-397.056c.256-5.44.384-10.88.384-16.32 0-166.592-126.784-358.656-358.656-358.656-71.168 0-137.408 20.864-193.216 56.64 9.856-1.152 19.904-1.792 30.08-1.792 59.072 0 113.408 20.16 156.544 53.952-55.168 1.024-101.696 37.504-117.76 87.552a126.035 126.035 0 0 1 23.744-2.24c11.52 0 22.656 1.536 33.216 4.416-57.664 11.584-101.12 62.528-101.12 123.584v1.6c17.024-9.472 36.416-15.104 57.088-15.808-33.792 22.592-56.064 61.184-56.064 104.896 0 23.104 6.208 44.736 17.024 63.36 62.144-76.288 155.072-126.464 259.84-131.712-2.176 9.216-3.264 18.88-3.264 28.736 0 69.568 56.448 126.016 126.08 126.016 36.224 0 68.992-15.296 92.032-39.808a254.065 254.065 0 0 1 80.064 30.592c-9.408-29.44-29.376-54.144-55.424-69.76 25.472 3.008 49.792 9.856 72.384 19.84-16.896-25.216-38.336-47.424-62.976-65.088z"/><glyph unicode="" glyph-name="social_pinterest_circle" data-tags="social_pinterest_circle" d="M512 960C229.248 960 0 730.752 0 448S229.248-64 512-64s512 229.248 512 512c0 282.816-229.248 512-512 512zm39.936-650.432c-37.44 2.88-53.12 21.44-82.432 39.296-16.128-84.608-35.84-165.76-94.208-208.064-18.048 127.808 26.432 223.808 47.104 325.76-35.2 59.328 4.224 178.56 78.464 149.184 91.328-36.16-79.168-220.352 35.328-243.328 119.488-24.064 168.32 207.36 94.208 282.624-107.136 108.672-311.68 2.496-286.528-153.088 6.144-38.016 45.376-49.536 15.68-102.08-68.544 15.168-89.024 69.248-86.4 141.312 4.224 117.952 105.984 200.512 208.064 211.968 129.088 14.464 250.176-47.36 266.944-168.768 18.88-137.024-58.24-285.504-196.224-274.816z"/><glyph unicode="" glyph-name="social_googleplus_circle" data-tags="social_googleplus_circle" d="M512 960C230.4 960 0 729.6 0 448S230.4-64 512-64s512 230.4 512 512-230.4 512-512 512zm-89.6-748.8C294.4 211.2 192 320 192 448s102.4 236.8 230.4 236.8c57.6 0 115.2-25.6 153.6-57.6-38.4-44.8-38.4-51.2-57.6-70.4-25.6 19.2-51.2 38.4-96 38.4-76.8 0-134.4-64-134.4-140.8s57.6-140.8 134.4-140.8c70.4 0 102.4 32 121.6 96H422.4v89.6h224c19.2-115.2-32-288-224-288zM832 384v-64h-64v64h-64v64h64v64h64v-64h64v-64h-64z"/><glyph unicode="" glyph-name="social_tumblr_circle" data-tags="social_tumblr_circle" d="M512 960C229.248 960 0 730.752 0 448S229.248-64 512-64s512 229.248 512 512c0 282.816-229.248 512-512 512zm191.936-473.6H550.4l-.064-140.48c0-35.648-.448-56.192 3.328-66.304 3.776-10.048 13.12-20.48 23.36-26.496 13.632-8.192 29.12-12.224 46.592-12.224 31.104 0 49.472 4.096 80.256 24.32V172.8c-26.24-12.352-49.088-19.52-70.4-24.512-21.248-4.992-44.224-7.488-68.992-7.488-28.096 0-44.672 3.52-66.24 10.624s-40 17.28-55.232 30.336c-15.296 13.12-25.792 27.136-31.744 41.92-5.888 14.784-8.832 36.224-8.832 64.32v215.424h-82.368v87.04c24.128 7.808 51.136 19.072 68.288 33.728 17.216 14.656 31.04 32.192 41.472 52.736 10.368 20.416 17.536 46.592 21.504 78.272H550.4V601.6h153.536V486.4z"/><glyph unicode="" glyph-name="social_stumbleupon_circle" data-tags="social_stumbleupon_circle" d="M512 960C229.248 960 0 730.752 0 448S229.248-64 512-64s512 229.248 512 512c0 282.816-229.248 512-512 512zm0-374.784c-25.216 0-45.76-20.544-45.76-45.76V356.48c0-75.648-61.568-137.216-137.216-137.216S191.808 280.832 191.808 356.48V448h91.456v-91.456c0-25.216 20.544-45.76 45.76-45.76s45.76 20.544 45.76 45.76v182.912c0 75.648 61.568 137.216 137.216 137.216s137.216-61.568 137.216-127.232v-44.352L590.592 488l-32.896 17.152v44.352c0 15.168-20.544 35.712-45.696 35.712zm320.128-228.672c0-75.648-61.568-137.216-137.216-137.216s-137.216 61.568-137.216 147.264v88.576l32.896-17.152 58.624 17.152v-88.64c0-35.2 20.544-55.744 45.76-55.744s45.76 20.544 45.76 45.76V448h91.456v-91.456z"/><glyph unicode="" glyph-name="social_wordpress_circle" data-tags="social_wordpress_circle" d="M512 960C229.248 960 0 730.752 0 448S229.248-64 512-64s512 229.248 512 512-229.248 512-512 512zM73.152 448c0 61.952 13.696 120.832 38.016 173.952L320.512 63.36C174.08 132.608 73.152 278.848 73.152 448zM512 20.544c-43.072 0-84.608 6.144-123.968 17.408L519.68 410.624 654.528 50.688c.896-2.112 1.984-4.096 3.136-5.952C612.16 29.12 563.136 20.544 512 20.544zm60.352 627.84c26.432 1.344 50.24 4.032 50.24 4.032 23.68 2.752 20.864 36.544-2.752 35.264 0 0-71.104-5.44-116.928-5.44-43.072 0-115.584 5.44-115.584 5.44-23.68 1.344-26.432-33.856-2.816-35.264 0 0 22.4-2.688 46.016-4.032L498.88 465.92l-96.064-280.512-159.744 462.976c26.496 1.344 50.24 4.032 50.24 4.032 23.616 2.752 20.864 36.544-2.752 35.264 0 0-71.104-5.44-116.928-5.44-8.192 0-17.92.192-28.224.512C223.808 798.784 358.72 875.456 512 875.456c114.24 0 218.24-42.56 296.384-112.192-1.92.128-3.712.384-5.696.384-43.136 0-73.728-36.544-73.728-75.84 0-35.264 20.864-65.024 43.072-100.288 16.768-28.544 36.224-65.088 36.224-117.888 0-36.544-14.4-79.04-33.344-138.24l-43.84-142.4-158.72 459.392zM950.848 448c0-157.696-87.744-295.36-218.24-369.344l134.08 377.408c25.024 60.992 33.344 109.696 33.344 153.088 0 15.744-1.024 30.336-2.944 43.968 34.24-60.928 53.76-130.816 53.76-205.12z"/><glyph unicode="" glyph-name="social_instagram_circle" data-tags="social_instagram_circle" d="M606.016 448c0-51.924-42.092-94.016-94.016-94.016S417.984 396.076 417.984 448c0 51.924 42.092 94.016 94.016 94.016s94.016-42.092 94.016-94.016zM512 960C229.248 960 0 730.752 0 448S229.248-64 512-64s512 229.248 512 512c0 282.816-229.248 512-512 512zm318.08-643.904c-1.536-34.048-6.976-57.344-14.848-77.696-8.192-21.056-19.136-38.912-36.928-56.704s-35.648-28.736-56.704-36.928c-20.352-7.936-43.648-13.312-77.696-14.848C609.792 128.384 598.912 128 512 128s-97.792.384-131.904 1.92c-34.048 1.536-57.344 6.976-77.696 14.848-21.056 8.192-38.912 19.136-56.704 36.928s-28.736 35.648-36.928 56.704c-7.936 20.352-13.312 43.648-14.848 77.696C192.384 350.208 192 361.088 192 448s.384 97.792 1.92 131.968c1.536 34.048 6.976 57.344 14.848 77.696 8.192 20.992 19.136 38.848 36.928 56.64s35.648 28.736 56.704 36.928c20.352 7.872 43.584 13.312 77.696 14.848S425.088 768 512 768s97.792-.384 131.904-1.92c34.048-1.536 57.344-6.976 77.696-14.848 21.056-8.192 38.912-19.136 56.704-36.928s28.736-35.648 36.928-56.704c7.936-20.352 13.312-43.648 14.848-77.696C831.616 545.792 832 534.912 832 448s-.384-97.792-1.92-131.904zm-74.624 316.096c-5.696 14.592-12.416 24.96-23.36 35.904s-21.312 17.664-35.904 23.36c-11.008 4.288-27.52 9.344-57.984 10.752C605.248 703.68 595.392 704 512 704s-93.248-.32-126.208-1.792c-30.4-1.408-46.976-6.528-57.984-10.752-14.592-5.696-24.96-12.416-35.904-23.36-10.88-10.944-17.664-21.376-23.36-35.904-4.224-11.008-9.344-27.584-10.752-57.984C256.32 541.248 256 531.392 256 448s.32-93.248 1.792-126.208c1.408-30.464 6.464-46.976 10.752-57.984 5.696-14.592 12.416-24.96 23.36-35.904s21.312-17.664 35.904-23.36c11.008-4.288 27.52-9.344 57.984-10.752C418.752 192.32 428.608 192 512 192s93.248.32 126.208 1.792c30.464 1.408 46.976 6.464 57.984 10.752 14.592 5.696 24.96 12.416 35.904 23.36s17.664 21.312 23.36 35.904c4.288 11.008 9.344 27.52 10.752 57.984C767.68 354.752 768 364.608 768 448s-.32 93.248-1.792 126.208c-1.408 30.4-6.528 46.976-10.752 57.984zM512 287.616c-88.576 0-160.32 71.808-160.32 160.32S423.424 608.32 512 608.32 672.32 536.576 672.32 448 600.576 287.616 512 287.616zm166.656 289.6c-20.672 0-37.44 16.768-37.44 37.44s16.768 37.504 37.44 37.504c20.672 0 37.504-16.768 37.504-37.504 0-20.672-16.768-37.44-37.504-37.44z"/><glyph unicode="" glyph-name="social_dribbble_circle" data-tags="social_dribbble_circle" d="M631.296 409.536c42.816-117.632 60.224-213.44 63.552-233.344 73.408 49.664 125.696 128.32 140.288 219.392-11.136 3.52-101.248 30.4-203.84 13.952zm-63.424-15.872c-184.576-64.32-250.88-192.384-256.768-204.416 55.488-43.264 125.248-69.056 200.896-69.056 45.376-.064 88.64 9.216 127.872 25.984-4.864 28.736-23.872 128.832-69.824 248.192-.768-.192-1.472-.448-2.176-.704zm14.656 131.776c7.616-15.616 14.912-31.488 21.696-47.424a3240.648 3240.648 0 0 0 7.04-16.896c108.928 13.696 217.152-8.256 227.904-10.56-.64 77.248-28.288 148.224-73.856 203.904-6.848-9.28-61.696-79.616-182.784-129.024zm-47.68-80.768c4.288 1.344 8.576 2.688 12.864 3.84-8.192 18.624-17.152 37.248-26.496 55.552-163.456-48.896-322.112-46.848-336.448-46.528-.064-3.328-.128-6.656-.128-9.984.064-84.096 31.872-160.832 84.16-218.88 7.424 12.672 97.216 161.408 266.048 216zm-40.64 109.76c-54.272 96.448-112.704 177.472-121.344 189.312-91.584-43.2-160.064-127.616-181.248-229.184 14.656-.192 149.504-.768 302.592 39.872zm234.752 137.92C671.168 743.616 595.2 774.848 512 774.848c-26.368 0-52.096-3.136-76.672-9.088 9.024-12.16 68.48-93.12 122.112-191.616 116.416 43.584 165.632 109.824 171.52 118.208zM512 960C229.248 960 0 730.752 0 448S229.248-64 512-64s512 229.248 512 512c0 282.816-229.248 512-512 512zm0-895.168c-211.264 0-383.168 171.904-383.168 383.168S300.736 831.168 512 831.168 895.168 659.264 895.168 448 723.264 64.832 512 64.832z"/><glyph unicode="" glyph-name="social_vimeo_circle" data-tags="social_vimeo_circle" d="M512 960C229.248 960 0 730.752 0 448S229.248-64 512-64s512 229.248 512 512c0 282.816-229.248 512-512 512zm304.128-372.672c-34.368-193.408-226.176-357.184-283.84-394.56-57.728-37.376-110.336 14.976-129.472 54.592-21.824 45.184-87.296 290.112-104.448 310.4s-68.608-20.288-68.608-20.288l-24.96 32.704s104.512 124.736 184 140.416c84.288 16.576 84.16-129.472 104.448-210.496 19.648-78.4 32.768-123.264 49.92-123.264s49.92 43.712 85.76 110.72c35.968 67.072-1.536 126.336-71.744 84.224 28.16 168.384 293.248 208.896 258.944 15.552z"/><glyph unicode="" glyph-name="social_linkedin_circle" data-tags="social_linkedin_circle" d="M512 960C229.248 960 0 730.752 0 448S229.248-64 512-64s512 229.248 512 512c0 282.816-229.248 512-512 512zM384 200H256v448h128V200zm-60.032 475.456c-33.152 0-59.968 26.88-59.968 60.032s26.88 60.032 59.968 60.032C357.12 795.456 384 768.576 384 735.488c0-33.152-26.88-60.032-60.032-60.032zM832 200H704v276.992c0 32.448-9.28 55.168-49.152 55.168-66.112 0-78.848-55.168-78.848-55.168V200H448v448h128v-42.816c18.304 14.016 64 42.752 128 42.752 41.536 0 128-24.832 128-174.848V200z"/><glyph unicode="" glyph-name="social_rss_circle" data-tags="social_rss_circle" d="M512 960C229.248 960 0 730.752 0 448S229.248-64 512-64s512 229.248 512 512c0 282.816-229.248 512-512 512zM276.16 129.536c-46.016 0-83.392 37.12-83.392 83.072 0 45.696 37.376 83.264 83.392 83.264 46.144 0 83.456-37.568 83.52-83.264 0-45.952-37.312-83.072-83.52-83.072zm209.536-.768c0 78.528-30.528 152.32-85.824 207.552-55.296 55.424-128.832 86.016-206.976 86.016V542.4c227.904 0 413.44-185.536 413.44-413.632h-120.64zm213.056.064c0 279.168-226.88 506.304-505.728 506.304V755.2C538.24 755.2 819.2 474.112 819.2 128.832H698.752z"/><glyph unicode="" glyph-name="social_deviantart_circle" data-tags="social_deviantart_circle" d="M512 960C229.248 960 0 730.752 0 448S229.248-64 512-64s512 229.248 512 512c0 282.816-229.248 512-512 512zm35.328-593.28l-80.96 145.984c35.072 6.016 65.408 7.552 91.712 6.016l45.952-73.408L714.112 472c-43.264 42.368-122.304 82.176-266.816 56.448-3.2-.576-6.336-1.216-9.408-1.792l89.344-165.44-321.728-88.384c-6.976 10.816-12.608 22.336-16.768 34.432-20.8 60.224-3.712 122.048 39.552 171.136 26.176 29.376 62.528 53.824 106.752 70.912l-27.072 56.704c24.064 7.68 50.112 13.44 77.76 17.152l28.416-52.672c3.072.512 6.144 1.024 9.28 1.472 85.568 12.928 169.152 13.696 246.272-4.416 78.656-15.488 150.848-49.856 184.128-88.448 6.72-7.744 11.776-15.808 15.232-24.064l-321.728-88.32zm-249.856 4.352l110.08 26.688-49.216 102.912c-62.848-33.664-70.784-84.288-60.864-129.6z"/><glyph unicode="" glyph-name="social_share_circle" data-tags="social_share_circle" d="M512 960C229.248 960 0 730.752 0 448S229.248-64 512-64s512 229.248 512 512c0 282.816-229.248 512-512 512zm106.304-628.032c15.808 11.968 35.52 19.136 56.896 19.136 52.224 0 94.592-42.304 94.592-94.592 0-52.224-42.368-94.592-94.592-94.592s-94.528 42.304-94.528 94.592v.064L339.456 373.184c-14.784-9.536-32.32-15.168-51.2-15.168-52.224 0-94.592 42.368-94.592 94.592s42.368 94.592 94.592 94.592c22.272 0 42.688-7.744 58.88-20.608L580.608 639.36v.064c0 52.224 42.368 94.592 94.528 94.592 52.224 0 94.592-42.304 94.592-94.592s-42.368-94.592-94.592-94.592c-21.376 0-41.024 7.168-56.896 19.136L382.72 450.176c0-1.408-.128-2.88-.192-4.288l235.776-113.92z"/><glyph unicode="" glyph-name="social_myspace_circle" data-tags="social_myspace_circle" d="M512 960C229.248 960 0 730.752 0 448S229.248-64 512-64s512 229.248 512 512c0 282.816-229.248 512-512 512zm18.176-255.488c5.504 12.48 12.928 23.488 22.336 32.896 9.472 9.472 20.352 16.896 32.896 22.4 12.48 5.504 26.112 8.192 40.64 8.192 14.656 0 28.16-2.688 40.64-8.192 12.48-5.44 23.424-12.928 32.832-22.4 9.472-9.408 16.96-20.416 22.4-32.896 5.504-12.48 8.256-25.984 8.256-40.64s-2.752-28.16-8.256-40.64c-5.44-12.48-12.928-23.424-22.4-32.896-9.472-9.408-20.352-16.896-32.832-22.4-12.48-5.44-25.984-8.192-40.64-8.192-14.592 0-28.16 2.752-40.64 8.192-12.48 5.504-23.424 12.928-32.896 22.4-9.408 9.472-16.832 20.416-22.336 32.896s-8.256 26.048-8.256 40.64c0 14.656 2.752 28.16 8.256 40.64zm-162.112 16.512c15.552 15.488 34.24 23.232 56.128 23.232 22.528 0 41.6-7.744 57.088-23.232 15.552-15.552 23.296-34.304 23.296-56.256 0-22.528-7.808-41.536-23.36-57.088-15.424-15.488-34.496-23.232-57.024-23.232-21.824 0-40.576 7.744-56.128 23.296s-23.36 34.56-23.36 57.088c.064 21.888 7.808 40.64 23.36 56.192zm-139.712-14.656c11.84 11.904 26.304 17.856 43.328 17.856 17.088 0 31.36-5.952 42.944-17.856 11.52-11.84 17.28-25.984 17.28-42.432 0-17.088-5.824-31.488-17.28-43.392-11.584-11.904-25.856-17.856-42.944-17.856-17.024 0-31.488 5.952-43.328 17.792-11.904 11.904-17.856 26.368-17.856 43.392 0 16.448 5.952 30.656 17.856 42.496zM768 128H486.72v128H310.528v128H205.376v116.416c0 20.672-.512 38.208 13.824 52.48 14.272 14.272 31.808 21.44 52.48 21.44 17.664 0 32.96-5.312 45.696-16 12.8-10.688 21.248-23.872 25.6-39.744 10.304 12.16 22.528 21.568 36.48 28.352 14.016 6.656 28.928 10.048 44.736 10.048 24.96 0 46.72-7.488 65.344-22.4 18.56-14.912 30.912-33.664 36.992-56.128 12.8 12.16 27.648 21.952 44.8 29.184 17.024 7.296 35.328 10.944 54.784 10.944 19.52 0 37.952-3.648 55.296-10.944 17.28-7.296 32.384-17.344 45.184-30.144s22.976-27.84 30.528-45.184c7.616-17.28 10.88-35.712 10.88-55.232V128z"/><glyph unicode="" glyph-name="social_skype_circle" data-tags="social_skype_circle" d="M512 960C229.248 960 0 730.752 0 448S229.248-64 512-64s512 229.248 512 512c0 282.816-229.248 512-512 512zm138.816-814.784c-32.64 0-63.104 9.344-88.96 25.408-16.64-3.008-33.728-4.736-51.328-4.736-155.84 0-282.112 125.632-282.112 280.64a279.89 279.89 0 0 0 3.52 44.224C214.72 517.12 204.8 548.608 204.8 582.4c0 92.992 75.328 168.32 168.32 168.384 33.92 0 65.408-10.048 91.904-27.328a279.095 279.095 0 0 0 45.44 3.712c155.776 0 282.112-125.696 282.112-280.64 0-12.928-.96-25.6-2.624-38.08 18.496-27.072 29.248-59.712 29.248-94.848 0-92.992-75.328-168.384-168.384-168.384zm-175.68 355.328c-81.536 19.84-36.928 89.6 29.12 88.576 64.128-1.024 96.704-68.736 125.76-65.216 29.12 3.52 53.888 47.104 8.128 86.144-39.552 33.792-89.6 52.416-166.528 45.44-60.288-5.44-117.568-44.288-124.608-119.936-6.976-75.712 82.752-114.176 153.792-124.736 49.792-7.296 117.632-31.424 76.864-78.016-37.44-42.816-108.352-16.32-126.976-4.672-18.624 11.712-39.616 53.632-74.56 51.328-35.008-2.368-52.224-48.256-9.28-88.576 38.464-36.032 80.384-55.936 170.048-51.2 89.728 4.672 170.112 83.84 138.624 158.4s-118.848 82.688-200.384 102.464z"/><glyph unicode="" glyph-name="social_youtube_circle" data-tags="social_youtube_circle" d="M512 960C229.248 960 0 730.752 0 448S229.248-64 512-64s512 229.248 512 512c0 282.816-229.248 512-512 512zm314.56-626.624c-3.456-42.624-35.776-97.024-81.088-104.896-144.832-11.2-316.736-9.856-466.88 0-46.848 5.888-77.632 62.336-81.088 104.896-7.296 89.472-7.296 140.416 0 229.888 3.456 42.56 35.008 98.688 81.088 103.808 148.416 12.48 321.152 9.792 466.88 0 52.224-1.92 77.632-55.616 81.088-98.24 7.232-89.472 7.232-145.984 0-235.456zM448 320l192 128-192 128z"/><glyph unicode="" glyph-name="social_picassa_circle" data-tags="social_picassa_circle" d="M512 960C229.248 960 0 730.752 0 448S229.248-64 512-64s512 229.248 512 512c0 282.816-229.248 512-512 512zm0-128c50.944 0 99.52-9.92 144-27.904V536.32L382.656 809.664C423.04 824.064 466.624 832 512 832zM139.2 355.584C131.904 385.152 128 416.128 128 448c0 145.088 80.384 271.296 199.104 336.64L447.68 664 139.2 355.584zM320 115.392c-70.976 41.024-127.552 104.128-160.384 179.904L320 455.68V115.392zM512 64c-50.944 0-99.52 9.92-144 27.968V256h476.608C778.176 141.248 654.144 64 512 64zm356.032 240H704v476.608C818.752 714.176 896 590.144 896 448c0-50.944-9.92-99.52-27.968-144z"/><glyph unicode="" glyph-name="social_googledrive_alt2" data-tags="social_googledrive_alt2" d="M512 960C229.248 960 0 730.752 0 448S229.248-64 512-64s512 229.248 512 512c0 282.816-229.248 512-512 512zm98.752-255.424l169.472-293.632h-197.44L413.248 704.576h197.504zm-394.944-342.08L385.216 656l98.688-171.072-169.408-293.504-98.688 171.072zM709.44 191.424H382.848l98.688 171.072h326.656L709.44 191.424z"/><glyph unicode="" glyph-name="social_flickr_circle" data-tags="social_flickr_circle" d="M512 960C229.248 960 0 730.752 0 448S229.248-64 512-64s512 229.248 512 512c0 282.816-229.248 512-512 512zM323.584 319.744c-71.744 0-129.856 58.112-129.856 129.856s58.112 129.856 129.856 129.856S453.44 521.344 453.44 449.6s-58.112-129.856-129.856-129.856zm378.176 0c-71.744 0-129.856 58.112-129.856 129.856s58.112 129.856 129.856 129.856S831.616 521.344 831.616 449.6 773.504 319.744 701.76 319.744z"/><glyph unicode="" glyph-name="social_blogger_circle" data-tags="social_blogger_circle" d="M631.68 368.192H392.32c-21.952 0-39.872-17.984-39.872-39.872s17.984-39.872 39.872-39.872h239.36c21.952 0 39.872 17.984 39.872 39.872s-17.92 39.872-39.872 39.872zM392.32 527.808H512c21.952 0 39.872 17.984 39.872 39.872 0 21.952-17.984 39.872-39.872 39.872H392.32c-21.952 0-39.872-17.984-39.872-39.872-.064-21.952 17.92-39.872 39.872-39.872zM512 960C229.248 960 0 730.752 0 448S229.248-64 512-64s512 229.248 512 512c0 282.816-229.248 512-512 512zm319.168-625.088c0-113.856-92.672-206.08-207.36-206.08H400.384c-114.56 0-207.616 92.224-207.616 206.016v226.176c.064 113.856 92.992 206.144 207.616 206.144h104.64c114.688 0 206.464-85.632 206.464-199.488 1.536-21.312 20.736-39.872 42.624-39.872h35.776c22.912 0 41.28-24.064 41.28-46.784V334.912z"/><glyph unicode="" glyph-name="social_spotify_circle" data-tags="social_spotify_circle" d="M451.712 629.44c-59.008 0-117.76-7.168-174.784-21.312-18.88-4.672-30.336-27.456-25.664-46.272s23.744-30.336 42.624-25.664c51.456 12.736 104.576 19.2 157.888 19.2 102.272 0 200.256-22.976 291.2-68.352 5.056-2.496 10.368-3.712 15.68-3.712 12.928 0 25.344 10.816 31.552 23.168 8.64 17.344 1.6 38.528-15.808 47.168-100.864 50.304-209.408 75.776-322.688 75.776zm0-297.664a474.249 474.249 0 0 1-139.648-20.992c-13.952-4.288-21.696-33.856-17.408-47.744 4.288-13.952 19.072-21.76 33.024-17.408 40 12.416 81.792 18.688 124.032 18.688 70.528 0 140.352-17.92 201.856-51.776 4.032-2.24 8.384-3.264 12.736-3.264 9.344 0 18.368 4.928 23.104 13.696 7.04 12.736 2.432 43.584-10.368 50.624-69.248 38.016-147.904 58.176-227.328 58.176zm273.344 77.248c-83.776 43.52-178.304 66.56-273.28 66.56-52.992 0-105.728-7.04-156.608-20.928-16.384-4.48-26.048-32.448-21.568-48.832s21.376-26.048 37.824-21.568c45.568 12.416 92.864 18.752 140.352 18.752 86.4 0 168.768-20.096 244.928-59.648a30.364 30.364 0 0 1 14.144-3.456c11.136 0 21.824 17.152 27.328 27.648 7.808 15.04 1.92 33.664-13.12 41.472zM512 960C229.248 960 0 730.752 0 448S229.248-64 512-64s512 229.248 512 512c0 282.816-229.248 512-512 512zm0-896c-212.096 0-384 171.904-384 384s171.904 384 384 384 384-171.904 384-384S724.096 64 512 64z"/><glyph unicode="" glyph-name="social_delicious_circle" data-tags="social_delicious_circle" d="M512 960C229.248 960 0 730.752 0 448S229.248-64 512-64s512 229.248 512 512c0 282.816-229.248 512-512 512zm320-512.704V150.784C832 138.24 821.76 128 809.216 128H224c-17.664 0-32 14.336-32 32v585.216C192 757.76 202.24 768 214.784 768H800c17.664 0 32-14.336 32-32V447.296zm-576 0h256.384V192H256zM512.384 704H768V447.296H512.384z"/><glyph unicode="" glyph-name="social_facebook_square" data-tags="social_facebook_square" d="M832 960H192C85.952 960 0 874.048 0 768V128C0 21.952 85.952-64 192-64h640c106.048 0 192 85.952 192 192v640c0 106.048-85.952 192-192 192zM644.352 448.064L560.448 448l-.064-307.2H445.248V448h-76.8v105.856l76.8.064-.128 62.336c0 86.4 23.424 138.944 125.12 138.944h84.736V649.28h-52.992c-39.616 0-41.536-14.784-41.536-42.368l-.128-52.992h95.232l-11.2-105.856z"/><glyph unicode="" glyph-name="social_twitter_square" data-tags="social_twitter_square" d="M832 960H192C85.952 960 0 874.048 0 768V128C0 21.952 85.952-64 192-64h640c106.048 0 192 85.952 192 192v640c0 106.048-85.952 192-192 192zm-65.28-397.056c.256-5.44.384-10.88.384-16.32 0-166.592-126.784-358.656-358.656-358.656-71.168 0-137.408 20.864-193.216 56.64 9.856-1.152 19.904-1.792 30.08-1.792 59.072 0 113.408 20.16 156.544 53.952-55.168 1.024-101.696 37.504-117.76 87.552a126.035 126.035 0 0 1 23.744-2.24c11.52 0 22.656 1.536 33.216 4.416-57.664 11.584-101.12 62.528-101.12 123.584v1.6c17.024-9.472 36.416-15.104 57.088-15.808-33.792 22.592-56.064 61.184-56.064 104.896 0 23.104 6.208 44.736 17.024 63.36 62.144-76.288 155.072-126.464 259.84-131.712-2.176 9.216-3.264 18.88-3.264 28.736 0 69.568 56.448 126.016 126.08 126.016 36.224 0 68.992-15.296 92.032-39.808a254.065 254.065 0 0 1 80.064 30.592c-9.408-29.44-29.376-54.144-55.424-69.76 25.472 3.008 49.792 9.856 72.384 19.84-16.896-25.216-38.336-47.424-62.976-65.088z"/><glyph unicode="" glyph-name="social_pinterest_square" data-tags="social_pinterest_square" d="M832 960H192C85.952 960 0 874.048 0 768V128C0 21.952 85.952-64 192-64h640c106.048 0 192 85.952 192 192v640c0 106.048-85.952 192-192 192zM551.936 309.568c-37.44 2.88-53.12 21.44-82.432 39.296-16.128-84.608-35.84-165.76-94.208-208.064-18.048 127.808 26.432 223.808 47.104 325.76-35.2 59.328 4.224 178.56 78.464 149.184 91.328-36.16-79.168-220.352 35.328-243.328 119.488-24.064 168.32 207.36 94.208 282.624-107.136 108.672-311.68 2.496-286.528-153.088 6.144-38.016 45.376-49.536 15.68-102.08-68.544 15.168-89.024 69.248-86.4 141.312 4.224 117.952 105.984 200.512 208.064 211.968 129.088 14.464 250.176-47.36 266.944-168.768 18.88-137.024-58.24-285.504-196.224-274.816z"/><glyph unicode="" glyph-name="social_googleplus_square" data-tags="social_googleplus_square" d="M832 960H192C85.952 960 0 874.048 0 768V128C0 21.952 85.952-64 192-64h640c106.048 0 192 85.952 192 192v640c0 106.048-85.952 192-192 192zM369.152 103.488c-113.344 0-208.96 46.144-208.96 119.872 0 74.816 87.232 147.072 200.576 147.008 12.352 0 23.68.32 35.392.32-15.488 15.04-27.776 33.536-27.776 56.384 0 13.568 4.352 26.56 10.368 38.144-6.144-.448-12.416-.64-18.88-.64-93.12 0-155.456 66.24-155.456 148.352 0 80.32 86.08 149.632 177.6 149.632h204.16l-45.824-33.024h-64.704c42.944-16.512 65.792-66.56 65.792-117.888 0-43.072-23.872-80.192-57.6-106.56-32.96-25.792-39.168-36.544-39.168-58.432 0-18.688 35.328-50.432 53.76-63.488 53.952-38.144 71.36-73.6 71.36-132.672-.064-73.728-71.424-147.008-200.64-147.008zM896 510.784H768V383.04h-63.936v127.744H576V576h128.064v128H768V576h128v-65.216zM468.096 607.68c-9.088 68.992-59.072 124.416-111.616 126.016-52.544 1.536-87.808-51.264-78.72-120.384 9.088-69.056 59.072-126.336 111.68-127.872 52.48-1.6 87.808 53.12 78.656 122.24zm-34.88-264.512c-15.488 4.992-32.576 7.936-50.816 8.128-78.336.832-148.48-47.744-148.48-106.176 0-59.584 56.576-109.184 134.912-109.184 110.144 0 148.48 46.592 148.48 106.112 0 7.232-.896 14.208-2.496 21.056-8.576 33.792-39.104 50.56-81.6 80.064z"/><glyph unicode="" glyph-name="social_tumblr_square" data-tags="social_tumblr_square" d="M832 960H192C85.952 960 0 874.048 0 768V128C0 21.952 85.952-64 192-64h640c106.048 0 192 85.952 192 192v640c0 106.048-85.952 192-192 192zM703.936 486.4H550.4l-.064-140.48c0-35.648-.448-56.192 3.328-66.304 3.776-10.048 13.12-20.48 23.36-26.496 13.632-8.192 29.12-12.224 46.592-12.224 31.104 0 49.472 4.096 80.256 24.32V172.8c-26.24-12.352-49.088-19.52-70.4-24.512-21.248-4.992-44.224-7.488-68.992-7.488-28.096 0-44.672 3.52-66.24 10.624s-40 17.28-55.232 30.336c-15.296 13.12-25.792 27.136-31.744 41.92-5.888 14.784-8.832 36.224-8.832 64.32v215.424h-82.368v87.04c24.128 7.808 51.136 19.072 68.288 33.728 17.216 14.656 31.04 32.192 41.472 52.736 10.368 20.416 17.536 46.592 21.504 78.272H550.4V601.6h153.536V486.4z"/><glyph unicode="" glyph-name="social_stumbleupon_square" data-tags="social_stumbleupon_square" d="M832 960H192C85.952 960 0 874.048 0 768V128C0 21.952 85.952-64 192-64h640c106.048 0 192 85.952 192 192v640c0 106.048-85.952 192-192 192zM512 585.216c-25.216 0-45.76-20.544-45.76-45.76V356.48c0-75.648-61.568-137.216-137.216-137.216S191.808 280.832 191.808 356.48V448h91.456v-91.456c0-25.216 20.544-45.76 45.76-45.76s45.76 20.544 45.76 45.76v182.912c0 75.648 61.568 137.216 137.216 137.216s137.216-61.568 137.216-127.232v-44.352L590.592 488l-32.896 17.152v44.352c0 15.168-20.544 35.712-45.696 35.712zm320.128-228.672c0-75.648-61.568-137.216-137.216-137.216s-137.216 61.568-137.216 147.264v88.576l32.896-17.152 58.624 17.152v-88.64c0-35.2 20.544-55.744 45.76-55.744s45.76 20.544 45.76 45.76V448h91.456v-91.456z"/><glyph unicode="" glyph-name="social_wordpress_square" data-tags="social_wordpress_square" d="M832 960H192C85.952 960 0 874.048 0 768V128C0 21.952 85.952-64 192-64h640c106.048 0 192 85.952 192 192v640c0 106.048-85.952 192-192 192zM117.76 448c0 55.68 12.288 108.544 34.176 156.224L339.968 102.4C208.448 164.672 117.76 296 117.76 448zM512 64c-38.72 0-76.032 5.504-111.36 15.616l123.392 322.368L640.128 91.072c.768-1.92 1.792-3.648 2.816-5.312C601.984 71.68 557.952 64 512 64zm54.208 564.032c23.744 1.216 45.12 3.648 45.12 3.648 21.312 2.496 18.752 32.832-2.496 31.68 0 0-63.872-4.864-105.088-4.864-38.72 0-103.808 4.864-103.808 4.864-21.184 1.152-23.68-30.464-2.496-31.68 0 0 20.096-2.432 41.344-3.584l61.44-163.968-94.208-252.096-135.616 416c23.744 1.216 45.12 3.648 45.12 3.648 21.248 2.496 18.752 32.832-2.496 31.68 0 0-63.872-4.864-105.088-4.864-7.36 0-16.128.192-25.344.448C253.12 763.136 374.272 832 512 832c102.656 0 196.096-38.272 266.24-100.8-1.728.128-3.328.32-5.12.32-38.784 0-66.24-32.832-66.24-68.16 0-31.68 18.752-58.432 38.72-90.112 15.04-25.6 25.728-39.744 25.728-87.168 0-32.832-12.928-71.04-29.952-124.16l-39.36-127.936-135.808 394.048zM710.144 116.16l120.448 339.072c22.464 54.784 29.952 98.56 29.952 137.536 0 14.144-.896 27.264-2.624 39.488 30.784-54.72 48.32-117.504 48.32-184.256 0-141.696-78.848-265.344-196.096-331.84z"/><glyph unicode="" glyph-name="social_instagram_square" data-tags="social_instagram_square" d="M832 960H192C85.952 960 0 874.048 0 768V128C0 21.952 85.952-64 192-64h640c106.048 0 192 85.952 192 192v640c0 106.048-85.952 192-192 192zm-1.92-643.904c-1.536-34.048-6.976-57.344-14.848-77.696-8.192-21.056-19.136-38.912-36.928-56.704s-35.648-28.736-56.704-36.928c-20.352-7.936-43.648-13.312-77.696-14.848C609.792 128.384 598.912 128 512 128s-97.792.384-131.904 1.92c-34.048 1.536-57.344 6.976-77.696 14.848-21.056 8.192-38.912 19.136-56.704 36.928s-28.736 35.648-36.928 56.704c-7.936 20.352-13.312 43.648-14.848 77.696C192.384 350.208 192 361.088 192 448s.384 97.792 1.92 131.968c1.536 34.048 6.976 57.344 14.848 77.696 8.192 20.992 19.136 38.848 36.928 56.64s35.648 28.736 56.704 36.928c20.352 7.872 43.584 13.312 77.696 14.848S425.088 768 512 768s97.792-.384 131.904-1.92c34.048-1.536 57.344-6.976 77.696-14.848 21.056-8.192 38.912-19.136 56.704-36.928s28.736-35.648 36.928-56.704c7.936-20.352 13.312-43.648 14.848-77.696C831.616 545.792 832 534.912 832 448s-.384-97.792-1.92-131.904zM606.016 448c0-51.924-42.092-94.016-94.016-94.016S417.984 396.076 417.984 448c0 51.924 42.092 94.016 94.016 94.016s94.016-42.092 94.016-94.016zm149.44 184.192c-5.696 14.592-12.416 24.96-23.36 35.904s-21.312 17.664-35.904 23.36c-11.008 4.288-27.52 9.344-57.984 10.752C605.248 703.68 595.392 704 512 704s-93.248-.32-126.208-1.792c-30.4-1.408-46.976-6.528-57.984-10.752-14.592-5.696-24.96-12.416-35.904-23.36-10.88-10.944-17.664-21.376-23.36-35.904-4.224-11.008-9.344-27.584-10.752-57.984C256.32 541.248 256 531.392 256 448s.32-93.248 1.792-126.208c1.408-30.464 6.464-46.976 10.752-57.984 5.696-14.592 12.416-24.96 23.36-35.904s21.312-17.664 35.904-23.36c11.008-4.288 27.52-9.344 57.984-10.752C418.752 192.32 428.608 192 512 192s93.248.32 126.208 1.792c30.464 1.408 46.976 6.464 57.984 10.752 14.592 5.696 24.96 12.416 35.904 23.36s17.664 21.312 23.36 35.904c4.288 11.008 9.344 27.52 10.752 57.984C767.68 354.752 768 364.608 768 448s-.32 93.248-1.792 126.208c-1.408 30.4-6.528 46.976-10.752 57.984zM512 287.68c-88.576 0-160.32 71.808-160.32 160.32 0 88.576 71.808 160.32 160.32 160.32S672.32 536.576 672.32 448 600.576 287.68 512 287.68zm166.656 289.536c-20.672 0-37.504 16.768-37.504 37.504s16.768 37.504 37.504 37.504c20.672 0 37.504-16.768 37.504-37.504s-16.768-37.504-37.504-37.504z"/></font>
</defs>
</svg>
