<svg version="1.1" id="icons" xmlns="http://www.w3.org/2000/svg" xmlns:xlink="http://www.w3.org/1999/xlink" x="0px" y="0px"
	 viewBox="0 0 22 22" style="enable-background:new 0 0 22 22;" xml:space="preserve">
<style type="text/css">
	.st0{fill:#aaaaaa;}
</style>
<path class="st0" d="M17,2H5C3.3,2,2,3.3,2,5v12c0,1.7,1.3,3,3,3h12c1.7,0,3-1.3,3-3V5C20,3.3,18.7,2,17,2z M15.9,7.4l-5,8.2
	C10.7,15.8,10.4,16,10,16c-0.3,0-0.6-0.2-0.8-0.4l-3-4c-0.3-0.4-0.2-1.1,0.2-1.4s1.1-0.2,1.4,0.2l2.1,2.8l4.3-6.9
	c0.3-0.5,0.9-0.6,1.4-0.3C16,6.3,16.2,6.9,15.9,7.4z"/>
</svg>
