<?xml version="1.0" encoding="utf-8"?>
<!-- Generator: Adobe Illustrator 20.0.0, SVG Export Plug-In . SVG Version: 6.00 Build 0)  -->
<svg version="1.1" id="Capa_1" xmlns="http://www.w3.org/2000/svg" xmlns:xlink="http://www.w3.org/1999/xlink" x="0px" y="0px"
	 viewBox="0 0 176.9 140" style="enable-background:new 0 0 176.9 140;" xml:space="preserve">
<style type="text/css">
	.st0{fill:#434040;}
	.st1{fill:#E74C3C;}
	.st2{fill:#F7F8F8;}
	.st3{fill:none;stroke:#313131;stroke-width:4;stroke-miterlimit:10;}
	.st4{fill:none;stroke:#313131;stroke-width:4;stroke-linejoin:round;stroke-miterlimit:10;}
	.st5{fill:#FFFFFF;}
	.st6{fill:#313131;}
	.st7{fill:none;stroke:#313131;stroke-width:2;stroke-miterlimit:10;}
	.st8{fill:none;stroke:#FFFFFF;stroke-width:2;stroke-linecap:round;stroke-miterlimit:10;}
</style>
<rect x="2" y="113.7" class="st0" width="172.9" height="12.5"/>
<rect x="2" y="20.4" class="st1" width="172.9" height="93.3"/>
<path class="st2" d="M174.9,9.4v11.4H2V9.4C2,5.3,5.3,2,9.4,2h158.2C171.6,2,174.9,5.3,174.9,9.4z"/>
<path class="st3" d="M2,20.7V9.4C2,5.3,5.3,2,9.4,2h158.2c4.1,0,7.4,3.3,7.4,7.4v11.4"/>
<path class="st2" d="M2,130.6v-4.1h172.9v4.1c0,4.1-3.3,7.4-7.4,7.4H9.4C5.3,138,2,134.7,2,130.6z"/>
<path class="st3" d="M174.9,126.5v4.1c0,4.1-3.3,7.4-7.4,7.4H9.4c-4.1,0-7.4-3.3-7.4-7.4v-4.1"/>
<line class="st3" x1="2" y1="113.7" x2="174.9" y2="113.7"/>
<polygon class="st4" points="174.9,113.7 174.9,126.1 2,126.1 2,113.7 2,20.4 174.9,20.4 "/>
<g>
	<path class="st5" d="M88.5,86.8c-10.8,0-19.6-8.8-19.6-19.6s8.8-19.6,19.6-19.6c10.8,0,19.6,8.8,19.6,19.6S99.3,86.8,88.5,86.8z
		 M88.5,49.8c-9.6,0-17.4,7.8-17.4,17.4s7.8,17.4,17.4,17.4c9.6,0,17.4-7.8,17.4-17.4S98,49.8,88.5,49.8z"/>
	<polygon class="st5" points="98.6,67.2 83.6,76 83.6,58.4 	"/>
</g>
<g>
	<circle class="st6" cx="11.6" cy="11.4" r="1.9"/>
	<circle class="st6" cx="17.2" cy="11.4" r="1.9"/>
	<circle class="st6" cx="22.8" cy="11.4" r="1.9"/>
</g>
<line class="st7" x1="10.1" y1="119.9" x2="167" y2="119.9"/>
<line class="st8" x1="10.1" y1="119.9" x2="104.9" y2="119.9"/>
<circle class="st5" cx="104.9" cy="119.9" r="2.7"/>
<circle class="st1" cx="104.9" cy="119.9" r="1.1"/>
</svg>
