<?xml version="1.0" encoding="utf-8"?>
<!-- Generator: Adobe Illustrator 20.0.0, SVG Export Plug-In . SVG Version: 6.00 Build 0)  -->
<svg version="1.1" id="Capa_1" xmlns="http://www.w3.org/2000/svg" xmlns:xlink="http://www.w3.org/1999/xlink" x="0px" y="0px"
	 viewBox="0 0 166.2 136.9" style="enable-background:new 0 0 166.2 136.9;" xml:space="preserve">
<style type="text/css">
	.st0{fill:#FFFFFF;}
	.st1{fill:#D8DADE;}
	.st2{fill:#F7F8F8;}
	.st3{fill:none;stroke:#313131;stroke-width:4;stroke-miterlimit:10;}
	.st4{fill:none;stroke:#C3C5CA;stroke-width:4;stroke-linecap:round;stroke-miterlimit:10;}
	.st5{fill:#F6B63E;}
	.st6{fill:#E74C3C;}
	.st7{fill:#A17728;}
</style>
<path class="st0" d="M94,117.4c0,9.7,7.9,17.6,17.6,17.6h-92c-9.7,0-17.6-7.9-17.6-17.6h35.1H94z"/>
<path class="st1" d="M146.6,2c9.7,0,17.6,7.9,17.6,17.6h-35.1C129.1,9.9,136.9,2,146.6,2z"/>
<path class="st2" d="M111.5,134.9c-9.7,0-17.6-7.9-17.6-17.6H37.1V19.6C37.1,9.9,45,2,54.7,2h92c-9.7,0-17.6,7.9-17.6,17.6v97.8
	C129.1,127.1,121.2,134.9,111.5,134.9z"/>
<path class="st3" d="M111.5,134.9h-92c-9.7,0-17.6-7.9-17.6-17.6h35.1"/>
<path class="st3" d="M129.1,19.6v97.8c0,9.7-7.9,17.6-17.6,17.6S94,127.1,94,117.4H37.1V19.6C37.1,9.9,45,2,54.7,2h92"/>
<path class="st3" d="M146.6,2c9.7,0,17.6,7.9,17.6,17.6h-35.1C129.1,9.9,136.9,2,146.6,2z"/>
<g>
	<line class="st4" x1="50.5" y1="28.6" x2="87.1" y2="28.6"/>
	<line class="st4" x1="50.5" y1="37.4" x2="72.3" y2="37.4"/>
	<line class="st4" x1="50.5" y1="55" x2="105.6" y2="55"/>
	<line class="st4" x1="50.5" y1="63.7" x2="110" y2="63.7"/>
	<line class="st4" x1="50.5" y1="72.5" x2="100.5" y2="72.5"/>
	<line class="st4" x1="50.5" y1="81.3" x2="108" y2="81.3"/>
	<line class="st4" x1="50.5" y1="90.1" x2="112.9" y2="90.1"/>
	<line class="st4" x1="50.5" y1="107.6" x2="66.8" y2="107.6"/>
</g>
<g>
	<path class="st5" d="M148.7,40.2c0,6.2-2.7,11.8-7,15.7c-1.9,1.6-4,3-6.3,3.9c-2.3,0.9-4.9,1.4-7.6,1.4c-5.3,0-10.2-2-13.9-5.3
		c-2.2-1.9-3.9-4.3-5.1-6.9c-1.2-2.7-1.9-5.6-1.9-8.7c0-11.6,9.4-20.9,20.9-20.9S148.7,28.6,148.7,40.2z"/>
	<path class="st6" d="M141.7,55.8v34.8l-13.9-12.2l-13.9,12.2V55.8c3.7,3.3,8.6,5.3,13.9,5.3C133.1,61.1,138,59.1,141.7,55.8z"/>
	<path class="st3" d="M141.7,55.8c-3.7,3.3-8.6,5.3-13.9,5.3c-5.3,0-10.2-2-13.9-5.3"/>
	<path class="st3" d="M113.9,55.8c-4.3-3.8-7-9.4-7-15.7c0-11.6,9.4-20.9,20.9-20.9c11.6,0,20.9,9.4,20.9,20.9
		c0,6.2-2.7,11.8-7,15.7"/>
	<polyline class="st3" points="141.7,55.8 141.7,55.8 141.7,90.7 127.8,78.5 113.9,90.7 113.9,55.8 113.9,55.8 	"/>
	<polygon class="st7" points="127.8,28.6 131.2,35.6 138.9,36.7 133.3,42.1 134.6,49.7 127.8,46.1 120.9,49.7 122.2,42.1 
		116.7,36.7 124.3,35.6 	"/>
</g>
</svg>
