<svg viewBox="0 0 52 64" width="16" height="16" xmlns="http://www.w3.org/2000/svg" fill="#bbb" stroke-width="0"><path d="M40 60H12c-4.395 0-8-3.605-8-8V30c0-1.095.905-2 2-2h40c1.095 0 2 .905 2 2v22c0 4.395-3.605 8-8 8zm0 4c6.605 0 12-5.395 12-12V30c0-3.305-2.695-6-6-6H6c-3.305 0-6 2.695-6 6v22c0 6.605 5.395 12 12 12h28z"/><path d="M38 26v-6c0-6.605-5.395-12-12-12s-12 5.395-12 12v6a2 2 0 1 0 4 0v-6c0-4.395 3.605-8 8-8s8 3.605 8 8v6a2 2 0 1 0 4 0z"/><path d="M10 26v-6c0-8.795 7.205-16 16-16s16 7.205 16 16v6a2 2 0 1 0 4 0v-6C46 8.995 37.005 0 26 0S6 8.995 6 20v6a2 2 0 1 0 4 0zm20 14c0-2.5-2.3-4.5-4.9-3.9-1.4.3-2.6 1.5-2.9 2.9-.4 2 .5 3.7 2.1 4.5l-.9 5.5c-.2 1.6 1 3 2.6 3s2.8-1.4 2.6-3l-.8-5.5c1.3-.6 2.2-1.9 2.2-3.5z"/></svg>