<?xml version="1.0"?>
<svg xmlns="http://www.w3.org/2000/svg" height="512px" viewBox="-96 -21 682 682.66669" width="512px"><path d="m70.074219 170.667969c0 5.890625-4.78125 10.664062-10.667969 10.664062-5.894531 0-10.667969-4.773437-10.667969-10.664062 0-5.894531 4.773438-10.667969 10.667969-10.667969 5.886719 0 10.667969 4.773438 10.667969 10.667969zm0 0" fill="#e74c3c"/><path d="m70.074219 362.664062c0 5.894532-4.78125 10.671876-10.667969 10.671876-5.894531 0-10.667969-4.777344-10.667969-10.671876 0-5.886718 4.773438-10.664062 10.667969-10.664062 5.886719 0 10.667969 4.777344 10.667969 10.664062zm0 0" fill="#e74c3c"/><path d="m70.074219 565.332031c0 5.894531-4.78125 10.667969-10.667969 10.667969-5.894531 0-10.667969-4.773438-10.667969-10.667969 0-5.886719 4.773438-10.664062 10.667969-10.664062 5.886719 0 10.667969 4.777343 10.667969 10.664062zm0 0" fill="#e74c3c"/><path d="m432.742188 74.667969c0 5.886719-4.777344 10.664062-10.671876 10.664062-5.886718 0-10.664062-4.777343-10.664062-10.664062 0-5.894531 4.777344-10.667969 10.664062-10.667969 5.894532 0 10.671876 4.773438 10.671876 10.667969zm0 0" fill="#e74c3c"/><path d="m432.742188 266.664062c0 5.894532-4.777344 10.671876-10.671876 10.671876-5.886718 0-10.664062-4.777344-10.664062-10.671876 0-5.886718 4.777344-10.664062 10.664062-10.664062 5.894532 0 10.671876 4.777344 10.671876 10.664062zm0 0" fill="#e74c3c"/><path d="m432.742188 469.332031c0 5.894531-4.777344 10.667969-10.671876 10.667969-5.886718 0-10.664062-4.773438-10.664062-10.667969 0-5.890625 4.777344-10.664062 10.664062-10.664062 5.894532 0 10.671876 4.773437 10.671876 10.664062zm0 0" fill="#e74c3c"/><path d="m358.074219 277.335938c.316406-.050782.632812-.113282.945312-.191407v.082031c5.492188 32.835938 35.246094 55.976563 68.421875 53.222657 33.179688-2.757813 58.703125-30.488281 58.703125-63.785157 0-33.289062-25.523437-61.019531-58.703125-63.777343-33.175781-2.753907-62.929687 20.386719-68.421875 53.222656v.082031c-.3125-.078125-.628906-.140625-.945312-.191406h-74.667969v-74.667969h21.332031c5.894531 0 10.667969-4.773437 10.667969-10.664062 0-5.894531-4.773438-10.667969-10.667969-10.667969h-21.332031v-74.667969h74.667969c.316406-.042969.632812-.113281.945312-.191406v.085937c5.492188 32.835938 35.246094 55.976563 68.421875 53.21875 33.179688-2.75 58.703125-30.484374 58.703125-63.777343s-25.523437-61.027344-58.703125-63.777344c-33.175781-2.761719-62.929687 20.378906-68.421875 53.214844v.089843c-.3125-.085937-.628906-.148437-.945312-.195312h-74.667969v-21.335938c0-23.5625-19.101562-42.664062-42.667969-42.664062-23.5625 0-42.664062 19.101562-42.664062 42.664062v21.335938h-21.335938c-5.890625 0-10.667969 4.773438-10.667969 10.667969 0 5.886719 4.777344 10.664062 10.667969 10.664062h21.335938v74.667969h-74.667969c-.320312.046875-.636719.113281-.949219.191406v-.082031c-5.492187-32.839844-35.242187-55.976563-68.421875-53.226563-33.179687 2.761719-58.703125 30.492188-58.703125 63.785157s25.523438 61.019531 58.703125 63.78125c33.179688 2.753906 62.929688-20.386719 68.421875-53.222657v-.085937c.3125.078125.628907.144531.949219.191406h74.667969v170.667969h-74.667969c-.320312.046875-.636719.109375-.949219.191406v-.085937c-5.492187-32.832031-35.242187-55.976563-68.421875-53.21875-33.179687 2.753906-58.703125 30.488281-58.703125 63.777343 0 33.292969 25.523438 61.027344 58.703125 63.78125 33.179688 2.757813 62.929688-20.382812 68.421875-53.21875v-.085937c.3125.082031.628907.144531.949219.195313h74.667969v85.332031h-21.335938c-5.890625 0-10.667969 4.773437-10.667969 10.664062 0 5.894531 4.777344 10.667969 10.667969 10.667969h21.335938v74.667969h-74.667969c-.320312.042969-.636719.113281-.949219.191406v-.085937c-5.492187-32.835938-35.242187-55.976563-68.421875-53.21875-33.179687 2.75-58.703125 30.484374-58.703125 63.777343s25.523438 61.027344 58.703125 63.777344c33.179688 2.761719 62.929688-20.378906 68.421875-53.214844v-.089843c.3125.085937.628907.148437.949219.195312h74.667969v21.335938c0 23.5625 19.101562 42.664062 42.664062 42.664062 23.566407 0 42.667969-19.101562 42.667969-42.664062v-21.335938h21.332031c5.894531 0 10.667969-4.773438 10.667969-10.667969 0-5.886719-4.773438-10.664062-10.667969-10.664062h-21.332031v-74.667969h74.667969c.316406-.046875.632812-.113281.945312-.191406v.082031c5.492188 32.839844 35.246094 55.976563 68.421875 53.226563 33.179688-2.761719 58.703125-30.492188 58.703125-63.785157s-25.523437-61.019531-58.703125-63.78125c-33.175781-2.753906-62.929687 20.386719-68.421875 53.222657v.085937c-.3125-.078125-.628906-.144531-.945312-.191406h-74.667969v-85.332031h21.332031c5.894531 0 10.667969-4.777344 10.667969-10.671876 0-5.886718-4.773438-10.664062-10.667969-10.664062h-21.332031v-74.664062zm63.996093-42.667969c17.675782 0 32.003907 14.324219 32.003907 31.996093 0 17.675782-14.328125 32.003907-32.003907 32.003907-17.667968 0-31.996093-14.328125-31.996093-32.003907.050781-17.648437 14.347656-31.941406 31.996093-31.996093zm0-192.003907c17.675782 0 32.003907 14.328126 32.003907 32.003907 0 17.671875-14.328125 31.996093-32.003907 31.996093-17.667968 0-31.996093-14.324218-31.996093-31.996093.050781-17.652344 14.347656-31.949219 31.996093-32.003907zm-362.664062 160c-17.671875 0-32.003906-14.324218-32.003906-31.996093 0-17.675781 14.332031-32 32.003906-32s32 14.324219 32 32c-.050781 17.652343-14.347656 31.945312-32 31.996093zm0 192.003907c-17.671875 0-32.003906-14.324219-32.003906-32.003907 0-17.667968 14.332031-31.996093 32.003906-31.996093s32 14.328125 32 31.996093c-.050781 17.652344-14.347656 31.949219-32 32.003907zm0 202.667969c-17.671875 0-32.003906-14.328126-32.003906-32.003907 0-17.671875 14.332031-31.996093 32.003906-31.996093s32 14.324218 32 31.996093c-.050781 17.652344-14.347656 31.949219-32 32.003907zm362.664062-160c17.675782 0 32.003907 14.324218 32.003907 31.996093 0 17.675781-14.328125 32-32.003907 32-17.667968 0-31.996093-14.324219-31.996093-32 .050781-17.652343 14.347656-31.945312 31.996093-31.996093zm0 0" fill="#e74c3c"/></svg>
