<?xml version="1.0" encoding="utf-8"?>
<!-- Generator: Adobe Illustrator 19.2.1, SVG Export Plug-In . SVG Version: 6.00 Build 0)  -->
<svg version="1.1" xmlns="http://www.w3.org/2000/svg" xmlns:xlink="http://www.w3.org/1999/xlink" x="0px" y="0px"
	 viewBox="0 0 80 80" style="enable-background:new 0 0 80 80;" xml:space="preserve">
<style type="text/css">
	.st0{fill:none;stroke:#73A9E1;stroke-width:0.1;stroke-miterlimit:10;}
	.st1{fill:none;stroke:#E74C3C;stroke-width:4;stroke-linejoin:round;stroke-miterlimit:10;}
	.st2{fill:none;stroke:#E74C3C;stroke-width:4;stroke-miterlimit:10;}
	.st3{fill:none;stroke:#1D1D1B;stroke-width:4;stroke-linecap:round;stroke-linejoin:round;stroke-miterlimit:10;}
	.st4{fill:none;stroke:#1D1D1B;stroke-width:2;stroke-linecap:round;stroke-linejoin:round;stroke-miterlimit:10;}
	.st5{fill:none;stroke:#313131;stroke-width:4;stroke-miterlimit:10;}
	.st6{fill:#E74C3C;}
	.st7{fill:#313131;}
	.st8{fill:#993227;}
	.st9{fill:#FFFFFF;stroke:#313131;stroke-width:4;stroke-miterlimit:10;}
	.st10{fill:none;stroke:#1D1D1B;stroke-width:2;stroke-miterlimit:10;}
	.st11{fill:#E5E5E5;}
	.st12{fill:#999999;}
	.st13{fill:#C6C6C6;}
	.st14{fill:none;stroke:#1D1D1B;stroke-width:4;stroke-miterlimit:10;}
	.st15{fill:#1D1D1B;}
	.st16{fill:none;stroke:#313131;stroke-width:4;stroke-linejoin:round;stroke-miterlimit:10;}
	.st17{fill:#CC4335;}
	.st18{fill:none;stroke:#313131;stroke-width:9;stroke-miterlimit:10;}
	.st19{fill:none;stroke:#313131;stroke-width:3;stroke-miterlimit:10;}
	.st20{fill:#FFFFFF;}
	.st21{fill:none;stroke:#313131;stroke-width:2;stroke-linecap:round;stroke-miterlimit:10;}
	.st22{fill:#FFFFFF;stroke:#313131;stroke-width:3;stroke-miterlimit:10;}
	.st23{fill:none;stroke:#313131;stroke-width:3;stroke-linejoin:round;stroke-miterlimit:10;}
</style>
<g id="guides">
</g>
<g id="icons">
	<g>
		<path class="st19" d="M52.2,69H27.8c-2.2,0-4-1.8-4-4V15c0-2.2,1.8-4,4-4h24.4c2.2,0,4,1.8,4,4v50C56.2,67.2,54.4,69,52.2,69z"/>
		<path class="st6" d="M28,58.1v-37c0-0.6,0.4-1,1-1h22c0.6,0,1,0.4,1,1v37c0,0.6-0.4,1-1,1H29C28.4,59.1,28,58.7,28,58.1z"/>
		<circle class="st7" cx="40" cy="63.8" r="2.6"/>
		<line class="st21" x1="36.8" y1="15.9" x2="43.2" y2="15.9"/>
	</g>
</g>
</svg>
