<?xml version="1.0" encoding="utf-8"?>
<!-- Generator: Adobe Illustrator 19.2.1, SVG Export Plug-In . SVG Version: 6.00 Build 0)  -->
<svg version="1.1" xmlns="http://www.w3.org/2000/svg" xmlns:xlink="http://www.w3.org/1999/xlink" x="0px" y="0px"
	 viewBox="0 0 80 80" style="enable-background:new 0 0 80 80;" xml:space="preserve">
<style type="text/css">
	.st0{fill:none;stroke:#73A9E1;stroke-width:0.1;stroke-miterlimit:10;}
	.st1{fill:none;stroke:#E74C3C;stroke-width:4;stroke-linejoin:round;stroke-miterlimit:10;}
	.st2{fill:none;stroke:#E74C3C;stroke-width:4;stroke-miterlimit:10;}
	.st3{fill:none;stroke:#1D1D1B;stroke-width:4;stroke-linecap:round;stroke-linejoin:round;stroke-miterlimit:10;}
	.st4{fill:none;stroke:#1D1D1B;stroke-width:2;stroke-linecap:round;stroke-linejoin:round;stroke-miterlimit:10;}
	.st5{fill:none;stroke:#313131;stroke-width:4;stroke-miterlimit:10;}
	.st6{fill:#E74C3C;}
	.st7{fill:#313131;}
	.st8{fill:#993227;}
	.st9{fill:#FFFFFF;stroke:#313131;stroke-width:4;stroke-miterlimit:10;}
	.st10{fill:none;stroke:#1D1D1B;stroke-width:2;stroke-miterlimit:10;}
	.st11{fill:#E5E5E5;}
	.st12{fill:#999999;}
	.st13{fill:#C6C6C6;}
	.st14{fill:none;stroke:#1D1D1B;stroke-width:4;stroke-miterlimit:10;}
	.st15{fill:#1D1D1B;}
	.st16{fill:none;stroke:#313131;stroke-width:4;stroke-linejoin:round;stroke-miterlimit:10;}
	.st17{fill:#CC4335;}
	.st18{fill:none;stroke:#313131;stroke-width:9;stroke-miterlimit:10;}
	.st19{fill:none;stroke:#313131;stroke-width:3;stroke-miterlimit:10;}
	.st20{fill:#FFFFFF;}
	.st21{fill:none;stroke:#313131;stroke-width:2;stroke-linecap:round;stroke-miterlimit:10;}
	.st22{fill:#FFFFFF;stroke:#313131;stroke-width:3;stroke-miterlimit:10;}
	.st23{fill:none;stroke:#313131;stroke-width:3;stroke-linejoin:round;stroke-miterlimit:10;}
</style>
<g id="guides">
</g>
<g id="icons">
	<g>
		<path class="st19" d="M57,69H23c-6.6,0-12-5.4-12-12V23c0-6.6,5.4-12,12-12h34c6.6,0,12,5.4,12,12v34C69,63.6,63.6,69,57,69z"/>
		<path class="st6" d="M23,65c-4.4,0-8-3.6-8-8V23c0-4.4,3.6-8,8-8h34c4.4,0,8,3.6,8,8v34c0,4.4-3.6,8-8,8H23z"/>
		<g>
			<circle class="st20" cx="27.2" cy="55.1" r="2.6"/>
			<circle class="st20" cx="38.1" cy="55.1" r="2.6"/>
			<polygon class="st20" points="59.6,22.4 55.6,22.4 47.6,57.6 51.6,57.6 			"/>
		</g>
	</g>
</g>
</svg>
