<?xml version="1.0" encoding="utf-8"?>
<!-- Generator: Adobe Illustrator 20.0.0, SVG Export Plug-In . SVG Version: 6.00 Build 0)  -->
<svg version="1.1" id="Capa_1" xmlns="http://www.w3.org/2000/svg" xmlns:xlink="http://www.w3.org/1999/xlink" x="0px" y="0px"
	 viewBox="0 0 256 256" style="enable-background:new 0 0 256 256;" xml:space="preserve">
<style type="text/css">
	.st0{fill:#FFFFFF;}
</style>
<path class="st0" d="M221.6-0.2H35.2c-19,0-34.4,15.4-34.4,34.4v186.4c0,19,15.4,34.4,34.4,34.4h91.9l0.2-91.2h-23.7
	c-3.1,0-5.6-2.5-5.6-5.6l-0.1-29.4c0-3.1,2.5-5.6,5.6-5.6h23.7V94.8c0-33,20.1-50.9,49.5-50.9h24.1c3.1,0,5.6,2.5,5.6,5.6v24.8
	c0,3.1-2.5,5.6-5.6,5.6l-14.8,0c-16,0-19.1,7.6-19.1,18.8v24.6H202c3.3,0,5.9,2.9,5.6,6.2l-3.5,29.4c-0.3,2.8-2.7,4.9-5.6,4.9h-31.5
	l-0.2,91.2h54.7c19,0,34.4-15.4,34.4-34.4V34.2C256,15.2,240.6-0.2,221.6-0.2z"/>
</svg>
