<svg viewBox="0 0 64 64" width="16" height="16" xmlns="http://www.w3.org/2000/svg" fill="#bbb" stroke-width="0"><path d="M58 64H6a6 6 0 0 1-6-6 8.49 8.49 0 0 1 4.61-7.59l17.33-8.92a21.58 21.58 0 0 1-8.15-16.94V14.47a10 10 0 0 1 3.16-7.29l1.84-1.73a19 19 0 0 1 26 0l1.84 1.73a10 10 0 0 1 3.16 7.29v10.07a21.57 21.57 0 0 1-8.14 16.93h.13l17.57 8.88A8.47 8.47 0 0 1 64 58a6 6 0 0 1-6 6zM23.59 45.12L6.44 54A4.49 4.49 0 0 0 4 58a2 2 0 0 0 2 2h52a2 2 0 0 0 2-2 4.48 4.48 0 0 0-2.47-4L40 45.12a4 4 0 0 1-.86-6.77 17.59 17.59 0 0 0 6.63-13.8V14.47a6 6 0 0 0-1.9-4.38L42 8.36a15 15 0 0 0-20.52 0l-1.84 1.73a6 6 0 0 0-1.9 4.38v10.07a17.59 17.59 0 0 0 6.63 13.8 4 4 0 0 1-.82 6.78z"/></svg>