<svg viewBox="0 0 79 81" width="80" height="80" xmlns="http://www.w3.org/2000/svg" fill="#777" stroke-width="0"><path d="M9.846 29.686l-2.398 2.136 33.506 27.65h-3.139l33.83-27.918-2.722-2.283v-6.218l9.846 6.817-.114.13.2-.09v4.822l-.086-.05v38.954c0 4.056-3.317 7.364-7.384 7.364h-64C3.317 81 0 77.692 0 73.636V34.364c0-.39.03-.774.09-1.148L0 33.204V29.87l9.846-6.817v6.633zM4.923 36.11v37.525a2.473 2.473 0 0 0 2.462 2.455h64a2.473 2.473 0 0 0 2.461-2.455V36.111L40.954 63.255l-1.57 1.295-1.569-1.295L4.923 36.11z"/><path d="M66.462 35.833l-4.924 4.062V7.364a2.458 2.458 0 0 0-2.461-2.455H19.692a2.458 2.458 0 0 0-2.461 2.455v32.534l-4.923-4.062V7.364C12.308 3.297 15.614 0 19.692 0h39.385c4.078 0 7.385 3.297 7.385 7.364v28.469z"/></svg>