<?xml version="1.0" encoding="utf-8"?>
<!-- Generator: Adobe Illustrator 19.2.1, SVG Export Plug-In . SVG Version: 6.00 Build 0)  -->
<svg version="1.1" xmlns="http://www.w3.org/2000/svg" xmlns:xlink="http://www.w3.org/1999/xlink" x="0px" y="0px"
	 viewBox="0 0 80 80" style="enable-background:new 0 0 80 80;" xml:space="preserve">
<style type="text/css">
	.st0{fill:none;stroke:#73A9E1;stroke-width:0.1;stroke-miterlimit:10;}
	.st1{fill:none;stroke:#E74C3C;stroke-width:4;stroke-linejoin:round;stroke-miterlimit:10;}
	.st2{fill:none;stroke:#E74C3C;stroke-width:4;stroke-miterlimit:10;}
	.st3{fill:none;stroke:#1D1D1B;stroke-width:4;stroke-linecap:round;stroke-linejoin:round;stroke-miterlimit:10;}
	.st4{fill:none;stroke:#1D1D1B;stroke-width:2;stroke-linecap:round;stroke-linejoin:round;stroke-miterlimit:10;}
	.st5{fill:none;stroke:#313131;stroke-width:4;stroke-miterlimit:10;}
	.st6{fill:#E74C3C;}
	.st7{fill:#313131;}
	.st8{fill:#993227;}
	.st9{fill:#FFFFFF;stroke:#313131;stroke-width:4;stroke-miterlimit:10;}
	.st10{fill:none;stroke:#1D1D1B;stroke-width:2;stroke-miterlimit:10;}
	.st11{fill:#E5E5E5;}
	.st12{fill:#999999;}
	.st13{fill:#C6C6C6;}
	.st14{fill:none;stroke:#1D1D1B;stroke-width:4;stroke-miterlimit:10;}
	.st15{fill:#1D1D1B;}
	.st16{fill:none;stroke:#313131;stroke-width:4;stroke-linejoin:round;stroke-miterlimit:10;}
	.st17{fill:#CC4335;}
	.st18{fill:none;stroke:#313131;stroke-width:9;stroke-miterlimit:10;}
	.st19{fill:none;stroke:#313131;stroke-width:3;stroke-miterlimit:10;}
	.st20{fill:#FFFFFF;}
	.st21{fill:none;stroke:#313131;stroke-width:2;stroke-linecap:round;stroke-miterlimit:10;}
	.st22{fill:#FFFFFF;stroke:#313131;stroke-width:3;stroke-miterlimit:10;}
	.st23{fill:none;stroke:#313131;stroke-width:3;stroke-linejoin:round;stroke-miterlimit:10;}
</style>
<g id="guides">
</g>
<g id="icons">
	<g>
		<path class="st23" d="M47.7,14.8v6.8H34.6c-1.3,0-2.3,1-2.3,2.3v22.6h-6.7L13.8,58.4V14.8c0-1.2,1-2.3,2.3-2.3h29.4
			C46.7,12.6,47.7,13.6,47.7,14.8z"/>
		<path class="st23" d="M66.2,23.9v43.5L54.3,55.5H34.6c-1.3,0-2.3-1-2.3-2.3V23.9c0-1.2,1-2.3,2.3-2.3H64
			C65.2,21.6,66.2,22.6,66.2,23.9z"/>
		<polygon class="st6" points="56,51.5 36.3,51.5 36.3,25.7 62.3,25.7 62.3,57.7 		"/>
	</g>
</g>
</svg>
