<?xml version="1.0" encoding="utf-8"?>
<!-- Generator: Adobe Illustrator 20.0.0, SVG Export Plug-In . SVG Version: 6.00 Build 0)  -->
<svg version="1.1" id="Capa_1" xmlns="http://www.w3.org/2000/svg" xmlns:xlink="http://www.w3.org/1999/xlink" x="0px" y="0px"
	 viewBox="0 0 173.6 173.6" style="enable-background:new 0 0 173.6 173.6;" xml:space="preserve">
<style type="text/css">
	.st0{fill:#F7F8F8;}
	.st1{fill:none;stroke:#313131;stroke-width:4;stroke-miterlimit:10;}
	.st2{fill:#E74C3C;}
	.st3{fill:#A6362B;}
	.st4{fill:none;stroke:#F7F8F8;stroke-width:4;stroke-linecap:round;stroke-miterlimit:10;}
	.st5{fill:none;stroke:#F7F8F8;stroke-width:4;stroke-linecap:round;stroke-linejoin:round;stroke-miterlimit:10;}
</style>
<g>
	<path class="st0" d="M86.8,2c46.8,0,84.8,38,84.8,84.8c0,46.8-38,84.8-84.8,84.8S2,133.7,2,86.8C2,40,40,2,86.8,2z"/>
</g>
<g>
	<path class="st1" d="M171.6,86.8c0,46.8-38,84.8-84.8,84.8S2,133.7,2,86.8C2,40,40,2,86.8,2S171.6,40,171.6,86.8z"/>
</g>
<path class="st2" d="M123.8,54.7v77.1c0,1.8-1.5,3.3-3.3,3.3H53.1c-1.8,0-3.3-1.5-3.3-3.3V37.5c0-1.8,1.5-3.3,3.3-3.3h50.2v17.2
	c0,1.8,1.5,3.3,3.3,3.3H123.8z"/>
<path class="st3" d="M102.5,33.3l22.2,22.2h-18.6c-2,0-3.6-1.6-3.6-3.6V33.3z"/>
<path class="st1" d="M123.8,54.7v77.1c0,1.8-1.5,3.3-3.3,3.3H53.1c-1.8,0-3.3-1.5-3.3-3.3V37.5c0-1.8,1.5-3.3,3.3-3.3h50.2
	L123.8,54.7z"/>
<line class="st4" x1="86.8" y1="66.8" x2="86.8" y2="106.8"/>
<polyline class="st5" points="69.1,89.9 86.8,107.7 104.6,89.9 "/>
</svg>
