<svg id="Capa_9" data-name="Capa 9" xmlns="http://www.w3.org/2000/svg" viewBox="0 0 212 111"><defs><style>.cls-1,.cls-11{fill:#fff}.cls-14,.cls-2,.cls-3{fill:#202020}.cls-2{opacity:.1}.cls-3{opacity:.15}.cls-10,.cls-12,.cls-13,.cls-4,.cls-5,.cls-6,.cls-7,.cls-8,.cls-9{fill:none}.cls-10,.cls-4,.cls-5{stroke:#5f5e5d}.cls-10,.cls-11,.cls-12,.cls-13,.cls-4,.cls-5,.cls-6,.cls-7,.cls-8,.cls-9{stroke-miterlimit:10;stroke-width:2px}.cls-10,.cls-11,.cls-12,.cls-13,.cls-5,.cls-6,.cls-7,.cls-8,.cls-9{stroke-linecap:round}.cls-11,.cls-6{stroke:#4585f2}.cls-7,.cls-8,.cls-9{stroke:#cac6c3}.cls-7{stroke-dasharray:4 10 79 10}.cls-8{stroke-dasharray:4 10 52 10}.cls-9{stroke-dasharray:4 5 79 10}.cls-10{stroke-dasharray:4 5 20 6}.cls-12,.cls-13{stroke:#f39c12}.cls-12{stroke-dasharray:1 4 2 5 9 5}</style></defs><title>newsletter</title><path class="cls-1" d="M122.94 100H113v5h7a2.84 2.84 0 0 1 3 3v8a2.74 2.74 0 0 1-2.81 3H113v4h10c.84 0 5-2.52 5-4.81v-14.91a6.09 6.09 0 0 0-5.06-3.28zM113 89a5.55 5.55 0 0 0-3.05-1H85c-3.16 0-6 3.1-6 7.52l.27 38.48H113V89z" transform="translate(-54 -24)"/><path class="cls-2" d="M113 90.75a5.83 5.83 0 0 0-.6-2.22 6.93 6.93 0 0 0-2.66-.53H96v29.61a16.75 16.75 0 0 1-8.81 14.75L86 133h27V90.75z" transform="translate(-54 -24)"/><path class="cls-3" d="M59 74h3v7h-3zm0 18.63h3v7h-3z"/><path class="cls-4" d="M76.21 134V90.75A5.77 5.77 0 0 1 82 85h25a5.77 5.77 0 0 1 5.75 5.75V134" transform="translate(-54 -24)"/><path class="cls-5" d="M113 105h6.19c1.78 0 2.81 1.84 2.81 3.62V114a2.74 2.74 0 0 1-2.81 3H113" transform="translate(-54 -24)"/><path class="cls-5" d="M113 123h8.94c3.33 0 6.06-1.92 6.06-5.24v-12.93c0-3.33-2.73-6.83-6.06-6.83H113" transform="translate(-54 -24)"/><path class="cls-1" d="M245 56.14c0-1.31-.9-3.14-2.22-3.14H241v-.86c0-1.31-.9-3.14-2.22-3.14h-96.11c-1.31 0-2.67 1.82-2.67 3.14V134l105-.08V56.14z" transform="translate(-54 -24)"/><path class="cls-3" d="M242.78 54H241l.11 2.16L241 56v-2.86c0-1.31-.9-3.14-2.22-3.14H237v80H136v4h109V57.14c0-1.32-.9-3.14-2.22-3.14z" transform="translate(-54 -24)"/><path class="cls-4" d="M241 134V53.13c0-1.31-.9-3.13-2.22-3.13H237m8 84V57.13c0-1.31-.9-3.13-2.22-3.13H241" transform="translate(-54 -24)"/><path class="cls-5" d="M136 133.91V48.38a2.38 2.38 0 0 1 2.38-2.38h96.11a2.38 2.38 0 0 1 2.38 2.38v85.53" transform="translate(-54 -24)"/><path class="cls-7" d="M1 110h210"/><path class="cls-8" d="M92.09 32.22h81.37"/><rect class="cls-6" x="92.09" y="44" width="40.68" height="29.5" rx="1.64" ry="1.64"/><path class="cls-3" d="M186.73 85v10.35a2.27 2.27 0 0 1-2.27 2.27h-36.1a2.27 2.27 0 0 1-2.27-2.27V85" transform="translate(-54 -24)"/><path class="cls-9" d="M141.29 44.12h32.17m-32.17 9.83h32.17m-32.17 9.84h32.17m-32.17 9.83h32.17m-81.37 10h81.37m-81.37 10h81.37m-81.37 10h81.37"/><path class="cls-10" d="M94 93.72h7.33a3.67 3.67 0 0 1 3.67 3.67v22.33" transform="translate(-54 -24)"/><path class="cls-11" d="M169 76.43h-7.39a2.2 2.2 0 0 0-1.68.79l-2.59 3.1a5.26 5.26 0 0 1-4 1.88 2.43 2.43 0 0 0-2.34 1.69l-.81 2.55a1.35 1.35 0 0 0 1.35 1.35h30.11a1.61 1.61 0 0 0 1.35-1.63l-.83-2.33a2.35 2.35 0 0 0-2.24-1.63h-3.71a.45.45 0 0 1-.31-.12L170.5 77a2.2 2.2 0 0 0-1.5-.57z" transform="translate(-54 -24)"/><circle class="cls-11" cx="101.87" cy="64.02" r="2.59"/><circle class="cls-11" cx="123.06" cy="64.02" r="2.59"/><path class="cls-11" d="M107.56 58.11h9.04"/><path class="cls-12" d="M94.76 80.25c0-11-15.56-6.88-15.56-22.8A12.36 12.36 0 0 1 91.36 45a9.84 9.84 0 0 1 10 9.73 7.87 7.87 0 0 1-7.78 8 6.3 6.3 0 0 1-6.37-6.23 5 5 0 0 1 5-5.1 4 4 0 0 1 3.74 2.42" transform="translate(-54 -24)"/><path class="cls-13" d="M135.36 10.05L135.34 1m-10.37 11.2l-6.24-4.03m27 4.03l6.24-4.03"/><path class="cls-14" d="M92.09 61h40.64"/></svg>