<?xml version="1.0" encoding="utf-8"?>
<!-- Generator: Adobe Illustrator 20.0.0, SVG Export Plug-In . SVG Version: 6.00 Build 0)  -->
<svg version="1.1" id="Capa_1" xmlns="http://www.w3.org/2000/svg" xmlns:xlink="http://www.w3.org/1999/xlink" x="0px" y="0px"
	 viewBox="0 0 256 209" style="enable-background:new 0 0 256 209;" xml:space="preserve">
<style type="text/css">
	.st0{fill:#FFFFFF;}
</style>
<path class="st0" d="M256,25.4c-9.4,4.2-19.5,7-30.2,8.3c10.8-6.5,19.2-16.8,23.1-29.1c-10.3,6.1-21.6,10.4-33.4,12.7
	C206,7.2,192.3,0.8,177.2,0.8c-29,0-52.5,23.5-52.5,52.5c0,4.1,0.5,8.1,1.4,12C82.4,63.1,43.7,42.2,17.8,10.4
	c-4.5,7.8-7.1,16.8-7.1,26.4c0,18.2,9.3,34.3,23.4,43.7C25.7,80.3,17.6,78,10.3,74c0,0.2,0,0.4,0,0.7c0,25.4,18.1,46.7,42.1,51.5
	c-7.7,2.1-15.8,2.4-23.7,0.9c6.7,20.9,26.1,36,49.1,36.5c-18,14.1-40.6,22.5-65.2,22.5c-4.2,0-8.4-0.2-12.5-0.7
	c23.2,14.9,50.8,23.6,80.5,23.6c96.6,0,149.4-80,149.4-149.4c0-2.3-0.1-4.5-0.2-6.8C240.1,45.2,248.9,36,256,25.4"/>
</svg>
